<?xml version="1.0" encoding="UTF-8"?>
<svg id="Livello_1" data-name="Livello 1" xmlns="http://www.w3.org/2000/svg" version="1.1" viewBox="0 0 550 123">
  <defs>
    <style>
      .cls-1 {
        fill: #000;
        stroke-width: 0px;
      }
    </style>
  </defs>
  <path class="cls-1" d="M64.4,96.5l7.9,22.2c-8,2.8-16.6,4.4-25.5,4.4s-17.7-1.6-25.8-4.5l7.9-22.2c5.7,2,11.7,3.1,17.9,3.1s12-1,17.6-3ZM231,99.5c-6.2,0-12.2-1.1-17.9-3.1l-7.9,22.2c8.1,2.9,16.7,4.5,25.8,4.5s17.5-1.5,25.5-4.4l-7.9-22.2c-5.6,2-11.5,3-17.6,3ZM550,46.7v43.9h-27.6v-43.9c0-10.7-7.7-19-17.6-19s-17.6,8.3-17.6,19v43.9h-27.6v-39.7c-2.6,22.7-21.9,40.4-45.3,40.4s-43.6-18.5-45.5-41.9c-1.9,23.5-21.5,41.9-45.5,41.9s-43.3-18.2-45.4-41.4c-1.6,24.4-21.9,43.7-46.7,43.7s-45.1-19.3-46.7-43.7c-2.1,23.2-21.7,41.4-45.4,41.4s-43.3-18.2-45.4-41.4c-1.6,24.4-21.9,43.7-46.7,43.7S0,72.6,0,46.8,21,0,46.8,0s0,0,0,0h0s46.8,0,46.8,0v24.8h-5.5c2.9,5.4,4.7,11.4,5.3,17.8C95,18.8,114.8,0,138.9,0s43.9,18.8,45.5,42.5C186.6,18.7,206.6,0,231,0s0,0,0,0h0s46.8,0,46.8,0v24.8h-5.5c2.9,5.4,4.7,11.4,5.3,17.8,1.6-23.8,21.4-42.5,45.5-42.5s43.6,18.5,45.5,41.9c1.9-23.5,21.5-41.9,45.5-41.9s43.9,18.7,45.5,42.4c.9-10.8,5.4-20.8,12.7-28.5,8.5-9,20-13.9,32.3-13.9s23.8,4.9,32.3,13.9c8.3,8.8,12.9,20.4,12.9,32.7ZM68.6,46.8c0-12-9.8-21.8-21.8-21.8s-21.8,9.8-21.8,21.8,9.8,21.8,21.8,21.8,21.8-9.8,21.8-21.8ZM156.5,45.6c0-9.9-8.1-18-18-18s-18,8.1-18,18,8.1,18,18,18,18-8.1,18-18ZM252.8,46.8c0-12-9.8-21.8-21.8-21.8s-21.8,9.8-21.8,21.8,9.8,21.8,21.8,21.8,21.8-9.8,21.8-21.8ZM340.8,45.6c0-9.9-8.1-18-18-18s-18,8.1-18,18,8.1,18,18,18,18-8.1,18-18ZM431.7,45.6c0-9.9-8.1-18-18-18s-18,8.1-18,18,8.1,18,18,18,18-8.1,18-18Z"/>
</svg>