<?xml version="1.0" encoding="UTF-8"?>
<svg id="Livello_1" data-name="Livello 1" xmlns="http://www.w3.org/2000/svg" xmlns:xlink="http://www.w3.org/1999/xlink" version="1.1" viewBox="0 0 275.9 362.7">
  <defs>
    <style>
      .cls-1 {
        fill: url(#Sfumatura_senza_nome_3);
        stroke-width: 0px;
      }
    </style>
    <linearGradient id="Sfumatura_senza_nome_3" data-name="Sfumatura senza nome 3" x1="0" y1="181.3" x2="275.9" y2="181.3" gradientUnits="userSpaceOnUse">
      <stop offset="0" stop-color="#fc1a6a"/>
      <stop offset="1" stop-color="#04cafd"/>
    </linearGradient>
  </defs>
  <path class="cls-1" d="M189.9,284.4l23.3,65.4c-23.5,8.4-48.8,12.9-75.2,12.9s-52.3-4.7-76-13.2l23.3-65.4c16.7,6,34.4,9.1,52.7,9.1s35.5-3,51.9-8.9ZM275.9,73.1h-16.2c10.3,19.3,16.2,41.4,16.2,64.9,0,76.2-61.8,138-138,138S0,214.2,0,138,61.8,0,138,0s0,0,.1,0h0s137.9,0,137.9,0v73.1ZM202.2,138c0-35.4-28.8-64.2-64.2-64.2s-64.2,28.8-64.2,64.2,28.8,64.2,64.2,64.2,64.2-28.8,64.2-64.2Z"/>
</svg>