<svg id="Raggruppa_1908" data-name="Raggruppa 1908" xmlns="http://www.w3.org/2000/svg" xmlns:xlink="http://www.w3.org/1999/xlink" width="140.762" height="234.286" viewBox="0 0 140.762 234.286">
  <defs>
    <clipPath id="clip-path">
      <rect id="Rettangolo_342" data-name="Rettangolo 342" width="140.762" height="234.286" fill="none"/>
    </clipPath>
  </defs>
  <path id="Tracciato_203" data-name="Tracciato 203" d="M149.729,543.2l-.062,13.527-9.494-.61.976-12.956Z" transform="translate(-85.787 -332.418)" fill="#fff"/>
  <path id="Tracciato_204" data-name="Tracciato 204" d="M149.261,556.425l-10.7-.688,1.061-14.084,9.7.044Zm-9.448-1.774,8.291.533.057-12.328-7.456-.034Z" transform="translate(-84.802 -331.496)"/>
  <g id="Raggruppa_1907" data-name="Raggruppa 1907">
    <g id="Raggruppa_1906" data-name="Raggruppa 1906" clip-path="url(#clip-path)">
      <path id="Tracciato_205" data-name="Tracciato 205" d="M145.2,568.521l-.574.552a3.752,3.752,0,0,1-4.1.734l-3.547-1.548a1.439,1.439,0,0,0-1.36.854,25.215,25.215,0,0,0-2.342,9.862,2.028,2.028,0,0,0,1.959,1.995l15.871.5h.032a36.013,36.013,0,0,0,4.758-.259l2.889-.407a5.293,5.293,0,0,0,1.821-.584,2.058,2.058,0,0,0,1.029-2.179c-.223-1.321-1.155-1.864-4.15-3.083-4.6-1.872-9.5-5.33-11.174-6.161a2.68,2.68,0,0,0-1.112-.28" transform="translate(-81.563 -347.78)" fill="#fff"/>
      <path id="Tracciato_206" data-name="Tracciato 206" d="M150.868,581.148c-.221,0-.443,0-.669-.01l-15.9-.5a2.607,2.607,0,0,1-2.523-2.566,26.01,26.01,0,0,1,2.392-10.109,2.01,2.01,0,0,1,1.91-1.2l.112,0,3.649,1.593a3.163,3.163,0,0,0,3.466-.621l.751-.722.245.008a3.249,3.249,0,0,1,1.352.34c.546.272,1.389.79,2.455,1.447a62.141,62.141,0,0,0,8.679,4.7c3.046,1.24,4.224,1.865,4.5,3.526a2.633,2.633,0,0,1-1.322,2.785,5.877,5.877,0,0,1-2.021.65l-2.889.407a41.9,41.9,0,0,1-4.189.275M135.94,567.926a.854.854,0,0,0-.712.507,24.817,24.817,0,0,0-2.291,9.614,1.444,1.444,0,0,0,1.4,1.423l15.871.5a35.567,35.567,0,0,0,4.715-.255l2.865-.4a4.713,4.713,0,0,0,1.621-.518,1.482,1.482,0,0,0,.735-1.572c-.165-.979-.8-1.424-3.795-2.641a64.157,64.157,0,0,1-8.851-4.783c-1.041-.641-1.863-1.148-2.362-1.4a2.08,2.08,0,0,0-.639-.2l-.384.37a4.323,4.323,0,0,1-4.739.849Z" transform="translate(-80.645 -346.862)"/>
      <path id="Tracciato_207" data-name="Tracciato 207" d="M170.474,578.868a.582.582,0,0,1-.464-.933l1.886-2.493a.582.582,0,0,1,.928.7l-1.886,2.493a.581.581,0,0,1-.464.231" transform="translate(-103.976 -352.034)"/>
      <path id="Tracciato_208" data-name="Tracciato 208" d="M178.5,583.448a.582.582,0,0,1-.481-.909l1.931-2.841a.582.582,0,0,1,.963.655l-1.932,2.84a.581.581,0,0,1-.481.255" transform="translate(-108.886 -354.624)"/>
      <path id="Tracciato_209" data-name="Tracciato 209" d="M153.229,593.583c-3.3,0-14.012-.585-14.495-.611a.582.582,0,1,1,.064-1.162c.125.007,12.576.688,14.933.6s6.729-.627,6.773-.632a.582.582,0,1,1,.144,1.155c-.182.023-4.468.554-6.875.64-.147.005-.329.008-.543.008" transform="translate(-84.57 -362.172)"/>
      <path id="Tracciato_210" data-name="Tracciato 210" d="M27.02,538.723,22.9,549.065l-7.418-2.134,4.437-11.193Z" transform="translate(-9.477 -327.876)" fill="#fff"/>
      <path id="Tracciato_211" data-name="Tracciato 211" d="M22.021,548.559l-8.54-2.457,4.893-12.342,8.171,3.437Zm-6.985-3.221,6.294,1.811,3.711-9.321-6.024-2.534Z" transform="translate(-8.25 -326.666)"/>
      <path id="Tracciato_212" data-name="Tracciato 212" d="M15.03,559.8l-7.4-2.342a1.355,1.355,0,0,0-1.45.421,23.435,23.435,0,0,0-4.618,8.287,1.909,1.909,0,0,0,1.274,2.3l10.512,3.328a33.5,33.5,0,0,0,7.1,1.428s7.673.811,7.858-1.657c.31-4.139-5.1-4.259-5.806-4.978-2.69-2.751-5.505-5.319-6.54-6.251a2.536,2.536,0,0,0-.935-.535" transform="translate(-0.919 -341.131)" fill="#fff"/>
      <path id="Tracciato_213" data-name="Tracciato 213" d="M22.2,573.019c-1.344,0-2.465-.109-2.723-.137a34.14,34.14,0,0,1-7.218-1.451L1.743,568.1a2.488,2.488,0,0,1-1.661-3,24.21,24.21,0,0,1,4.735-8.513,1.933,1.933,0,0,1,2.073-.6l7.4,2.342a3.107,3.107,0,0,1,1.149.657c1.079.972,3.88,3.53,6.566,6.277a5.975,5.975,0,0,0,1.055.365c1.811.532,5.181,1.523,4.916,5.063a1.788,1.788,0,0,1-.674,1.25c-1.053.878-3.283,1.079-5.1,1.079M6.3,557.059a.769.769,0,0,0-.591.276,23.024,23.024,0,0,0-4.5,8.06,1.325,1.325,0,0,0,.887,1.6l10.512,3.329a32.978,32.978,0,0,0,6.98,1.4c1.526.161,5.735.351,6.967-.678a.61.61,0,0,0,.258-.443c.18-2.4-1.829-3.2-4.084-3.859a3.734,3.734,0,0,1-1.558-.668c-2.662-2.723-5.442-5.261-6.513-6.225a1.948,1.948,0,0,0-.721-.412l-7.4-2.343a.78.78,0,0,0-.237-.037" transform="translate(0 -340.212)"/>
      <path id="Tracciato_214" data-name="Tracciato 214" d="M37.72,574.671a.582.582,0,0,1-.363-1.037l3.147-2.5a.582.582,0,0,1,.724.911l-3.147,2.5a.582.582,0,0,1-.362.126" transform="translate(-22.729 -349.46)"/>
      <path id="Tracciato_215" data-name="Tracciato 215" d="M45.193,580.858a.582.582,0,0,1-.359-1.04l2.57-2.013a.582.582,0,0,1,.718.916l-2.57,2.013a.58.58,0,0,1-.359.124" transform="translate(-27.302 -353.546)"/>
      <path id="Tracciato_216" data-name="Tracciato 216" d="M27.68,583.1a49.925,49.925,0,0,1-6.642-.526c-1.778-.324-13.578-4.764-14.079-4.952a.582.582,0,0,1,.41-1.09c3.389,1.276,12.487,4.644,13.878,4.9a46.283,46.283,0,0,0,7.089.49.582.582,0,1,1,.083,1.161c-.2.014-.447.021-.738.021" transform="translate(-4.028 -352.821)"/>
      <path id="Tracciato_217" data-name="Tracciato 217" d="M47.7,254.335a84.467,84.467,0,0,0-6.919,21.277c-1.664,10.427-16.532,76.1-19.221,87.79a1.743,1.743,0,0,0,.884,1.934,24.317,24.317,0,0,0,8.215,2.821,2.079,2.079,0,0,0,1.981-1c3.927-6.643,25.773-44.6,32.169-77.529,7.037-36.226,5.624-33.4,5.624-33.4Z" transform="translate(-13.169 -155.655)" fill="#0cf"/>
      <path id="Tracciato_218" data-name="Tracciato 218" d="M106.362,266.557s-3.02,19.69,2.691,34.258c5.492,14.007,10.667,59.066,8.62,74.931a1.83,1.83,0,0,0,1.56,2.051c2.5.351,7,.827,10.084.251a1.469,1.469,0,0,0,1.163-1.081c2.035-8.05,17.237-70.955,5.342-108.242Z" transform="translate(-64.606 -163.135)" fill="#0cf"/>
      <path id="Tracciato_219" data-name="Tracciato 219" d="M112.055,347.492a.581.581,0,0,1-.576-.508,67.82,67.82,0,0,0-4.38-15.8c-3.2-7.495-2.634-16.856-2.608-17.251a.582.582,0,0,1,1.162.076c-.006.094-.577,9.483,2.516,16.717a69.032,69.032,0,0,1,4.465,16.108.582.582,0,0,1-.5.651.609.609,0,0,1-.075,0" transform="translate(-63.915 -191.798)" fill="#fe196a"/>
      <path id="Tracciato_220" data-name="Tracciato 220" d="M233.433,49.237s7.944-1.373,13.492-1.677,14.536-18.894,14.722-21.138a1.793,1.793,0,0,0-.026-1c-.537-1.675-1.8-5.205-.916-7.063a4.165,4.165,0,0,1,4.259-2.654s.766-2.776,2.574-2.144a4.975,4.975,0,0,1,3.191,4.377c.378,3.448.435,6.8-2.814,9.454a3.55,3.55,0,0,0-1.24,2.02c-1.032,4.936-4.929,21.894-10.548,26.041-6.6,4.868-24.351,10.712-24.351,10.712Z" transform="translate(-141.848 -8.241)" fill="#fff"/>
      <path id="Tracciato_221" data-name="Tracciato 221" d="M230.857,65.828a.582.582,0,0,1-.579-.639l1.658-16.925a.582.582,0,0,1,.48-.517c.08-.014,8.042-1.382,13.56-1.684,2.1-.115,5.347-3.6,8.9-9.559,3.087-5.173,5.2-10.163,5.269-11.046a.618.618,0,0,1,.026-.13,1.243,1.243,0,0,0-.025-.648l-.125-.386c-.63-1.934-1.684-5.171-.762-7.1a4.887,4.887,0,0,1,4.375-3.016h0a3.791,3.791,0,0,1,1.547-1.98,2,2,0,0,1,1.625-.1,5.52,5.52,0,0,1,3.576,4.863c.382,3.483.463,7.122-3.025,9.968a2.982,2.982,0,0,0-1.038,1.688c-1.07,5.115-5.008,22.136-10.773,26.39-6.6,4.867-23.787,10.556-24.515,10.8a.585.585,0,0,1-.182.029m2.194-17.007-1.527,15.586c3.607-1.23,17.711-6.188,23.339-10.341,5.433-4.009,9.276-20.678,10.324-25.692a4.147,4.147,0,0,1,1.441-2.352c3.037-2.479,2.965-5.643,2.6-8.939a4.376,4.376,0,0,0-2.8-3.891.829.829,0,0,0-.7.033,3.178,3.178,0,0,0-1.121,1.716.581.581,0,0,1-.655.419,3.588,3.588,0,0,0-3.639,2.33c-.722,1.514.28,4.59.818,6.243l.127.391a2.406,2.406,0,0,1,.045,1.289c-.341,2.7-9.359,21.287-15.264,21.61-4.713.258-11.252,1.308-12.988,1.6" transform="translate(-140.93 -7.325)"/>
      <path id="Tracciato_222" data-name="Tracciato 222" d="M277.119,30.81,272.2,24.935l2.979-2.224a1.312,1.312,0,0,1,.558-.24l.366-.063a1.3,1.3,0,0,0,1-.837,1.284,1.284,0,0,1,.441-.6L299.678,4.427a2.61,2.61,0,0,1,.594-.333l6.5-2.594-3.646,5.61a4.2,4.2,0,0,1-.708.83L281.981,26.414a1.3,1.3,0,0,1-.62.312l-.058.012a1.3,1.3,0,0,0-.964.821l-.077.212a1.278,1.278,0,0,1-.345.509Z" transform="translate(-166.59 -0.918)" fill="#fff"/>
      <path id="Tracciato_223" data-name="Tracciato 223" d="M276.2,30.474l-.041,0a.582.582,0,0,1-.406-.207l-4.916-5.875a.582.582,0,0,1,.1-.84l2.979-2.224a1.893,1.893,0,0,1,.806-.347l.365-.063a.712.712,0,0,0,.551-.459,1.856,1.856,0,0,1,.641-.867L298.411,3.043a3.189,3.189,0,0,1,.727-.407l6.5-2.594a.582.582,0,0,1,.7.857l-3.646,5.61a4.793,4.793,0,0,1-.806.945L281.453,25.928a1.887,1.887,0,0,1-.9.45l-.057.012a.715.715,0,0,0-.531.45l-.077.211a1.874,1.874,0,0,1-.5.741l-2.8,2.531a.581.581,0,0,1-.39.151m-4.075-6.358,4.134,4.939,2.351-2.125a.7.7,0,0,0,.188-.278l.077-.211a1.886,1.886,0,0,1,1.4-1.192l.057-.012a.727.727,0,0,0,.344-.173L301.108,6.591a3.62,3.62,0,0,0,.61-.716L304.365,1.8l-4.8,1.914a2.039,2.039,0,0,0-.462.259L276.976,20.523a.7.7,0,0,0-.242.325,1.877,1.877,0,0,1-1.449,1.215l-.365.064a.724.724,0,0,0-.308.133Z" transform="translate(-165.672 0)"/>
      <path id="Tracciato_224" data-name="Tracciato 224" d="M258.131,65.67l5.05-4.027,4.872,5.965L263,71.635a2.147,2.147,0,0,1-3-.282l-2.228-2.728a2.087,2.087,0,0,1,.353-2.955" transform="translate(-157.481 -37.726)" fill="#139cbe"/>
      <path id="Tracciato_225" data-name="Tracciato 225" d="M260.719,71.412a2.675,2.675,0,0,1-2.082-.975l-2.228-2.728a2.606,2.606,0,0,1-.575-1.94,2.707,2.707,0,0,1,1.016-1.838l5.5-4.385,5.609,6.867-5.51,4.394a2.766,2.766,0,0,1-1.729.605m1.457-10.238-4.6,3.668a1.547,1.547,0,0,0-.585,1.051,1.448,1.448,0,0,0,.319,1.08l2.228,2.728a1.565,1.565,0,0,0,2.184.2l4.59-3.66Z" transform="translate(-156.563 -36.443)"/>
      <path id="Tracciato_226" data-name="Tracciato 226" d="M287.678,60.1a.58.58,0,0,1-.446-.208l-1.281-1.523a.582.582,0,1,1,.891-.749l1.281,1.523a.582.582,0,0,1-.445.957" transform="translate(-174.921 -35.137)"/>
      <path id="Tracciato_227" data-name="Tracciato 227" d="M267.539,78.046A.582.582,0,0,1,267.185,77l2.8-2.152a.582.582,0,1,1,.709.923l-2.805,2.152a.579.579,0,0,1-.354.12" transform="translate(-163.38 -45.736)" fill="#fff"/>
      <path id="Tracciato_228" data-name="Tracciato 228" d="M299.334,34.576c2.486-4.425,3.93-8.592,3.66-8.282a13.017,13.017,0,0,1,1.945-6.655c1.21-1.741,1.365-8.293,4.8-5.84a4.849,4.849,0,0,1,1.792,1.824,9.7,9.7,0,0,1,.906,2.622c.378,3.451.07,6.372-3.189,9.025a3.527,3.527,0,0,0-1.23,2.011c-.106.507-.639,2.918-.8,3.653Z" transform="translate(-183.195 -8.112)" fill="#fff"/>
      <path id="Tracciato_229" data-name="Tracciato 229" d="M308.767,26.277a33.929,33.929,0,0,1,1.945-6.655c.911-1.915,1.365-8.293,4.8-5.84a4.849,4.849,0,0,1,1.792,1.824,9.716,9.716,0,0,1,.906,2.622c.378,3.451.069,6.372-3.189,9.025a3.521,3.521,0,0,0-1.23,2.011c-.1.462-5.041-2.835-5.028-2.987" transform="translate(-188.968 -8.096)" fill="#fff"/>
      <path id="Tracciato_230" data-name="Tracciato 230" d="M298.077,34.506a.583.583,0,0,1-.507-.867,50.137,50.137,0,0,0,3.721-8.187.618.618,0,0,1-.005-.071,13.494,13.494,0,0,1,2.049-6.992,9.443,9.443,0,0,0,.82-2.252c.533-1.865,1.084-3.794,2.465-4.276a2.541,2.541,0,0,1,2.335.546l.147.1a5.108,5.108,0,0,1,1.815,1.91,10.266,10.266,0,0,1,.976,2.842c.409,3.731-.013,6.782-3.4,9.54a2.953,2.953,0,0,0-1.028,1.679c-.107.509-.735,3.387-.9,4.1a.582.582,0,1,1-1.135-.256c.161-.715.787-3.579.893-4.086a4.119,4.119,0,0,1,1.432-2.343c2.99-2.434,3.356-5.061,2.978-8.511a9.238,9.238,0,0,0-.836-2.4,4.007,4.007,0,0,0-1.472-1.526l-.15-.107A1.5,1.5,0,0,0,307,12.959c-.812.284-1.321,2.065-1.73,3.5a9.69,9.69,0,0,1-.984,2.6,12.294,12.294,0,0,0-1.835,6.075c.113.3-.069.955-1,3.18a59.116,59.116,0,0,1-2.872,5.9.582.582,0,0,1-.508.3" transform="translate(-182.07 -7.195)"/>
      <path id="Tracciato_231" data-name="Tracciato 231" d="M33.182,128.446c-3.07,3.272-17.886,18.588-16.505,50.544a2.292,2.292,0,0,1-.165,1.153c-.9,1.791-3.623,7.676-2.226,11.066,1.615,3.921,6.644,12.3,6.611-.326a.3.3,0,0,1,.55-.156c.609.994,1.559,2.351,2.074,2.1,1.206-.584-1.1-7.094-.612-10.986,4.039-32.121,18.457-38.785,22.432-41.824,0,0-11.824-11.929-12.158-11.574" transform="translate(-8.503 -78.605)" fill="#fff"/>
      <path id="Tracciato_232" data-name="Tracciato 232" d="M18.172,197.249c-2.54,0-5.228-6.45-5.345-6.735-1.453-3.526,1.086-9.252,2.245-11.55a1.832,1.832,0,0,0,.1-.866c-.626-14.5,1.734-35.089,16.537-50.833l.295-.314.269-.011c.289-.007.883-.025,12.558,11.753l.466.47-.526.4c-.4.3-.886.636-1.453,1.022-5.128,3.488-17.14,11.657-20.756,40.413a24.539,24.539,0,0,0,.534,6.344c.48,2.87.769,4.6-.246,5.094-.646.312-1.353-.146-2.3-1.517-.075,4.075-.73,6.031-2.093,6.3a1.452,1.452,0,0,1-.286.028m14.2-68.991c-14.361,15.424-16.652,35.574-16.038,49.79a2.838,2.838,0,0,1-.227,1.441c-.848,1.682-3.513,7.415-2.208,10.582,1.345,3.264,3.447,6.183,4.327,6.009.121-.024,1.178-.4,1.163-6.111a.879.879,0,0,1,1.628-.462,7.332,7.332,0,0,0,1.328,1.752,17.4,17.4,0,0,0-.4-3.724,25.265,25.265,0,0,1-.541-6.681c3.682-29.278,16-37.654,21.256-41.23.313-.213.6-.41.863-.593-3.876-3.9-9.669-9.609-11.153-10.773m.31-.331h0" transform="translate(-7.583 -77.687)"/>
      <path id="Tracciato_233" data-name="Tracciato 233" d="M57.749,122.657a13.392,13.392,0,0,1,1.142-1.018.865.865,0,0,1,1.386.546c.686,4.243,2.316,15.932-3.054,36.541-2.145,8.231,40.375,11.812,42.222,2.181,1-5.2-.824-3.342-.3-14.867.343-7.559,1.752-13.609,6.116-22.339.012-.025.022-.048.032-.074.192-.5,2.544-6.207,10.507-9.167a.864.864,0,0,0,.437-.354,43.332,43.332,0,0,0,5.929-20.777.866.866,0,0,0-.606-.838c-2.385-.753-11.245-3.409-17.433-3.392-7.209.02-4.176,1.193-9.469.248a24.006,24.006,0,0,1-3.6-1.7c-3.274-1.718-9.321,2.48-15.9.928a3.525,3.525,0,0,0-2.292.248,31.168,31.168,0,0,1-8.927,2.684c-4.873.557-15.043,5.29-20.472,16.617-.215.449,10.329,11.582,13.038,14.507a.866.866,0,0,0,1.247.021" transform="translate(-26.598 -53.386)"/>
      <path id="Tracciato_234" data-name="Tracciato 234" d="M133.5,49.383l-1.111-8.254a1.3,1.3,0,0,1,.737-1.335l2.926-1.378a1.535,1.535,0,0,0,.859-1.646l-.776-4.551a.024.024,0,0,1,.006-.02l1.181-1.271a.635.635,0,0,0-.023-.888l-2.531-2.456c-.492-.478-2.007-3.607-2.646-3.354,0,0-12.242-.091-13.925,5.535a4.513,4.513,0,0,0,1.034,4.268l1.323,1.48a8.7,8.7,0,0,1,2.278,5.563,8.815,8.815,0,0,1-.229,2.206l-1.945,7.8a23.468,23.468,0,0,0,10.419-.913Z" transform="translate(-72.234 -14.82)" fill="#fff"/>
      <path id="Tracciato_235" data-name="Tracciato 235" d="M122.94,50.948a23.94,23.94,0,0,1-3.272-.224.582.582,0,0,1-.485-.717l1.945-7.8a8.219,8.219,0,0,0,.211-2.052,8.109,8.109,0,0,0-2.13-5.188l-1.323-1.48a5.113,5.113,0,0,1-1.158-4.822c1.73-5.781,13.186-5.949,14.4-5.951.784-.179,1.455.847,2.459,2.49a10,10,0,0,0,.675,1.029l2.53,2.456a1.224,1.224,0,0,1,.044,1.7l-.993,1.069.729,4.278a2.124,2.124,0,0,1-1.186,2.271l-2.926,1.378a.717.717,0,0,0-.407.738l1.11,8.248a.583.583,0,0,1-.4.632l-2.422.781a24.188,24.188,0,0,1-7.406,1.159m-2.468-1.3a23.033,23.033,0,0,0,9.516-.969l1.959-.632L130.9,40.278a1.88,1.88,0,0,1,1.066-1.939l2.926-1.378a.958.958,0,0,0,.534-1.023l-.776-4.55a.627.627,0,0,1,.155-.515l1.18-1.27a.052.052,0,0,0,0-.074l-2.531-2.456a7.557,7.557,0,0,1-.857-1.257,11.05,11.05,0,0,0-1.36-1.933h-.045c-.506,0-11.834.066-13.346,5.12a3.943,3.943,0,0,0,.91,3.712l1.323,1.48a9.277,9.277,0,0,1,2.426,5.938,9.424,9.424,0,0,1-.244,2.351Z" transform="translate(-71.32 -13.891)"/>
      <path id="Tracciato_236" data-name="Tracciato 236" d="M115.768,18.651a.7.7,0,0,0-.145-.945c-.552-.425-1.346-1.115-1.408-1.619a1.775,1.775,0,0,1,.428-1.2c.884-1.245,2.6-1.25,5.891-1.717,4.086-.58,4.563-.615,5.191-1.147,1.6-1.351,1.877-3.968,1.327-5.855a5.553,5.553,0,0,0-3.889-3.945,5.345,5.345,0,0,0-5.52,1.85c-.343-.483-1.051-2.278-2.847-2.015-4.71.689-6.213,6.567-6.483,9.287a4.171,4.171,0,0,0-3.16.616c-1.854,1.367-1.505,4.074-1.469,4.328.429,2.975,4.314,5.483,6.682,6.737a11.483,11.483,0,0,0,3.3,1.264l.358-.391a1.138,1.138,0,0,0-.117-1.646l0,0a4.465,4.465,0,0,1-1.134-1.367,1.73,1.73,0,0,1-.22-1.574c.372-.611,1.353-.624,1.494-.626a2.521,2.521,0,0,1,.9.223.692.692,0,0,0,.83-.253" transform="translate(-63.425 -1.242)"/>
    </g>
  </g>
</svg>
