<svg xmlns="http://www.w3.org/2000/svg" xmlns:xlink="http://www.w3.org/1999/xlink" width="394.783" height="700.913" viewBox="0 0 394.783 700.913">
  <defs>
    <clipPath id="clip-path">
      <rect id="Rettangolo_319" data-name="Rettangolo 319" width="394.783" height="700.913" transform="translate(0 0)" fill="none"/>
    </clipPath>
  </defs>
  <g id="Raggruppa_1865" data-name="Raggruppa 1865" clip-path="url(#clip-path)">
    <path id="Tracciato_10" data-name="Tracciato 10" d="M64.249,527.957l-6.731-6.465c-5.007-4.226-6.869-13.462-6.869-13.462a16.172,16.172,0,0,0-5.753-8.813L16.7,477.289a3.111,3.111,0,0,0-4.98,1.886c-.393,2.285.154,5.285,3.659,8.425l7.486,6.19a3.521,3.521,0,0,1,.8,4.483c-1.585,2.74-3.532,7.5-2.117,12.773C24.7,522.8,38.712,526.828,42.208,527.659c.507.12,9.658,13.875,9.658,13.875Z" transform="translate(-9.899 -406.296)" fill="#fff"/>
    <path id="Tracciato_11" data-name="Tracciato 11" d="M41.967,533.322c-.044,0-.087,0-.131,0a1.716,1.716,0,0,1-1.3-.76c-3.186-4.79-7.881-11.71-9.126-13.279-4.805-1.218-18.184-5.651-21.419-17.714-1.532-5.714.4-10.809,2.288-14.076a1.8,1.8,0,0,0-.407-2.3l-7.487-6.19C.095,475.15-.292,471.418.132,468.957a4.741,4.741,0,0,1,2.989-3.641,4.811,4.811,0,0,1,4.734.692l28.2,21.928a17.96,17.96,0,0,1,6.362,9.748c.036.166,1.829,8.787,6.313,12.57l6.812,6.539a1.715,1.715,0,0,1,.079,2.393L43.234,532.763a1.715,1.715,0,0,1-1.268.559M4.893,468.416a1.508,1.508,0,0,0-.534.1,1.33,1.33,0,0,0-.846,1.023c-.4,2.339.644,4.645,3.112,6.857l7.435,6.146a5.225,5.225,0,0,1,1.189,6.665c-1.563,2.7-3.172,6.891-1.943,11.47,2.937,10.954,16.674,14.74,19.4,15.388.764.181,1.131.269,9.472,12.767l9.777-10.721L46.43,512.8c-5.32-4.486-7.281-13.959-7.363-14.36a14.477,14.477,0,0,0-5.124-7.8l-28.2-21.929a1.366,1.366,0,0,0-.854-.3" transform="translate(0.001 -396.369)"/>
    <path id="Tracciato_12" data-name="Tracciato 12" d="M1322.322,4245.528l3.722,39.509a1.9,1.9,0,0,1-1.6,2.192l-19.617,1.213a1.682,1.682,0,0,1-1.693-1.583l-3.646-35.907Z" transform="translate(-1107.728 -3619.046)" fill="#fff"/>
    <path id="Tracciato_13" data-name="Tracciato 13" d="M1294.819,4280.251a3.388,3.388,0,0,1-3.3-3.088l-3.65-35.946a1.715,1.715,0,0,1,1.31-1.842l22.839-5.425a1.714,1.714,0,0,1,2.1,1.508l3.722,39.509a3.816,3.816,0,0,1-.86,2.856,3.315,3.315,0,0,1-2.346,1.208l-19.617,1.213c-.068,0-.136.006-.2.006m-3.384-37.885,3.493,34.411a.2.2,0,0,0,.01.036l19.489-1.205a1.376,1.376,0,0,0,.007-.289l-3.541-37.576Z" transform="translate(-1097.821 -3609.137)"/>
    <path id="Tracciato_14" data-name="Tracciato 14" d="M1024.207,4432.433c1.3,4.667,4.049,17.818,5.2,25.73a9.9,9.9,0,0,1-7.217,10.96c-13.574,3.672-46.023,3.513-73.038,4.706-1.849.082-5.26-.821-6.776-5.3-5.141-15.2,23.253-19.912,51.319-35.369a1.629,1.629,0,0,1,1.736.09c.323.23.734.512,1.218.82,4.882,3.106,13,3.111,17.955.129l5.6-3.368a2.707,2.707,0,0,1,4.006,1.6" transform="translate(-802.797 -3776.671)" fill="#0cf"/>
    <path id="Tracciato_15" data-name="Tracciato 15" d="M938.9,4465.629c-2.827,0-6.543-1.676-8.166-6.475-4.087-12.088,9.888-18.141,27.581-25.8,7.545-3.267,16.095-6.97,24.535-11.618a3.323,3.323,0,0,1,3.559.2c.3.216.688.48,1.142.77,4.3,2.736,11.7,2.784,16.151.106l5.6-3.368a4.421,4.421,0,0,1,6.541,2.614c1.356,4.854,4.1,18.042,5.244,25.944a11.611,11.611,0,0,1-8.466,12.862c-10.292,2.784-30.558,3.388-52.014,4.027-7.123.212-14.489.432-21.4.737-.1,0-.205.006-.31.006m45.517-40.905a269.745,269.745,0,0,1-24.739,11.776c-18.374,7.958-28.627,12.882-25.694,21.556,1.386,4.1,4.47,4.168,5.075,4.139,6.933-.306,14.31-.525,21.446-.738,20.313-.6,41.318-1.231,51.22-3.909a8.18,8.18,0,0,0,5.967-9.058c-1.1-7.58-3.836-20.8-5.153-25.515a.99.99,0,0,0-.6-.669.971.971,0,0,0-.875.073l-5.6,3.367c-5.535,3.328-14.4,3.26-19.76-.151-.515-.328-.951-.626-1.294-.87" transform="translate(-792.784 -3766.751)"/>
    <path id="Tracciato_16" data-name="Tracciato 16" d="M1032.266,4615.941c.027.137.045.233.051.276.721,4.964-3.993,8.015-8.5,10.13-13.374,6.278-67.383,2.68-69.468,2.539a1.135,1.135,0,0,0-.115,0c-.672.01-7.528.01-9.5-4.253a7.292,7.292,0,0,1-.489-1.972,9.8,9.8,0,0,1,.178-3.42,1.645,1.645,0,0,1,2.007-1.256c10.025,2.564,33.432,3.414,56.823.838,15.55-1.712,22.305-5.1,25.91-7.259a1.649,1.649,0,0,1,2.464,1.114c.187.945.414,2.094.644,3.267" transform="translate(-804.841 -3930.866)" fill="#fff"/>
    <path id="Tracciato_17" data-name="Tracciato 17" d="M978.4,4621.881c-15.836,0-31.072-.978-34.073-1.182-1.4.02-8.685-.124-11.06-5.246a8.642,8.642,0,0,1-.633-2.467,11.5,11.5,0,0,1,.205-4.021,3.412,3.412,0,0,1,1.533-2.154,3.313,3.313,0,0,1,2.572-.389c9.257,2.368,32.1,3.45,56.211.8,14.8-1.63,21.479-4.791,25.219-7.026a3.35,3.35,0,0,1,3.082-.188,3.391,3.391,0,0,1,1.943,2.441l.644,3.269h0c.038.19.06.325.068.385.909,6.255-4.97,9.791-9.471,11.9-6.487,3.045-21.62,3.879-36.24,3.879m-34.036-4.612c.066,0,.126,0,.2.008,19.2,1.3,58.253,2.483,68.615-2.381,5.66-2.656,7.983-5.226,7.531-8.331l-.68-3.456c-3.914,2.425-11.039,5.813-26.5,7.517-24.511,2.7-47.885,1.561-57.436-.881a10.7,10.7,0,0,0-.059,2.79,5.354,5.354,0,0,0,.345,1.475c1.231,2.656,5.714,3.288,7.921,3.26h.063" transform="translate(-794.929 -3920.968)"/>
    <path id="Tracciato_18" data-name="Tracciato 18" d="M1223.381,4487.875a1.705,1.705,0,0,1-1.038-.351l-8.193-6.238a1.716,1.716,0,0,1,2.079-2.729l8.193,6.238a1.716,1.716,0,0,1-1.041,3.08" transform="translate(-1034.411 -3817.389)"/>
    <path id="Tracciato_19" data-name="Tracciato 19" d="M1155.53,4523.082a1.705,1.705,0,0,1-1.029-.343l-7.167-5.379a1.715,1.715,0,1,1,2.059-2.744l7.167,5.378a1.715,1.715,0,0,1-1.031,3.087" transform="translate(-977.445 -3848.134)"/>
    <path id="Tracciato_20" data-name="Tracciato 20" d="M1453.355,1769.227s15.568,31.154,20.8,63.974c4.875,30.557,22.8,156.367,66.491,257.282,4.953,11.441-.766,23.346-12.946,26-4.873,1.061-6.915-.675-11.135-2.726a38.127,38.127,0,0,1-5.779-4.181s-77.341-64.638-108.876-234.237C1381.63,1766.252,1385,1774.905,1385,1774.905Z" transform="translate(-1180.45 -1508.155)"/>
    <path id="Tracciato_21" data-name="Tracciato 21" d="M1117.444,1865.847s9.08,59.2-8.093,103c-16.512,42.115-27.057,207.224-20.9,254.924a5.5,5.5,0,0,1-4.691,6.165c-7.511,1.056-21.055,2.488-30.319.756a4.416,4.416,0,0,1-3.5-3.251c-6.116-24.2-56.839-242.972-21.075-355.08Z" transform="translate(-866.25 -1590.518)"/>
    <path id="Tracciato_22" data-name="Tracciato 22" d="M1574.718,2484.495c-.034,0-.068,0-.1,0a1.715,1.715,0,0,1-1.609-1.814,150.249,150.249,0,0,1,11.6-45.568,96.22,96.22,0,0,0,6.435-24.88,1.715,1.715,0,1,1,3.4.456,99.53,99.53,0,0,1-6.68,25.773,149.735,149.735,0,0,0-11.327,44.424,1.715,1.715,0,0,1-1.711,1.613" transform="translate(-1340.885 -2055.006)" fill="#139cbe"/>
    <path id="Tracciato_23" data-name="Tracciato 23" d="M1239.906,2138.858a16.39,16.39,0,0,1-6.7-1.427l-16.244-7.274a14.885,14.885,0,0,1-8.826-14.112l1.02-31.968a5.552,5.552,0,0,1,6.142-5.339,194.012,194.012,0,0,0,46.371-1.17,5.553,5.553,0,0,1,6.347,5.794l-1.8,33.477a14.874,14.874,0,0,1-6.162,11.3l-10.518,7.608a16.435,16.435,0,0,1-9.633,3.109m-25.2-56.72a2.12,2.12,0,0,0-2.118,2.049l-1.02,31.968a11.467,11.467,0,0,0,6.8,10.871l16.244,7.274a13.018,13.018,0,0,0,12.917-1.331l10.518-7.608a11.461,11.461,0,0,0,4.746-8.707l1.8-33.477a2.123,2.123,0,0,0-2.428-2.214h0a197.643,197.643,0,0,1-47.224,1.187,2.212,2.212,0,0,0-.233-.012m47.212-2.872h0Z" transform="translate(-1029.856 -1770.947)" fill="#139cbe"/>
    <path id="Tracciato_24" data-name="Tracciato 24" d="M1819.81,2089.828a5.648,5.648,0,0,1-2.563-.616l-17.889-9.091a5.632,5.632,0,0,1-3.059-4.432l-4.035-37.241a5.646,5.646,0,0,1,4.755-6.2l21.784-3.375a1.716,1.716,0,1,1,.525,3.391l-21.785,3.375a2.22,2.22,0,0,0-1.869,2.436l4.035,37.242a2.215,2.215,0,0,0,1.2,1.743l17.889,9.091a2.216,2.216,0,0,0,2.292-.168l6.679-4.731a1.715,1.715,0,0,1,1.983,2.8l-6.679,4.731a5.645,5.645,0,0,1-3.266,1.043" transform="translate(-1527.764 -1729.473)" fill="#139cbe"/>
    <path id="Tracciato_25" data-name="Tracciato 25" d="M2295.271,4009.763c-2.385-11.924-3.42-14.374-9.143-23.567-4.254-6.832,6.083-17.134,11.347-17.924,8.78-1.807,7.376.974,17.419,13.844l7.863,9.672s-25.4,28.4-27.486,17.975" transform="translate(-1947.926 -3382.279)" fill="#fff"/>
    <path id="Tracciato_26" data-name="Tracciato 26" d="M2304.79,4037.682a4.053,4.053,0,0,1-1.073-.135,4.16,4.16,0,0,1-2.955-3.524c-2.1-10.521-2.761-13.272-6.977-20.313a1.716,1.716,0,0,1,2.944-1.763c4.5,7.508,5.244,10.634,7.4,21.4.16.8.411.864.493.887,3.082.844,14.13-8.8,23.048-18.579l-6.529-7.964a84.78,84.78,0,0,1-6.276-9.257,1.716,1.716,0,0,1,2.944-1.763,81.4,81.4,0,0,0,6.012,8.877l7.439,9.074a1.715,1.715,0,0,1-.048,2.231c-4.518,5.05-19.214,20.826-26.418,20.826" transform="translate(-1955.1 -3406.203)"/>
    <path id="Tracciato_27" data-name="Tracciato 27" d="M2327.981,4098.038l10.167-15.338a13.674,13.674,0,0,1,20.965-2.216l11.637,9.763s2.225,6.714,1.518,11.046a91.285,91.285,0,0,1-6.244,21.65c-5.4,12.26-20.351,36.893-25.673,45.548-1.115,1.813-3.905,3.608-5.848,2.739a27.228,27.228,0,0,1-7.008-5.058c-3.574-3.353-2.375-19.028-1.094-29.94.822-7,.21-24.851-.091-32.21a10.073,10.073,0,0,1,1.673-5.984" transform="translate(-1982.023 -3475.028)" fill="#0cf"/>
    <path id="Tracciato_28" data-name="Tracciato 28" d="M2325.634,4163.258a4.349,4.349,0,0,1-1.794-.375,28.382,28.382,0,0,1-7.48-5.372c-2.055-1.927-4.457-7.277-1.625-31.392.807-6.88.2-24.629-.1-31.94a11.744,11.744,0,0,1,1.958-7l10.167-15.339a15.389,15.389,0,0,1,23.546-2.541l11.96,10.035.153.462c.1.29,2.349,7.168,1.582,11.862a93.454,93.454,0,0,1-6.368,22.067c-5.372,12.191-19.82,36.059-25.782,45.754-1.109,1.806-3.691,3.781-6.215,3.781m-6.185-74.186a8.338,8.338,0,0,0-1.388,4.966c.3,7.392.917,25.356.082,32.48-2.746,23.369-.263,27.714.563,28.489a25.153,25.153,0,0,0,6.537,4.744c.863.391,2.863-.735,3.684-2.071,4.624-7.519,20.131-33.006,25.565-45.341a89.927,89.927,0,0,0,6.122-21.236c.484-2.97-.671-7.692-1.309-9.776l-11.353-9.531a11.958,11.958,0,0,0-18.335,1.937Z" transform="translate(-1972.062 -3465.115)"/>
    <path id="Tracciato_29" data-name="Tracciato 29" d="M2326.33,4314.955a1.716,1.716,0,0,1-.454-3.37l10.944-3.007a1.715,1.715,0,0,1,.909,3.308l-10.944,3.007a1.727,1.727,0,0,1-.456.062" transform="translate(-1981.589 -3672.74)"/>
    <path id="Tracciato_30" data-name="Tracciato 30" d="M2331.833,4381.146a1.716,1.716,0,0,1-.454-3.37l10.943-3.007a1.715,1.715,0,1,1,.909,3.308l-10.943,3.007a1.71,1.71,0,0,1-.456.062" transform="translate(-1986.279 -3729.164)"/>
    <path id="Tracciato_31" data-name="Tracciato 31" d="M2338.039,4218.316a9.635,9.635,0,0,1-3.14-.51c-3.267-1.125-11.44-3.559-10.529-15.278.945-12.145,10.183-18.331,16.927-26.3,5.146-6.082,4.628-31.513,6.248-36.5a12.726,12.726,0,0,1,16.558-8.03c1.94.749,4.469,3.241,5.942,4.83,4.141,4.465,4.631,14.165,4.228,21.3-.755,13.357-8.607,39.944-18.532,52.783-4.842,6.263-12.309,7.705-17.7,7.705" transform="translate(-1981.32 -3521.311)" fill="#fff"/>
    <path id="Tracciato_32" data-name="Tracciato 32" d="M2328.131,4210.079a11.309,11.309,0,0,1-3.7-.6l-.288-.1c-3.386-1.156-12.38-4.225-11.392-16.934.774-9.957,6.717-16.094,12.465-22.029,1.643-1.7,3.342-3.45,4.861-5.247,3.036-3.589,4-16.414,4.63-24.9.381-5.1.682-9.127,1.3-11.02a14.613,14.613,0,0,1,7.592-8.639,14.068,14.068,0,0,1,11.215-.461c2.188.844,4.787,3.328,6.582,5.263,4.887,5.269,5.032,16.4,4.684,22.562-.729,12.889-8.449,40.229-18.889,53.735-5.63,7.285-14.358,8.372-19.059,8.372Zm21.628-87.448a10.881,10.881,0,0,0-4.685,1.075,11.164,11.164,0,0,0-5.8,6.6c-.487,1.5-.8,5.732-1.139,10.216-.747,9.989-1.676,22.421-5.431,26.86-1.594,1.885-3.334,3.681-5.016,5.418-5.57,5.752-10.831,11.185-11.51,19.908-.782,10.057,5.634,12.246,9.08,13.421l.3.1a7.905,7.905,0,0,0,2.578.417h0c4.073,0,11.612-.915,16.346-7.039,10.042-12.992,17.473-39.375,18.176-51.831.541-9.564-.834-16.868-3.772-20.035-2.126-2.292-4.108-3.936-5.3-4.4a10.594,10.594,0,0,0-3.822-.716" transform="translate(-1971.415 -3511.357)"/>
    <path id="Tracciato_33" data-name="Tracciato 33" d="M2360.484,4249.467a10.23,10.23,0,0,1-7.784-3.3,8.567,8.567,0,0,1-1.978-6.913c1.768-12.777,8.691-19.417,16.02-26.447,5.479-5.255,6.953-24.181,7.661-33.277a45.375,45.375,0,0,1,.632-5.947c1.087-3.973,5.981-7.53,11.144-8.1a10.668,10.668,0,0,1,11.039,5.9,1.715,1.715,0,1,1-3.033,1.6,7.223,7.223,0,0,0-7.631-4.1c-4.059.447-7.584,3.306-8.209,5.593-.152.551-.332,2.862-.521,5.308-.8,10.249-2.284,29.326-8.708,35.486-7.186,6.893-13.392,12.845-15,24.442a5.115,5.115,0,0,0,1.167,4.188,6.814,6.814,0,0,0,5.2,2.126,27.732,27.732,0,0,0,3.542-.225,1.715,1.715,0,0,1,.44,3.4,31.146,31.146,0,0,1-3.982.253" transform="translate(-2003.766 -3550.745)"/>
    <path id="Tracciato_34" data-name="Tracciato 34" d="M1350.079,409.822l-7.355-40.37-32.891,8.461,4.54,28.106Z" transform="translate(-1116.55 -314.935)" fill="#fff"/>
    <path id="Tracciato_35" data-name="Tracciato 35" d="M1340.168,401.629a1.687,1.687,0,0,1-.182-.01l-35.707-3.8a1.715,1.715,0,0,1-1.511-1.432l-4.54-28.106a1.715,1.715,0,0,1,1.265-1.935l32.891-8.461a1.715,1.715,0,0,1,2.115,1.354l7.356,40.37a1.715,1.715,0,0,1-1.687,2.023m-34.223-7.085,32.125,3.421-6.615-36.3-29.591,7.612Z" transform="translate(-1106.639 -305.026)"/>
    <path id="Tracciato_36" data-name="Tracciato 36" d="M1180.349.155c11.756,1.595,13.356,14.865,27.4,16.425,6.438.714,9.671-1.675,15.375,1.064,3.777,1.814,9.273,6.183,9.835,11.965.715,7.363-7.357,8.953-15.6,23.125-5.792,9.953-6.144,16.617-10.75,17.338-4.657.728-6.74-5.7-11.887-5.29-6.661.534-7.531,11.655-14.561,14.97-4.431,2.09-13.712,1.654-26.812-8.158a5.5,5.5,0,0,1-1.63-6.846c1.514-3.043,3.448-6.876,5.6-10.384,10.271-16.719,17.52-19.541,16.09-24.667-2.19-7.855-16.606-6.4-17.716-12.718-1.153-6.562,12.582-18.463,24.653-16.825" transform="translate(-981.279 -0.002)"/>
    <path id="Tracciato_37" data-name="Tracciato 37" d="M1231.976,156.331l-3.127-1.627s-10.141,21.167-14.108,26.589-21.691-5.592-21.691-5.592l-.435-3.91-2.12-1.381a2.594,2.594,0,0,1-.409-4.018c4.277-4.239,13.351-13.859,17.762-23.221a28.63,28.63,0,0,1,24.127,13.16" transform="translate(-1013.819 -122.035)" fill="#fff"/>
    <path id="Tracciato_38" data-name="Tracciato 38" d="M1201.1,174.552c-6.658,0-16.455-5.82-18.863-7.316a1.715,1.715,0,0,1-.8-1.267l-.344-3.1-1.441-.938a4.31,4.31,0,0,1-.68-6.674c3.783-3.749,13.053-13.468,17.417-22.734a1.717,1.717,0,0,1,1.451-.981,30.114,30.114,0,0,1,25.662,13.932,1.715,1.715,0,0,1-2.226,2.462l-1.558-.811c-2.464,5.08-10.087,20.6-13.5,25.264a5.963,5.963,0,0,1-5.119,2.167m-16.346-9.8c6.861,4.125,16.791,8.211,18.7,5.605,3.829-5.233,13.846-26.107,13.946-26.317a1.7,1.7,0,0,1,.312-.449,27.156,27.156,0,0,0-18.692-8.628c-4.563,9.081-12.938,18.077-17.628,22.725a.88.88,0,0,0,.138,1.363l2.119,1.38a1.716,1.716,0,0,1,.769,1.248Z" transform="translate(-1003.908 -112.113)"/>
    <path id="Tracciato_39" data-name="Tracciato 39" d="M1433.188,299.478s8.155-9.979,11.911-5.309-5.5,15.431-11.911,5.309" transform="translate(-1221.703 -249.7)" fill="#fff"/>
    <path id="Tracciato_40" data-name="Tracciato 40" d="M2176.634,2183.687l15.093-.554s-.466,16.781,2.531,20.911c4.884,6.729,9.556,10.006,11.157,13.657,9.294,21.2-30.506,34.813-24.452,20.643,4.942-11.569.8-16.363.8-16.363-4.718-5.449-13.023-3.22-13.064-3.33-2.173-5.773,2.347-13.391,5.228-17.412a12.464,12.464,0,0,0,2.3-6.792Z" transform="translate(-1848.189 -1860.983)" fill="#fff"/>
    <path id="Tracciato_41" data-name="Tracciato 41" d="M2174.87,2235.961a7.084,7.084,0,0,1-4.373-1.234c-1.111-.853-2.715-2.893-.975-6.966,4.379-10.247,1.09-14.55,1.055-14.591-1.586-1.83-4.822-3.823-11.111-2.78-1.436.237-2.01-.437-2.24-1.045-2.453-6.515,2.354-14.71,5.439-19.015a10.715,10.715,0,0,0,1.98-5.858l.411-10.759a1.716,1.716,0,0,1,1.652-1.649l15.093-.555a1.73,1.73,0,0,1,1.27.5,1.71,1.71,0,0,1,.507,1.266c-.172,6.264.275,17.193,2.206,19.856a73.956,73.956,0,0,0,6.3,7.417c2.275,2.43,4.073,4.35,5.041,6.559,3.563,8.129.962,16.43-7.139,22.774-4.461,3.494-10.56,6.083-15.115,6.083m-12.1-29.292c5.441,0,8.629,2.211,10.42,4.28.2.229,4.788,5.748-.516,18.159-.434,1.019-.8,2.35-.091,2.9,1.855,1.426,9.089.023,15.283-4.829,3.978-3.115,10.062-9.688,6.112-18.7-.732-1.671-2.352-3.4-4.4-5.591a77.878,77.878,0,0,1-6.571-7.747c-2.725-3.756-2.924-15.435-2.888-20.138l-11.7.43-.35,9.169a14.139,14.139,0,0,1-2.62,7.725c-1.988,2.774-6.219,9.406-5.363,14.507a22.527,22.527,0,0,1,2.682-.166" transform="translate(-1838.326 -1851.075)"/>
    <path id="Tracciato_42" data-name="Tracciato 42" d="M471.321,629.577l-.658-5.034-44.385-13.951a115.144,115.144,0,0,0-29.139-4.745c-23.908-1.059-49.235,14.43-57.376,36.934L330.9,661.237a10.228,10.228,0,0,1-7.888,5.728c-24.426,3.157-50.918-8.7-81.087-37.818a3.767,3.767,0,0,0-4.481-.747L221.9,643.97a3.6,3.6,0,0,0-1.716,4.186c27.49,86.8,80.422,80.222,107.135,81.845,1.533,20.2-.322,47.357,0,60.22.183,7.325-.818,45.451,6.424,46.57,69.366,10.719,129.688,4.622,150.952-3.212,5.311-1.957,4.359-52.5,5.136-57.9a401.687,401.687,0,0,1,20.408,71l28.46,5.147c13.652-143.366-45.757-204.874-67.377-222.252" transform="translate(-187.557 -516.404)" fill="#fff"/>
    <path id="Tracciato_43" data-name="Tracciato 43" d="M528.8,843.624a1.691,1.691,0,0,1-.3-.027l-28.46-5.147a1.716,1.716,0,0,1-1.386-1.4,404.629,404.629,0,0,0-17.335-62.839c-.023,1.129-.046,2.323-.068,3.555-.649,34.989-2.018,46.087-5.857,47.5-21.244,7.827-82.387,14.024-151.808,3.3-6.424-.993-7.782-18.283-7.844-43.938,0-1.853-.008-3.332-.032-4.285-.116-4.681.049-11.121.24-18.578.316-12.3.707-27.5-.128-40.055-1.892-.092-3.911-.155-6.023-.221-28.31-.884-75.692-2.364-101.144-82.737a5.314,5.314,0,0,1,2.288-6.067l15.389-15.419a1.731,1.731,0,0,1,.375-.285,5.5,5.5,0,0,1,6.512,1.009c29.3,28.278,55.362,40.491,79.675,37.351a8.478,8.478,0,0,0,6.563-4.77l8.829-18.378c8.291-22.782,33.672-39.106,59.036-37.982a116.341,116.341,0,0,1,29.577,4.822l44.386,13.951a1.715,1.715,0,0,1,1.186,1.414l.569,4.354c10.959,8.924,31.107,28.808,46.868,64.083,19.563,43.785,26.495,97.358,20.6,159.234a1.714,1.714,0,0,1-1.708,1.553m-26.984-8.339,25.45,4.6c5.523-60.491-1.37-112.852-20.492-155.651-15.728-35.2-35.837-54.734-46.424-63.244a1.712,1.712,0,0,1-.627-1.115l-.516-3.948-43.341-13.622a112.926,112.926,0,0,0-28.7-4.668c-23.578-1.042-48.046,14.683-55.688,35.8a1.361,1.361,0,0,1-.067.159l-8.867,18.455a11.9,11.9,0,0,1-9.214,6.686c-25.417,3.285-52.4-9.237-82.5-38.285a2.15,2.15,0,0,0-2.273-.573l-15.344,15.374a1.729,1.729,0,0,1-.375.285,1.877,1.877,0,0,0-.919,2.172c24.719,78.055,70.58,79.487,97.981,80.343,2.706.085,5.262.164,7.623.308a1.716,1.716,0,0,1,1.607,1.582c.986,13.006.574,29.029.243,41.9-.19,7.41-.354,13.809-.239,18.4.023.97.028,2.476.032,4.362.014,6.145.04,16.429.841,25.248,1.337,14.714,3.985,15.291,4.1,15.308,68.7,10.616,129,4.592,150-3.089,2.944-2.86,3.483-31.935,3.713-44.384.115-6.187.2-10.658.419-12.187a1.715,1.715,0,0,1,3.293-.386,410.708,410.708,0,0,1,20.288,70.154" transform="translate(-177.655 -506.483)"/>
    <path id="Tracciato_44" data-name="Tracciato 44" d="M952.374,1111.1a1.715,1.715,0,0,1-1.676-1.362c-2.263-10.742-2.769-24.883-1.426-39.818a1.715,1.715,0,0,1,3.417.307c-1.313,14.605-.828,28.386,1.366,38.8a1.717,1.717,0,0,1-1.681,2.069" transform="translate(-808.567 -910.708)"/>
    <path id="Tracciato_45" data-name="Tracciato 45" d="M907.011,1478.607c10.557,14.382,14.955,26.269,36.494,28.536l-4.216,18.668c-11.8,11.826-28.906-15.055-34.325-36.132v-10.411a1.132,1.132,0,0,1,2.047-.661" transform="translate(-771.425 -1260.023)" fill="#0cf"/>
    <path id="Tracciato_46" data-name="Tracciato 46" d="M923,1520.514a10.846,10.846,0,0,1-2.862-.4c-10.949-2.987-22.408-23.045-26.746-39.916l-.054-.427v-10.411a2.848,2.848,0,0,1,5.145-1.677c1.683,2.293,3.2,4.5,4.663,6.643,7.708,11.249,13.276,19.376,30.627,21.2l1.919.2-4.749,21.033-.351.351a10.592,10.592,0,0,1-7.593,3.4m-26.231-40.957c4.155,15.963,14.861,34.683,24.272,37.251a6.771,6.771,0,0,0,6.779-1.781l3.683-16.314c-17.446-2.394-23.541-11.287-31.186-22.444-1.136-1.658-2.3-3.36-3.548-5.1Z" transform="translate(-761.516 -1250.119)"/>
    <path id="Tracciato_47" data-name="Tracciato 47" d="M1109.908,794.544l-12.358.354-13.625,159.174a25.876,25.876,0,0,0,14.562,23.45l14.231,6.918Z" transform="translate(-923.977 -677.299)" fill="#0cf"/>
    <path id="Tracciato_48" data-name="Tracciato 48" d="M1104.564,977.007l-16.738-8.136a27.728,27.728,0,0,1-15.528-25l.007-.135,13.755-160.7,15.627-.447Zm-28.836-33.051a24.28,24.28,0,0,0,13.6,21.83l11.725,5.7-2.744-185.37-9.089.26Z" transform="translate(-914.066 -667.106)"/>
    <path id="Tracciato_49" data-name="Tracciato 49" d="M1216.861,743.433c2.879,66.139,7.631,138.967-.4,176.646-.194,13.225,7.383,17.36,20.484,19.175,32.006,4.434,67.381,4.985,95.59-2.823a27.275,27.275,0,0,0,19.893-28.137c3.766-44.271-2.545-105.36-11.512-170.884Z" transform="translate(-1036.953 -628.597)" fill="#0cf"/>
    <path id="Tracciato_50" data-name="Tracciato 50" d="M1271.376,933.83a326.724,326.724,0,0,1-44.578-3.213c-11.544-1.6-22.194-5.238-21.964-20.9l.038-.333c7-32.828,4.2-93.2,1.485-151.576-.383-8.262-.765-16.5-1.12-24.638l-.074-1.705,127.328-6.181.213,1.557c7.948,58.083,15.532,123.828,11.532,171.133a29.086,29.086,0,0,1-21.155,29.773c-14.6,4.042-32.252,6.082-51.706,6.082m-63.114-23.9c-.107,10.8,4.887,15.329,19.007,17.286,36.469,5.053,70.172,4.067,94.9-2.777a25.642,25.642,0,0,0,18.639-26.369l-.008-.13.011-.13c3.96-46.559-3.438-111.385-11.289-168.948l-120.779,5.863c.333,7.579.689,15.241,1.045,22.923,2.716,58.5,5.525,118.988-1.522,152.283" transform="translate(-1027.042 -618.26)"/>
    <path id="Tracciato_51" data-name="Tracciato 51" d="M1147.764,812.78l-1.608,34.309a11.964,11.964,0,0,0,9.467,12.283c45.724,9.571,88,12.227,123.292.9a13.815,13.815,0,0,0,9.537-14.4l-3.238-35.611a7.407,7.407,0,0,0-7.507-6.735l-122.639,2.164a7.443,7.443,0,0,0-7.3,7.093" transform="translate(-977.014 -684.951)" fill="#0cf"/>
    <path id="Tracciato_52" data-name="Tracciato 52" d="M1216.51,859.47c-21.017,0-44.625-2.774-71.149-8.326a13.614,13.614,0,0,1-10.828-14.043l1.608-34.31a9.178,9.178,0,0,1,8.987-8.728l122.639-2.164a9.175,9.175,0,0,1,9.246,8.3l3.237,35.61A15.439,15.439,0,0,1,1269.529,852c-15.518,4.981-33.107,7.474-53.019,7.474m-76.942-56.517-1.608,34.309a10.2,10.2,0,0,0,8.105,10.524c51.056,10.688,91.1,11,122.417.944a12.027,12.027,0,0,0,8.351-12.614l-3.238-35.611a5.709,5.709,0,0,0-5.768-5.175l-122.639,2.164a5.741,5.741,0,0,0-5.621,5.458" transform="translate(-967.105 -675.044)"/>
    <path id="Tracciato_53" data-name="Tracciato 53" d="M1477.965,1616.679c-23.957,3.944-55.744,3.859-89.065,3.04a5.161,5.161,0,0,1-5.337-5.177l.212-55.547a6.477,6.477,0,0,1,6.4-6.453l85.618-1.036a7.62,7.62,0,0,1,7.711,7.479l.942,50.862a6.711,6.711,0,0,1-6.481,6.831" transform="translate(-1179.401 -1322.562)" fill="#0cf"/>
    <path id="Tracciato_54" data-name="Tracciato 54" d="M1410.365,1611.974c-10.355,0-20.937-.192-31.416-.449a6.736,6.736,0,0,1-4.92-1.937,6.822,6.822,0,0,1-2.088-4.962l.211-55.547a8.229,8.229,0,0,1,8.093-8.161l85.618-1.036h.115a9.359,9.359,0,0,1,9.333,9.163l.943,50.862a8.465,8.465,0,0,1-8.02,8.573c-16.41,2.69-36.658,3.495-57.868,3.495m-31.431-3.878c31.921.781,64.7.957,88.846-3.019l.22-.022a5.017,5.017,0,0,0,4.823-5.086l-.943-50.861a5.917,5.917,0,0,0-5.975-5.8l-85.619,1.036a4.783,4.783,0,0,0-4.7,4.743l-.211,55.547a3.445,3.445,0,0,0,3.563,3.457" transform="translate(-1169.494 -1312.653)"/>
    <path id="Tracciato_55" data-name="Tracciato 55" d="M1410.616,1647.687a1.715,1.715,0,0,1-.03-3.43l87.52-1.606h.032a1.715,1.715,0,0,1,.03,3.43l-87.521,1.606h-.032" transform="translate(-1201 -1400.256)"/>
    <path id="Tracciato_56" data-name="Tracciato 56" d="M1117.812,1605.046a1.716,1.716,0,0,1-.432-.056l-20.074-5.219a1.715,1.715,0,1,1,.862-3.32l20.074,5.219a1.715,1.715,0,0,1-.43,3.376" transform="translate(-934.289 -1360.827)"/>
    <path id="Tracciato_57" data-name="Tracciato 57" d="M1207.548,649.729l-141.634,3.615c-6.645-15.7-7.241-30.382,0-43.76h137.949a6.6,6.6,0,0,1,5.859,3.938c6.141,12.755,5.673,28.582-2.174,36.207" transform="translate(-904.183 -519.632)" fill="#139cbe"/>
    <path id="Tracciato_58" data-name="Tracciato 58" d="M1056.18,645.151a1.713,1.713,0,0,1-1.579-1.047c-7.112-16.8-7.088-32.021.071-45.245a1.716,1.716,0,0,1,1.509-.9h137.948a8.3,8.3,0,0,1,7.4,4.908c6.682,13.877,5.6,30.291-2.524,38.182a1.713,1.713,0,0,1-1.151.485l-141.634,3.615h-.043m1.035-43.76c-6.109,11.92-6.076,25.125.1,40.3l139.765-3.567c6.569-7,7.2-21.642,1.365-33.766a4.9,4.9,0,0,0-4.313-2.967Zm140.6,38.429h0Z" transform="translate(-894.449 -509.724)"/>
    <path id="Tracciato_59" data-name="Tracciato 59" d="M1067.121,631.649c0,12.195-1.167,20.069-4.234,20.069s-6.875-7.874-6.875-20.069,2.487-22.081,5.554-22.081,5.554,9.886,5.554,22.081" transform="translate(-900.184 -519.619)"/>
    <path id="Tracciato_60" data-name="Tracciato 60" d="M1286.957,639.785a1.716,1.716,0,0,1-1.582-2.374c6.811-16.387,6.75-30.873-.183-43.056a1.715,1.715,0,1,1,2.982-1.7c7.484,13.153,7.608,28.653.368,46.07a1.716,1.716,0,0,1-1.585,1.058" transform="translate(-1095.353 -504.465)"/>
    <path id="Tracciato_61" data-name="Tracciato 61" d="M1823.687,639.718a1.716,1.716,0,0,1-1.521-2.506c6.891-13.262,6.371-26.24-1.634-40.84a1.716,1.716,0,0,1,3.009-1.649c8.487,15.481,9.033,29.9,1.67,44.071a1.714,1.714,0,0,1-1.523.925" transform="translate(-1551.709 -506.204)"/>
  </g>
</svg>
