<svg id="Raggruppa_2300" data-name="Raggruppa 2300" xmlns="http://www.w3.org/2000/svg" xmlns:xlink="http://www.w3.org/1999/xlink" width="523.47" height="528.224" viewBox="0 0 523.47 528.224">
  <defs>
    <clipPath id="clip-path">
      <rect id="Rettangolo_375" data-name="Rettangolo 375" width="523.47" height="528.224" fill="none"/>
    </clipPath>
  </defs>
  <g id="Raggruppa_2298" data-name="Raggruppa 2298" clip-path="url(#clip-path)">
    <path id="Tracciato_4321" data-name="Tracciato 4321" d="M523.753,264.394c0,145.192-116.91,262.895-261.127,262.895S1.5,409.586,1.5,264.394,118.41,1.5,262.626,1.5,523.753,119.2,523.753,264.394" transform="translate(-0.283 -0.283)" fill="#fff"/>
    <path id="Tracciato_4322" data-name="Tracciato 4322" d="M261.347,28.358c-1.074,1.585,2.114,6.918,8.457,6.918s9.514-1.064,12.157,5.854-1.057,30.333,2.644,38.847,10.043,13.836,14.8,9.047,4.229-17.561,10.043-20.754S336.406,52.3,337.464,41.662s-6.343-18.626-24.844-20.754-43.343-4.257-51.272,7.45" transform="translate(-49.184 -3.623)" fill="#fe196a"/>
    <path id="Tracciato_4323" data-name="Tracciato 4323" d="M151.679,320.563a7.407,7.407,0,0,0-4.283,6.9c.419,8.926-3.338,31.167-11.226,38.27-10.047,9.047-6.345,25.349-6.5,31.93-.317,13.366,1.116,19.311,17.072,25.7s22.2,6.748,23.386,19.52,3.022,62.11,7.75,74.882,14.775,33.526,20.093,38.316,17.73,7.45,10.047-10.643-12.411-26.609-3.546-36.719,23.639-33.526,24.822-42.573,6.5-14.369,11.228-15.433,14.775-4.257,17.73-7.45-2.955-12.24-4.728-20.222-1.773-12.771,13-19.158,7.682-24.48-12.411-29.269-32.5-14.9-30.14-25.012-13.593-9.047-23.049-13.836-9.172-12.311-19.7-15.9c-14.224-4.846-24.209-1.984-29.551.7" transform="translate(-24.321 -59.751)" fill="#fe196a"/>
    <path id="Tracciato_4324" data-name="Tracciato 4324" d="M521.668,255.993c-4.454-6.727-3.9-17.378,7.238-31.951,8.746-11.448-3.8-22.9-9.592-27.281a1.468,1.468,0,0,1,.738-2.628c7.173-.818,23.807,1.609,31.125,38.878,9.465,48.206,13.362,31.39,18.373,25.784s-4.364-16.073,5.011-26.906c5.91-6.827,8.91-16.787,10.434-24.909A263.078,263.078,0,0,0,445.124,33.665c.1,8.393-1.909,37.635-35.926,25.576,0,0-21.157-10.091-16.146,30.829s22.271-2.8,25.612-4.484,12.25-3.924,8.352,23.542c0,0-.557,9.53-17.817,7.849s-20.6,6.726-20.6,11.211,1.67,16.255-7.794,24.664-6.682,30.269,6.124,22.982,21.715-30.27,33.407-32.512,22.271,12.893,33.407,8.968,6.125-22.982,11.692-22.982,17.261,11.211,15.589,19.619-18.93,12.331-14.476,22.422,13.92,6.726,16.7,13.453-13.92,14.574-27.283,6.166-15.589,3.924-22.27-1.683-7.238-17.376-16.7-13.452-15.034,11.771-27.282,17.377S367.44,206.1,367.44,213.952s4.454,16.256,2.227,28.588-6.125,45.965,33.964,39.239,35.077,14.013,35.077,16.255-.557,31.391,3.342,36.436,12.8,19.619,0,38.677-7.8,61.661,3.9,56.055,23.385-27.466,37.861-38.677,34.521-59.978,26.169-75.113,11.693-27.467,14.477-37.558,1.67-15.134-2.784-21.86" transform="translate(-69.205 -6.341)" fill="#fe196a"/>
    <path id="Tracciato_4325" data-name="Tracciato 4325" d="M86.85,88.144c.235,9.338-.61,21.817-6.6,31.34C62.157,148.221,62.741,162.59,60.99,191.326s38.065,79.394,47.984,84.716,11.45-7.337,11.45-17.447-4.238-22.239-10.073-33.946-5.834-19.159-4.084-23.948,8.753-6.385,13.421-1.6,15.888,9.038,21.28,6.045c6.626-3.678,4.047-18.082,6.381-22.871s15.171-7.983,20.422-18.093,14-14.369,24.508-19.158,19.839-6.918,21.589-10.11-.583-10.644,2.334-19.158,9.919-18.626,7-22.883S211.535,81.7,195.2,92.344,174.774,102.987,170.106,95s5.251-28.737,25.674-28.737,24.507-6.385,25.091-11.175-5.835-10.112-12.837-11.176-8.169,2.661-37.344,13.3c-19.472,7.1-37.564,3.119-46.807,1.224a283.658,283.658,0,0,0-37.033,29.7" transform="translate(-11.477 -8.239)" fill="#fe196a"/>
    <path id="Tracciato_4326" data-name="Tracciato 4326" d="M613.908,383.738c-3.945-.882-3.068,8.826-8.328,10.591s-7.452,4.414-6.137,14.123-.877,22.506-6.137,27.362-12.712,8.385-13.15,20.3-11.4,23.39-17.972,27.362-16.657,10.151-16.657,20.3c0,6.536-.172,14.891,1.338,21.316A262.984,262.984,0,0,0,618.87,398.465c-1.028-6.515-2.708-14.223-4.963-14.728" transform="translate(-102.745 -72.264)" fill="#fe196a"/>
    <path id="Tracciato_4327" data-name="Tracciato 4327" d="M287.934,639.029a259.42,259.42,0,0,1-151.555-48.5,1.217,1.217,0,0,1,1.415-1.981,258.672,258.672,0,0,0,274.509,16.2,1.217,1.217,0,1,1,1.173,2.134,261.282,261.282,0,0,1-125.541,32.147" transform="translate(-25.59 -110.806)" fill="#009ee3"/>
    <path id="Tracciato_4328" data-name="Tracciato 4328" d="M2.142,287.623A1.217,1.217,0,0,1,.93,286.507c-.617-7.4-.93-14.934-.93-22.4A263.281,263.281,0,0,1,76.836,77.359a261.069,261.069,0,0,1,354.9-14.932,264.841,264.841,0,0,1,88.9,155.192,1.218,1.218,0,1,1-2.4.423C496.2,93.111,388.581,2.435,262.344,2.435,119.03,2.435,2.435,119.822,2.435,264.111c0,7.394.31,14.861.921,22.192a1.217,1.217,0,0,1-1.112,1.315c-.035,0-.068,0-.1,0" fill="#009ee3"/>
    <path id="Tracciato_4329" data-name="Tracciato 4329" d="M161.7,64.371c0,15.128-24.111,51.485-29.888,59.978a1.49,1.49,0,0,1-2.467,0c-4.137-6.083-17.67-26.445-25.023-43.073-2.918-6.6-4.863-12.606-4.863-16.9a31.12,31.12,0,0,1,62.24,0" transform="translate(-18.733 -6.263)" fill="#009ee3"/>
    <path id="Tracciato_4330" data-name="Tracciato 4330" d="M148.732,68.29A14.23,14.23,0,1,1,134.5,54.06a14.23,14.23,0,0,1,14.23,14.23" transform="translate(-22.653 -10.182)" fill="#fff"/>
    <path id="Tracciato_4331" data-name="Tracciato 4331" d="M137.667,81.424a15.435,15.435,0,0,1-15.309-13.511,1.218,1.218,0,0,1,2.416-.3,13.011,13.011,0,1,0,13.353-14.632,1.216,1.216,0,0,1-1.176-1.257,1.2,1.2,0,0,1,1.257-1.176,15.444,15.444,0,0,1-.541,30.88" transform="translate(-23.044 -9.519)"/>
    <path id="Tracciato_4332" data-name="Tracciato 4332" d="M408.545,126.062c0,15.128-24.111,51.485-29.888,59.978a1.49,1.49,0,0,1-2.467,0c-4.138-6.084-17.67-26.445-25.023-43.074-2.918-6.6-4.863-12.606-4.863-16.9a31.12,31.12,0,0,1,62.24,0" transform="translate(-65.224 -17.882)" fill="#009ee3"/>
    <path id="Tracciato_4333" data-name="Tracciato 4333" d="M395.574,129.981a14.23,14.23,0,1,1-14.23-14.23,14.23,14.23,0,0,1,14.23,14.23" transform="translate(-69.144 -21.801)" fill="#fff"/>
    <path id="Tracciato_4334" data-name="Tracciato 4334" d="M384.5,143.125a15.456,15.456,0,0,1-15.3-13.519,1.218,1.218,0,1,1,2.416-.3,13.011,13.011,0,1,0,13.353-14.633,1.217,1.217,0,0,1,.08-2.433A15.448,15.448,0,0,1,386.457,143a15.837,15.837,0,0,1-1.962.123" transform="translate(-69.535 -21.139)"/>
    <path id="Tracciato_4335" data-name="Tracciato 4335" d="M287.89,342.382c0,15.128-24.11,51.485-29.888,59.978a1.49,1.49,0,0,1-2.467,0c-4.137-6.083-17.67-26.445-25.023-43.073-2.918-6.6-4.863-12.606-4.863-16.9a31.12,31.12,0,0,1,62.24,0" transform="translate(-42.5 -58.624)" fill="#009ee3"/>
    <path id="Tracciato_4336" data-name="Tracciato 4336" d="M274.92,346.3a14.23,14.23,0,1,1-14.23-14.23,14.23,14.23,0,0,1,14.23,14.23" transform="translate(-46.419 -62.543)" fill="#fff"/>
    <path id="Tracciato_4337" data-name="Tracciato 4337" d="M263.841,359.444a15.456,15.456,0,0,1-15.3-13.519,1.218,1.218,0,0,1,2.416-.3,13.012,13.012,0,1,0,13.353-14.633,1.216,1.216,0,0,1-1.176-1.256,1.2,1.2,0,0,1,1.257-1.177A15.448,15.448,0,0,1,265.8,359.32a15.831,15.831,0,0,1-1.962.123" transform="translate(-46.81 -61.881)"/>
    <path id="Tracciato_4338" data-name="Tracciato 4338" d="M483.856,426.958c0,15.128-24.111,51.485-29.888,59.978a1.49,1.49,0,0,1-2.467,0c-4.138-6.083-17.67-26.445-25.023-43.073-2.917-6.6-4.863-12.606-4.863-16.9a31.12,31.12,0,1,1,62.24,0" transform="translate(-79.409 -74.554)" fill="#009ee3"/>
    <path id="Tracciato_4339" data-name="Tracciato 4339" d="M470.885,430.878a14.23,14.23,0,1,1-14.23-14.23,14.23,14.23,0,0,1,14.23,14.23" transform="translate(-83.328 -78.473)" fill="#fff"/>
    <path id="Tracciato_4340" data-name="Tracciato 4340" d="M459.806,444.021A15.452,15.452,0,0,1,444.512,430.5a1.217,1.217,0,1,1,2.415-.3,13.01,13.01,0,1,0,13.353-14.633,1.217,1.217,0,1,1,.081-2.433,15.448,15.448,0,0,1,1.407,30.766,15.838,15.838,0,0,1-1.963.123" transform="translate(-83.719 -77.81)"/>
    <path id="Tracciato_4341" data-name="Tracciato 4341" d="M395.242,432.426q-1.333,0-2.687-.039a1.217,1.217,0,1,1,.069-2.433,94.112,94.112,0,0,0,9.609-.222,1.2,1.2,0,0,1,1.3,1.126,1.217,1.217,0,0,1-1.125,1.3c-2.4.176-4.815.265-7.17.265m-12.353-.847a1.33,1.33,0,0,1-.17-.011,85.318,85.318,0,0,1-9.687-1.931,1.218,1.218,0,0,1,.615-2.356,82.658,82.658,0,0,0,9.409,1.876,1.217,1.217,0,0,1-.167,2.423m29.1-.589a1.218,1.218,0,0,1-.2-2.419c3.1-.521,6.272-1.2,9.423-2.008a1.218,1.218,0,0,1,.606,2.359c-3.218.827-6.457,1.518-9.625,2.051a1.245,1.245,0,0,1-.2.017m-47.9-4.327a1.206,1.206,0,0,1-.444-.084,86.3,86.3,0,0,1-8.961-4.132,1.217,1.217,0,1,1,1.144-2.149,83.74,83.74,0,0,0,8.707,4.014,1.218,1.218,0,0,1-.446,2.351m-17.16-9.109a1.21,1.21,0,0,1-.684-.211c-2.675-1.822-5.318-3.825-7.855-5.953a1.218,1.218,0,0,1,1.566-1.865c2.475,2.076,5.052,4.03,7.66,5.806a1.218,1.218,0,0,1-.687,2.224m-14.913-12.481a1.214,1.214,0,0,1-.866-.361c-2.267-2.291-4.492-4.745-6.613-7.29a1.217,1.217,0,0,1,1.871-1.558c2.077,2.493,4.255,4.893,6.473,7.136a1.217,1.217,0,0,1-.865,2.074m-12.474-14.935a1.219,1.219,0,0,1-1-.514c-1.864-2.634-3.674-5.4-5.379-8.227a1.218,1.218,0,0,1,2.084-1.259c1.674,2.775,3.452,5.493,5.282,8.078a1.218,1.218,0,0,1-.993,1.921m-10.069-16.664a1.216,1.216,0,0,1-1.084-.661c-1.475-2.876-2.885-5.865-4.188-8.883a1.218,1.218,0,1,1,2.235-.966c1.282,2.969,2.669,5.91,4.119,8.737a1.216,1.216,0,0,1-.528,1.639,1.2,1.2,0,0,1-.554.134M301.74,355.6a1.219,1.219,0,0,1-1.146-.808c-1.1-3.068-2.111-6.212-3.012-9.345a1.217,1.217,0,0,1,2.34-.672c.886,3.083,1.884,6.177,2.964,9.2a1.217,1.217,0,0,1-1.146,1.627m-5.381-18.714a1.216,1.216,0,0,1-1.187-.956c-.7-3.206-1.305-6.455-1.789-9.659a1.217,1.217,0,1,1,2.407-.363c.476,3.15,1.068,6.346,1.76,9.5a1.216,1.216,0,0,1-.929,1.45,1.159,1.159,0,0,1-.262.028m-2.9-19.254a1.218,1.218,0,0,1-1.213-1.12c-.266-3.3-.409-6.605-.426-9.823a1.218,1.218,0,0,1,1.211-1.224h.006a1.217,1.217,0,0,1,1.217,1.212c.016,3.157.157,6.4.418,9.64a1.217,1.217,0,0,1-1.115,1.311c-.033,0-.067,0-.1,0m-123.382-7.463a1.21,1.21,0,0,1-.785-.287c-2.5-2.111-4.945-4.325-7.283-6.583a1.217,1.217,0,1,1,1.691-1.752c2.3,2.221,4.71,4.4,7.164,6.475a1.218,1.218,0,0,1-.787,2.147M293.46,298.182a1.112,1.112,0,0,1-.116-.006,1.216,1.216,0,0,1-1.1-1.326,96.8,96.8,0,0,1,1.425-9.746,1.218,1.218,0,0,1,2.389.474,94.8,94.8,0,0,0-1.39,9.5,1.217,1.217,0,0,1-1.21,1.1m-137.379-1.531a1.215,1.215,0,0,1-.9-.4c-2.194-2.417-4.331-4.935-6.353-7.487a1.217,1.217,0,1,1,1.907-1.512c1.989,2.509,4.091,4.986,6.248,7.363a1.218,1.218,0,0,1-.9,2.036M143.99,281.4a1.217,1.217,0,0,1-1-.526c-1.852-2.687-3.636-5.467-5.3-8.265a1.218,1.218,0,1,1,2.092-1.246c1.638,2.751,3.392,5.487,5.213,8.128a1.217,1.217,0,0,1-1,1.909m153.234-2.281a1.216,1.216,0,0,1-1.166-1.567c.915-3.042,2-6.167,3.236-9.288a1.217,1.217,0,1,1,2.265.894c-1.208,3.058-2.274,6.117-3.169,9.094a1.218,1.218,0,0,1-1.166.867M134.031,264.675a1.216,1.216,0,0,1-1.085-.666c-1.478-2.9-2.877-5.9-4.159-8.895a1.218,1.218,0,0,1,2.239-.957c1.26,2.947,2.635,5.89,4.089,8.749a1.216,1.216,0,0,1-.532,1.636,1.2,1.2,0,0,1-.552.133m170.293-3.668a1.218,1.218,0,0,1-1.1-1.742c1.323-2.776,2.778-5.633,4.449-8.731a1.217,1.217,0,1,1,2.143,1.156c-1.65,3.062-3.088,5.883-4.393,8.624a1.216,1.216,0,0,1-1.1.693M126.379,246.776a1.219,1.219,0,0,1-1.149-.815c-1.082-3.084-2.07-6.238-2.937-9.371a1.218,1.218,0,0,1,2.347-.65c.852,3.082,1.824,6.182,2.888,9.216a1.218,1.218,0,0,1-1.148,1.62m187.126-2.945a1.216,1.216,0,0,1-1.053-1.825q1.779-3.084,3.554-6.1l1.357-2.32a1.218,1.218,0,0,1,2.1,1.229l-1.359,2.321q-1.764,3.013-3.547,6.087a1.217,1.217,0,0,1-1.056.61M121.19,228.016a1.218,1.218,0,0,1-1.192-.974c-.657-3.217-1.205-6.477-1.628-9.69a1.218,1.218,0,1,1,2.415-.317c.416,3.156.953,6.358,1.6,9.52a1.219,1.219,0,0,1-1.194,1.461m202.067-1.05a1.218,1.218,0,0,1-1.063-1.809c1.758-3.166,3.227-5.969,4.49-8.568a1.218,1.218,0,0,1,2.19,1.066c-1.282,2.638-2.771,5.479-4.551,8.685a1.219,1.219,0,0,1-1.066.627m8.393-17.557a1.219,1.219,0,0,1-1.14-1.645,68.066,68.066,0,0,0,2.756-9.147,1.217,1.217,0,1,1,2.377.529,70.435,70.435,0,0,1-2.852,9.473,1.216,1.216,0,0,1-1.14.791m-212.99-.693a1.218,1.218,0,0,1-1.214-1.148c-.136-2.386-.2-4.79-.205-7.147q0-1.351.03-2.687a1.2,1.2,0,0,1,1.245-1.19,1.218,1.218,0,0,1,1.19,1.244q-.029,1.31-.03,2.633c0,2.309.068,4.667.2,7.009a1.218,1.218,0,0,1-1.146,1.285l-.071,0m217.073-18.238h-.05a1.219,1.219,0,0,1-1.167-1.266q.039-.974.039-1.956a48.868,48.868,0,0,0-.585-7.513,1.217,1.217,0,1,1,2.406-.376,51.2,51.2,0,0,1,.614,7.889q0,1.031-.041,2.054a1.216,1.216,0,0,1-1.216,1.168m-216.611-1.217a1.259,1.259,0,0,1-.135-.007,1.217,1.217,0,0,1-1.077-1.343c.365-3.331.885-6.606,1.545-9.735a1.218,1.218,0,0,1,2.383.5c-.644,3.05-1.151,6.247-1.507,9.5a1.217,1.217,0,0,1-1.209,1.084m95.808-10.541h-.193a1.218,1.218,0,0,1,.015-2.435h.178a19.325,19.325,0,0,0,8.63-2.222,1.218,1.218,0,1,1,1.1,2.172,21.751,21.751,0,0,1-9.732,2.485m-9.384-2.795a1.218,1.218,0,0,1-.627-.175,29.128,29.128,0,0,1-7.556-6.733,1.218,1.218,0,0,1,1.9-1.522,26.672,26.672,0,0,0,6.91,6.169,1.218,1.218,0,0,1-.629,2.26M332.8,171.34a1.218,1.218,0,0,1-1.15-.817A59.835,59.835,0,0,0,327.8,161.8a1.217,1.217,0,0,1,2.144-1.153,62.3,62.3,0,0,1,4,9.075,1.218,1.218,0,0,1-1.15,1.617m-101.133-1.015a1.217,1.217,0,0,1-.953-1.974,10.83,10.83,0,0,0,2.68-6.538v-.144a6.684,6.684,0,0,0-.164-1.293,1.218,1.218,0,0,1,2.376-.535,9.093,9.093,0,0,1,.222,1.776l0,.2a13.2,13.2,0,0,1-3.208,8.052,1.215,1.215,0,0,1-.954.46m-108.471-.075a1.248,1.248,0,0,1-.388-.063,1.218,1.218,0,0,1-.765-1.543,68.887,68.887,0,0,1,3.8-9.147,1.217,1.217,0,1,1,2.172,1.1,66.64,66.64,0,0,0-3.669,8.824,1.218,1.218,0,0,1-1.154.829m70.3-9.2a1.218,1.218,0,0,1-1.14-.789,24.785,24.785,0,0,1-1.7-8.711q0-.676.046-1.342a1.218,1.218,0,0,1,2.429.17q-.04.581-.041,1.172a22.377,22.377,0,0,0,1.539,7.853,1.219,1.219,0,0,1-1.139,1.647m130.147-6.815a1.215,1.215,0,0,1-.978-.491,74.482,74.482,0,0,0-6.2-7.3,1.217,1.217,0,1,1,1.752-1.691,76.966,76.966,0,0,1,6.408,7.539,1.218,1.218,0,0,1-.977,1.943m-94.4-1.007a1.214,1.214,0,0,1-.858-.354,46,46,0,0,0-7.445-5.861,1.218,1.218,0,1,1,1.321-2.045,48.377,48.377,0,0,1,7.839,6.178,1.217,1.217,0,0,1-.858,2.082m-97.159-.215a1.217,1.217,0,0,1-.964-1.96,40.857,40.857,0,0,1,6.994-7.161,1.217,1.217,0,1,1,1.51,1.91,38.414,38.414,0,0,0-6.574,6.737,1.217,1.217,0,0,1-.966.475m80.985-10.5a1.209,1.209,0,0,1-.516-.115,85.489,85.489,0,0,0-8.914-3.574,1.218,1.218,0,0,1,.78-2.307,87.959,87.959,0,0,1,9.168,3.675,1.218,1.218,0,0,1-.518,2.321m-17.944-.069a1.217,1.217,0,0,1-1.019-1.881,33.688,33.688,0,0,1,6.8-7.426,1.217,1.217,0,1,1,1.554,1.874,31.28,31.28,0,0,0-6.309,6.879,1.214,1.214,0,0,1-1.022.554m-48.005-1.526a1.217,1.217,0,0,1-.551-2.3,60.607,60.607,0,0,1,9.2-3.737,1.217,1.217,0,1,1,.73,2.323,58.039,58.039,0,0,0-8.828,3.586,1.213,1.213,0,0,1-.549.131m163.05-.7a1.216,1.216,0,0,1-.771-.276,90.128,90.128,0,0,0-7.752-5.682,1.218,1.218,0,0,1,1.334-2.037,92.512,92.512,0,0,1,7.961,5.836,1.218,1.218,0,0,1-.773,2.16m-115.521-3.947a1.227,1.227,0,0,1-.265-.028,86.168,86.168,0,0,0-9.476-1.554,1.217,1.217,0,1,1,.257-2.42,88.436,88.436,0,0,1,9.745,1.6,1.218,1.218,0,0,1-.261,2.407M165.6,135.066a1.217,1.217,0,0,1-.183-2.42,72.932,72.932,0,0,1,9.863-.824h.021a1.218,1.218,0,0,1,.019,2.435,70.572,70.572,0,0,0-9.534.795,1.214,1.214,0,0,1-.187.015m44.128-5.225a1.217,1.217,0,0,1-.595-2.28,76.536,76.536,0,0,1,8.944-4.234,1.217,1.217,0,0,1,.9,2.26,74.409,74.409,0,0,0-8.66,4.1,1.211,1.211,0,0,1-.592.154m84.165-.294a1.217,1.217,0,0,1-.559-.136c-2.838-1.472-5.78-2.817-8.745-4a1.218,1.218,0,1,1,.9-2.262c3.04,1.213,6.056,2.592,8.964,4.1a1.218,1.218,0,0,1-.562,2.3m-66.135-6.988a1.218,1.218,0,0,1-.327-2.39c3.148-.882,6.384-1.618,9.617-2.186a1.218,1.218,0,1,1,.421,2.4c-3.154.554-6.311,1.272-9.382,2.132a1.213,1.213,0,0,1-.33.045m48.073-.208a1.229,1.229,0,0,1-.335-.047,89.822,89.822,0,0,0-9.364-2.144,1.218,1.218,0,0,1,.412-2.4,92.008,92.008,0,0,1,9.62,2.2,1.217,1.217,0,0,1-.333,2.388M246.93,119.2a1.217,1.217,0,0,1-.084-2.432c2.006-.142,4-.213,5.938-.213.855.029,1.711.014,2.558.041.463.015.924.034,1.388.058a1.217,1.217,0,0,1,1.154,1.278,1.239,1.239,0,0,1-1.278,1.154q-.673-.033-1.344-.056c-.818-.026-1.653-.057-2.477-.039-1.877,0-3.817.07-5.768.207-.029,0-.058,0-.087,0" transform="translate(-22.081 -21.953)" fill="#009ee3"/>
  </g>
</svg>
