<svg id="Raggruppa_2008" data-name="Raggruppa 2008" xmlns="http://www.w3.org/2000/svg" xmlns:xlink="http://www.w3.org/1999/xlink" width="210.502" height="259.799" viewBox="0 0 210.502 259.799">
  <defs>
    <clipPath id="clip-path">
      <rect id="Rettangolo_367" data-name="Rettangolo 367" width="210.502" height="259.799" fill="none"/>
    </clipPath>
  </defs>
  <g id="Raggruppa_2007" data-name="Raggruppa 2007" clip-path="url(#clip-path)">
    <path id="Tracciato_4150" data-name="Tracciato 4150" d="M213.025,214.587c0,56.434-45.441,102.183-101.5,102.183s-101.5-45.749-101.5-102.183S55.475,112.4,111.529,112.4s101.5,45.749,101.5,102.183" transform="translate(-6.868 -76.943)" fill="#fff"/>
    <path id="Tracciato_4151" data-name="Tracciato 4151" d="M269.756,133.686c-.417.616.822,2.689,3.287,2.689s3.7-.414,4.725,2.276-.411,11.79,1.028,15.1,3.9,5.378,5.752,3.516,1.644-6.826,3.9-8.067,10.478-6.205,10.889-10.343-2.465-7.24-9.656-8.067-16.847-1.655-19.929,2.9" transform="translate(-184.599 -89.084)" fill="#fe196a"/>
    <path id="Tracciato_4152" data-name="Tracciato 4152" d="M146.427,429.437a2.879,2.879,0,0,0-1.665,2.681c.163,3.469-1.3,12.114-4.363,14.875-3.905,3.516-2.466,9.853-2.527,12.411-.124,5.195.434,7.506,6.636,9.988s8.631,2.623,9.09,7.587,1.174,24.141,3.012,29.105,5.743,13.031,7.81,14.893,6.891,2.9,3.9-4.137-4.824-10.342-1.378-14.272,9.188-13.031,9.648-16.547,2.527-5.585,4.364-6,5.743-1.655,6.891-2.9-1.149-4.757-1.838-7.86-.689-4.964,5.054-7.446,2.986-9.515-4.824-11.376-12.634-5.792-11.715-9.722-5.283-3.516-8.959-5.378-3.565-4.785-7.655-6.179c-5.529-1.884-9.41-.771-11.486.272" transform="translate(-94.233 -293.076)" fill="#fe196a"/>
    <path id="Tracciato_4153" data-name="Tracciato 4153" d="M435.92,230.984c-1.731-2.615-1.515-6.754,2.813-12.419,3.4-4.45-1.479-8.9-3.728-10.6a.571.571,0,0,1,.287-1.022c2.788-.318,9.254.625,12.1,15.111,3.679,18.737,5.194,12.2,7.141,10.022s-1.7-6.247,1.948-10.458c2.3-2.653,3.463-6.525,4.055-9.682a102.255,102.255,0,0,0-54.366-67.365c.039,3.263-.742,14.628-13.964,9.941,0,0-8.223-3.922-6.276,11.983s8.656-1.089,9.955-1.743,4.761-1.525,3.246,9.15c0,0-.216,3.7-6.925,3.051s-8.007,2.614-8.007,4.357.649,6.318-3.03,9.587-2.6,11.765,2.38,8.933,8.44-11.765,12.985-12.637,8.656,5.011,12.985,3.486,2.381-8.933,4.545-8.933,6.709,4.358,6.059,7.626-7.358,4.793-5.627,8.715,5.41,2.614,6.492,5.229-5.41,5.665-10.6,2.4-6.059,1.525-8.656-.654-2.813-6.754-6.493-5.229-5.843,4.575-10.6,6.754-8.656,5.011-8.656,8.061,1.731,6.318.866,11.112-2.381,17.865,13.2,15.251,13.634,5.447,13.634,6.318-.216,12.2,1.3,14.162,4.977,7.626,0,15.033-3.03,23.966,1.515,21.787,9.089-10.675,14.716-15.033,13.418-23.312,10.171-29.2S435.92,243.4,437,239.48s.649-5.882-1.082-8.5" transform="translate(-257.363 -98.96)" fill="#fe196a"/>
    <path id="Tracciato_4154" data-name="Tracciato 4154" d="M79.541,171.9c.091,3.63-.237,8.48-2.567,12.182-7.031,11.169-6.8,16.754-7.485,27.924s14.8,30.859,18.651,32.928,4.45-2.852,4.45-6.781-1.647-8.644-3.915-13.194-2.268-7.447-1.587-9.308,3.4-2.482,5.216-.621,6.175,3.513,8.271,2.35c2.576-1.43,1.573-7.028,2.48-8.89s5.9-3.1,7.938-7.033,5.443-5.585,9.526-7.447,7.711-2.689,8.391-3.93-.227-4.137.907-7.447,3.855-7.24,2.722-8.894-4.536-4.343-10.887-.207-7.938,4.137-9.752,1.034,2.041-11.169,9.979-11.169,9.526-2.482,9.752-4.344-2.268-3.93-4.99-4.344-3.175,1.034-14.515,5.171c-7.568,2.761-14.6,1.212-18.193.476A110.252,110.252,0,0,0,79.541,171.9" transform="translate(-47.552 -105.859)" fill="#fe196a"/>
    <path id="Tracciato_4155" data-name="Tracciato 4155" d="M580.635,494.607c-1.534-.343-1.193,3.43-3.237,4.117s-2.9,1.716-2.385,5.489-.341,8.748-2.385,10.635-4.941,3.259-5.111,7.89-4.43,9.091-6.986,10.635-6.474,3.945-6.474,7.89a39.153,39.153,0,0,0,.52,8.285,102.217,102.217,0,0,0,27.988-49.218c-.4-2.532-1.053-5.528-1.929-5.724" transform="translate(-379.262 -338.555)" fill="#fe196a"/>
    <path id="Tracciato_4156" data-name="Tracciato 4156" d="M203.508,718.932A100.832,100.832,0,0,1,144.6,700.079a.473.473,0,0,1,.55-.77,100.542,100.542,0,0,0,106.7,6.3.473.473,0,1,1,.456.829,101.556,101.556,0,0,1-48.8,12.5" transform="translate(-98.847 -478.633)" fill="#009ee3"/>
    <path id="Tracciato_4157" data-name="Tracciato 4157" d="M9.367,222.7a.473.473,0,0,1-.471-.434c-.24-2.876-.362-5.8-.362-8.7A102.333,102.333,0,0,1,38.4,140.972a101.473,101.473,0,0,1,137.943-5.8A102.94,102.94,0,0,1,210.9,195.489a.473.473,0,1,1-.932.164,101.029,101.029,0,0,0-99.462-83.8C54.8,111.85,9.48,157.477,9.48,213.56c0,2.874.121,5.776.358,8.626a.473.473,0,0,1-.432.511l-.04,0" transform="translate(-5.842 -75.916)" fill="#009ee3"/>
    <path id="Tracciato_4158" data-name="Tracciato 4158" d="M132.188,156.25c0,5.88-9.372,20.011-11.617,23.313a.579.579,0,0,1-.959,0c-1.608-2.365-6.868-10.279-9.726-16.742a18.34,18.34,0,0,1-1.89-6.57,12.1,12.1,0,0,1,24.192,0" transform="translate(-73.926 -98.677)" fill="#009ee3"/>
    <path id="Tracciato_4159" data-name="Tracciato 4159" d="M139.869,170.494a5.531,5.531,0,1,1-5.531-5.531,5.531,5.531,0,0,1,5.531,5.531" transform="translate(-88.171 -112.921)" fill="#fff"/>
    <path id="Tracciato_4160" data-name="Tracciato 4160" d="M136.836,173.448a6,6,0,0,1-5.951-5.251.473.473,0,1,1,.939-.118,5.057,5.057,0,1,0,5.19-5.687.473.473,0,0,1-.457-.489.465.465,0,0,1,.488-.457,6,6,0,0,1-.21,12" transform="translate(-89.592 -110.512)"/>
    <path id="Tracciato_4161" data-name="Tracciato 4161" d="M379.031,217.942c0,5.88-9.372,20.011-11.617,23.313a.579.579,0,0,1-.959,0c-1.608-2.365-6.868-10.279-9.726-16.742a18.341,18.341,0,0,1-1.89-6.57,12.1,12.1,0,0,1,24.192,0" transform="translate(-242.895 -140.906)" fill="#009ee3"/>
    <path id="Tracciato_4162" data-name="Tracciato 4162" d="M386.71,232.186a5.531,5.531,0,1,1-5.531-5.531,5.531,5.531,0,0,1,5.531,5.531" transform="translate(-257.14 -155.15)" fill="#fff"/>
    <path id="Tracciato_4163" data-name="Tracciato 4163" d="M383.673,235.146a6.007,6.007,0,0,1-5.945-5.255.473.473,0,0,1,.939-.118,5.057,5.057,0,1,0,5.19-5.687.473.473,0,0,1,.031-.946,6,6,0,0,1,.547,11.958,6.159,6.159,0,0,1-.763.048" transform="translate(-258.561 -152.744)"/>
    <path id="Tracciato_4164" data-name="Tracciato 4164" d="M258.376,434.261c0,5.88-9.372,20.011-11.617,23.313a.579.579,0,0,1-.959,0c-1.608-2.365-6.868-10.279-9.726-16.742a18.341,18.341,0,0,1-1.89-6.57,12.1,12.1,0,0,1,24.192,0" transform="translate(-160.304 -288.981)" fill="#009ee3"/>
    <path id="Tracciato_4165" data-name="Tracciato 4165" d="M266.056,448.5a5.531,5.531,0,1,1-5.531-5.531,5.531,5.531,0,0,1,5.531,5.531" transform="translate(-174.549 -303.226)" fill="#fff"/>
    <path id="Tracciato_4166" data-name="Tracciato 4166" d="M263.019,451.463a6.007,6.007,0,0,1-5.945-5.255.473.473,0,1,1,.939-.118,5.057,5.057,0,1,0,5.19-5.687.473.473,0,0,1-.457-.488.466.466,0,0,1,.489-.457,6,6,0,0,1,.547,11.958,6.162,6.162,0,0,1-.763.048" transform="translate(-175.97 -300.817)"/>
    <path id="Tracciato_4167" data-name="Tracciato 4167" d="M454.342,518.839c0,5.88-9.372,20.011-11.617,23.313a.579.579,0,0,1-.959,0c-1.608-2.365-6.868-10.279-9.726-16.742a18.347,18.347,0,0,1-1.89-6.57,12.1,12.1,0,0,1,24.192,0" transform="translate(-294.447 -346.877)" fill="#009ee3"/>
    <path id="Tracciato_4168" data-name="Tracciato 4168" d="M462.022,533.083a5.531,5.531,0,1,1-5.531-5.531,5.531,5.531,0,0,1,5.531,5.531" transform="translate(-308.692 -361.121)" fill="#fff"/>
    <path id="Tracciato_4169" data-name="Tracciato 4169" d="M458.984,536.04a6.006,6.006,0,0,1-5.945-5.255.473.473,0,1,1,.939-.118,5.057,5.057,0,1,0,5.19-5.687.473.473,0,0,1,.032-.946,6,6,0,0,1,.547,11.958,6.087,6.087,0,0,1-.763.048" transform="translate(-310.113 -358.712)"/>
    <path id="Tracciato_4170" data-name="Tracciato 4170" d="M233.829,350.235q-.518,0-1.044-.015a.473.473,0,1,1,.027-.946,36.575,36.575,0,0,0,3.735-.086.468.468,0,0,1,.507.438.473.473,0,0,1-.437.506c-.934.068-1.871.1-2.787.1m-4.8-.329a.518.518,0,0,1-.066,0,33.165,33.165,0,0,1-3.765-.751.473.473,0,0,1,.239-.916,32.13,32.13,0,0,0,3.657.729.473.473,0,0,1-.065.942m11.31-.229a.473.473,0,0,1-.078-.94c1.205-.2,2.438-.465,3.663-.781a.473.473,0,0,1,.236.917c-1.251.322-2.51.59-3.741.8a.484.484,0,0,1-.079.007m-18.619-1.682a.469.469,0,0,1-.173-.033,33.543,33.543,0,0,1-3.483-1.606.473.473,0,1,1,.445-.835,32.541,32.541,0,0,0,3.384,1.56.473.473,0,0,1-.173.914m-6.67-3.541a.47.47,0,0,1-.266-.082c-1.04-.708-2.067-1.487-3.053-2.314a.473.473,0,0,1,.609-.725c.962.807,1.964,1.566,2.977,2.257a.473.473,0,0,1-.267.864m-5.8-4.851a.472.472,0,0,1-.337-.14c-.881-.891-1.746-1.844-2.57-2.834a.473.473,0,1,1,.727-.605c.807.969,1.654,1.9,2.516,2.773a.473.473,0,0,1-.336.806M204.4,333.8a.473.473,0,0,1-.386-.2c-.725-1.024-1.428-2.1-2.091-3.2a.473.473,0,0,1,.81-.489c.651,1.079,1.342,2.135,2.053,3.14a.473.473,0,0,1-.386.747m-3.913-6.477a.472.472,0,0,1-.421-.257c-.573-1.118-1.121-2.28-1.628-3.453a.473.473,0,1,1,.869-.375c.5,1.154,1.037,2.3,1.6,3.4a.473.473,0,0,1-.205.637.467.467,0,0,1-.215.052m-3-6.947a.474.474,0,0,1-.445-.314c-.427-1.193-.821-2.415-1.171-3.632a.473.473,0,0,1,.91-.261c.344,1.2.732,2.4,1.152,3.575a.473.473,0,0,1-.445.633m-2.092-7.274a.473.473,0,0,1-.462-.372c-.273-1.246-.507-2.509-.7-3.754a.473.473,0,1,1,.936-.141c.185,1.224.415,2.467.684,3.692a.473.473,0,0,1-.361.563.447.447,0,0,1-.1.011m-1.126-7.484a.473.473,0,0,1-.471-.435c-.1-1.283-.159-2.567-.166-3.818a.473.473,0,0,1,.471-.476h0a.473.473,0,0,1,.473.471c.006,1.227.061,2.487.162,3.747a.473.473,0,0,1-.433.51l-.038,0m-47.956-2.9a.47.47,0,0,1-.305-.112c-.97-.821-1.922-1.681-2.831-2.559a.473.473,0,1,1,.657-.681c.894.863,1.831,1.71,2.784,2.517a.473.473,0,0,1-.306.834m47.955-4.659-.045,0a.473.473,0,0,1-.427-.515,37.628,37.628,0,0,1,.554-3.788.473.473,0,0,1,.928.184,36.838,36.838,0,0,0-.54,3.693.473.473,0,0,1-.47.429m-53.4-.6a.472.472,0,0,1-.35-.155c-.853-.939-1.683-1.918-2.469-2.91a.473.473,0,0,1,.742-.588c.773.975,1.59,1.938,2.428,2.862a.473.473,0,0,1-.35.791m-4.7-5.928a.473.473,0,0,1-.39-.2c-.72-1.044-1.413-2.125-2.061-3.213a.473.473,0,1,1,.813-.484c.637,1.069,1.318,2.133,2.026,3.159a.473.473,0,0,1-.389.742m59.56-.886a.473.473,0,0,1-.453-.609c.356-1.182.779-2.4,1.258-3.61a.473.473,0,1,1,.88.348c-.469,1.189-.884,2.378-1.232,3.535a.473.473,0,0,1-.453.337M132.3,285.033a.473.473,0,0,1-.422-.259c-.574-1.129-1.118-2.292-1.617-3.457a.473.473,0,0,1,.87-.372c.49,1.146,1.024,2.289,1.589,3.4a.473.473,0,0,1-.421.688m66.19-1.426a.473.473,0,0,1-.427-.677c.514-1.079,1.08-2.189,1.729-3.394a.473.473,0,1,1,.833.449c-.641,1.19-1.2,2.287-1.708,3.352a.473.473,0,0,1-.427.269m-69.164-5.531a.474.474,0,0,1-.447-.317c-.421-1.2-.8-2.424-1.142-3.642a.473.473,0,0,1,.912-.253c.331,1.2.709,2.4,1.122,3.582a.473.473,0,0,1-.446.63m72.733-1.145a.473.473,0,0,1-.409-.71q.691-1.2,1.381-2.372l.527-.9a.473.473,0,0,1,.817.478l-.528.9q-.686,1.171-1.379,2.366a.473.473,0,0,1-.41.237m-74.75-6.147a.473.473,0,0,1-.463-.379c-.256-1.251-.468-2.518-.633-3.766a.473.473,0,0,1,.939-.123c.162,1.227.37,2.471.621,3.7a.474.474,0,0,1-.464.568m78.54-.408a.473.473,0,0,1-.413-.7c.683-1.231,1.254-2.32,1.745-3.33a.473.473,0,0,1,.851.414c-.5,1.025-1.077,2.129-1.769,3.376a.474.474,0,0,1-.414.244m3.262-6.824a.474.474,0,0,1-.443-.639,26.453,26.453,0,0,0,1.071-3.555.473.473,0,1,1,.924.206,27.379,27.379,0,0,1-1.109,3.682.473.473,0,0,1-.443.307m-82.786-.269a.473.473,0,0,1-.472-.446c-.053-.928-.08-1.862-.08-2.777q0-.526.012-1.045a.465.465,0,0,1,.484-.462.473.473,0,0,1,.462.484q-.011.509-.012,1.024c0,.9.027,1.814.078,2.724a.473.473,0,0,1-.445.5h-.027m84.373-7.088h-.019a.474.474,0,0,1-.454-.492q.015-.379.015-.76a19,19,0,0,0-.227-2.92.473.473,0,1,1,.935-.146,19.9,19.9,0,0,1,.239,3.066q0,.4-.016.8a.473.473,0,0,1-.473.454m-84.193-.473a.489.489,0,0,1-.052,0,.473.473,0,0,1-.419-.522c.142-1.295.344-2.568.6-3.784a.473.473,0,0,1,.926.2c-.25,1.186-.447,2.428-.586,3.692a.473.473,0,0,1-.47.421m37.239-4.1h-.075a.473.473,0,0,1,.006-.946h.069a7.511,7.511,0,0,0,3.354-.864.473.473,0,1,1,.428.844,8.456,8.456,0,0,1-3.783.966m-3.647-1.086a.474.474,0,0,1-.244-.068,11.327,11.327,0,0,1-2.937-2.617.473.473,0,0,1,.739-.592,10.372,10.372,0,0,0,2.686,2.4.473.473,0,0,1-.245.879m49.46-1.782a.473.473,0,0,1-.447-.318,23.256,23.256,0,0,0-1.495-3.39.473.473,0,0,1,.833-.448A24.217,24.217,0,0,1,210,248.127a.473.473,0,0,1-.447.628m-39.309-.395a.473.473,0,0,1-.37-.767,4.21,4.21,0,0,0,1.042-2.541V245a2.6,2.6,0,0,0-.064-.5.473.473,0,0,1,.923-.208,3.535,3.535,0,0,1,.086.69v.076a5.129,5.129,0,0,1-1.247,3.13.472.472,0,0,1-.371.179m-42.161-.029a.485.485,0,0,1-.151-.025.473.473,0,0,1-.3-.6,26.774,26.774,0,0,1,1.479-3.555.473.473,0,0,1,.844.427,25.9,25.9,0,0,0-1.426,3.43.473.473,0,0,1-.449.322m27.325-3.575a.473.473,0,0,1-.443-.307,9.634,9.634,0,0,1-.659-3.386c0-.175.006-.349.018-.521a.473.473,0,0,1,.944.066q-.016.226-.016.456a8.7,8.7,0,0,0,.6,3.052.474.474,0,0,1-.443.64M206,242.108a.472.472,0,0,1-.38-.191,28.948,28.948,0,0,0-2.412-2.837.473.473,0,1,1,.681-.657,29.919,29.919,0,0,1,2.491,2.93.473.473,0,0,1-.38.755m-36.693-.391a.472.472,0,0,1-.333-.138,17.88,17.88,0,0,0-2.894-2.278.473.473,0,0,1,.514-.8,18.787,18.787,0,0,1,3.047,2.4.473.473,0,0,1-.333.809m-37.764-.084a.473.473,0,0,1-.375-.762,15.88,15.88,0,0,1,2.718-2.783.473.473,0,1,1,.587.742,14.952,14.952,0,0,0-2.555,2.618.473.473,0,0,1-.375.185m31.478-4.081a.47.47,0,0,1-.2-.045,33.229,33.229,0,0,0-3.465-1.389.473.473,0,0,1,.3-.9,34.185,34.185,0,0,1,3.563,1.428.473.473,0,0,1-.2.9m-6.975-.027a.473.473,0,0,1-.4-.731,13.1,13.1,0,0,1,2.641-2.886.473.473,0,1,1,.6.728,12.158,12.158,0,0,0-2.452,2.674.472.472,0,0,1-.4.215m-18.659-.593a.473.473,0,0,1-.214-.9,23.557,23.557,0,0,1,3.575-1.452.473.473,0,1,1,.284.9,22.606,22.606,0,0,0-3.431,1.394.472.472,0,0,1-.214.051m63.375-.272a.473.473,0,0,1-.3-.107,35.031,35.031,0,0,0-3.013-2.209.473.473,0,0,1,.519-.792,35.96,35.96,0,0,1,3.095,2.268.473.473,0,0,1-.3.839m-44.9-1.534a.477.477,0,0,1-.1-.011,33.492,33.492,0,0,0-3.683-.6.473.473,0,1,1,.1-.941,34.369,34.369,0,0,1,3.788.62.473.473,0,0,1-.1.935m-11.287-.47a.473.473,0,0,1-.071-.941,28.349,28.349,0,0,1,3.834-.32h.008a.473.473,0,0,1,.008.946,27.432,27.432,0,0,0-3.706.309.472.472,0,0,1-.073.006m17.152-2.031a.473.473,0,0,1-.231-.886,29.752,29.752,0,0,1,3.477-1.646.473.473,0,0,1,.351.879,28.924,28.924,0,0,0-3.366,1.593.471.471,0,0,1-.23.06m32.713-.114a.469.469,0,0,1-.217-.053c-1.1-.572-2.247-1.1-3.4-1.555a.473.473,0,0,1,.35-.879c1.181.471,2.354,1.007,3.484,1.593a.473.473,0,0,1-.218.893M168.732,229.8a.473.473,0,0,1-.127-.929c1.223-.343,2.481-.629,3.738-.85a.473.473,0,0,1,.164.932c-1.226.215-2.453.494-3.647.829a.471.471,0,0,1-.128.018m18.685-.081a.478.478,0,0,1-.13-.018,34.914,34.914,0,0,0-3.64-.833.473.473,0,0,1,.16-.933,35.765,35.765,0,0,1,3.739.856.473.473,0,0,1-.129.928m-11.235-1.223a.473.473,0,0,1-.033-.945c.78-.055,1.556-.083,2.308-.083.332.011.665.005.994.016.18.006.359.013.539.022a.473.473,0,0,1,.449.5.482.482,0,0,1-.5.449q-.262-.013-.522-.022c-.318-.01-.642-.022-.963-.015-.73,0-1.484.027-2.242.08h-.034" transform="translate(-86.095 -155.704)" fill="#009ee3"/>
    <path id="Tracciato_4171" data-name="Tracciato 4171" d="M380.528,702.577c-10.913-10.059-5.264-16.547-5.264-16.547s4.875-7.9,21.982,2.427,33.666,6.486,37.411,4.938,16.829-11.276,24.2-11.823c4.1-.3,9.014,2.781,4.706,11.12-8.909,17.244-33.1,19.211-33.1,19.211a74.879,74.879,0,0,1-23.777.069s-15.244.663-26.156-9.4" transform="translate(-255.876 -466.538)" fill="#009ee3"/>
    <path id="Tracciato_4172" data-name="Tracciato 4172" d="M416.913,712.345a65.645,65.645,0,0,1-11.291-.923c-1.02.028-15.84.252-26.443-9.522-4.629-4.267-6.943-8.44-6.877-12.4a7.918,7.918,0,0,1,1.552-4.775,7.564,7.564,0,0,1,4.863-2.84c4.574-.932,10.545.8,17.745,5.144a46.772,46.772,0,0,0,23.482,6.853,37.115,37.115,0,0,0,13.5-1.947,54.989,54.989,0,0,0,5.474-3.133c5.746-3.518,13.615-8.335,18.874-8.724a6.528,6.528,0,0,1,5.966,2.574c1.016,1.537,1.7,4.386-.8,9.235-4.672,9.042-13.536,13.854-20.149,16.3a56.651,56.651,0,0,1-13.312,3.165,77.064,77.064,0,0,1-12.584,1m-11.257-1.871a.491.491,0,0,1,.083.007,74.993,74.993,0,0,0,23.607-.068l.049-.007c.239-.019,24.039-2.15,32.722-18.957,1.816-3.515,2.112-6.378.856-8.279a5.584,5.584,0,0,0-5.106-2.151c-5.03.373-12.787,5.12-18.45,8.587a53.814,53.814,0,0,1-5.608,3.2,38,38,0,0,1-13.884,2.018,47.7,47.7,0,0,1-23.951-6.989c-8.642-5.215-14-5.623-16.976-5.045a6.727,6.727,0,0,0-4.36,2.463.549.549,0,0,1-.044.06c-.215.251-5.185,6.29,5.228,15.888,10.635,9.8,25.664,9.279,25.815,9.271h.021" transform="translate(-254.849 -465.513)"/>
    <path id="Tracciato_4173" data-name="Tracciato 4173" d="M482.249,752.846l6.854,4.027-5.025,2.737-3.2-2.048Z" transform="translate(-329.173 -515.34)" fill="#fff"/>
    <path id="Tracciato_4174" data-name="Tracciato 4174" d="M483.052,759.056a.473.473,0,0,1-.255-.074l-3.2-2.048a.473.473,0,0,1-.2-.531l1.369-4.716a.473.473,0,0,1,.694-.276l6.854,4.027a.473.473,0,0,1-.013.823L483.278,759a.474.474,0,0,1-.227.057m-2.646-2.729,2.665,1.706,4.045-2.2-5.609-3.3Z" transform="translate(-328.146 -514.313)"/>
    <path id="Tracciato_4175" data-name="Tracciato 4175" d="M490.383,764.613l1.024-1.037a1.133,1.133,0,0,1,1.394-.173l.728.442.383-.565a.756.756,0,0,1,.97-.42c4.344,2.087,9.874,3.682,12.471,5.605,3.071,2.275.89,7.338-4.467,6.822-4.245-.409-10.047-5.143-12.272-7.091a.793.793,0,0,1,.205-1.322l.005,0-.567-.815a1.133,1.133,0,0,1,.125-1.444" transform="translate(-335.454 -522.154)" fill="#fff"/>
    <path id="Tracciato_4176" data-name="Tracciato 4176" d="M502.633,774.771q-.395,0-.818-.04c-4.367-.421-10.223-5.179-12.538-7.205a1.267,1.267,0,0,1-.124-1.781l-.309-.445a1.607,1.607,0,0,1,.176-2.047l1.025-1.037a1.6,1.6,0,0,1,1.976-.244l.344.208.111-.164a1.315,1.315,0,0,1,.725-.647,1.108,1.108,0,0,1,.861.037c1.689.811,3.566,1.551,5.382,2.265a34.776,34.776,0,0,1,7.166,3.386,3.8,3.8,0,0,1,1.323,4.5,5.394,5.394,0,0,1-5.3,3.208m-12.94-10.853a.66.66,0,0,0-.073.841l.567.815a.473.473,0,0,1-.213.709.32.32,0,0,0-.075.529c2.247,1.966,7.913,6.581,12.006,6.975,2.958.288,4.62-1.2,5.143-2.565a2.835,2.835,0,0,0-1-3.4,34.354,34.354,0,0,0-6.949-3.266c-1.831-.721-3.725-1.467-5.445-2.293a.163.163,0,0,0-.132,0,.374.374,0,0,0-.2.192.451.451,0,0,1-.038.067l-.383.565a.474.474,0,0,1-.637.139l-.728-.442a.657.657,0,0,0-.812.1Z" transform="translate(-334.428 -521.127)"/>
    <path id="Tracciato_4177" data-name="Tracciato 4177" d="M524.056,786.072a6.655,6.655,0,0,1-1.837-.273.473.473,0,1,1,.261-.91c2.453.7,4.1-.307,4.767-1.387a1.865,1.865,0,0,0-.016-2.273.473.473,0,1,1,.7-.641,2.781,2.781,0,0,1,.125,3.411,4.612,4.612,0,0,1-4,2.071" transform="translate(-357.236 -534.227)"/>
    <path id="Tracciato_4178" data-name="Tracciato 4178" d="M519.469,780.7a.473.473,0,0,1-.389-.743l2.531-3.655a.473.473,0,1,1,.778.539l-2.531,3.656a.473.473,0,0,1-.39.2" transform="translate(-355.265 -531.259)"/>
    <path id="Tracciato_4179" data-name="Tracciato 4179" d="M511.186,777.609a.473.473,0,0,1-.427-.677l1.735-3.649a.473.473,0,0,1,.855.407l-1.735,3.649a.474.474,0,0,1-.428.27" transform="translate(-349.595 -529.146)"/>
    <path id="Tracciato_4180" data-name="Tracciato 4180" d="M535.442,722.945a.471.471,0,0,1-.355-.16l-.567-.643a.473.473,0,0,1,.047-.673l2.856-2.445a80.441,80.441,0,0,1,14.323-9.792l2.056-1.1a.473.473,0,0,1,.447.834l-2.056,1.1a79.49,79.49,0,0,0-14.154,9.676l-2.492,2.132.25.283a.473.473,0,0,1-.355.786" transform="translate(-365.81 -484.694)"/>
    <path id="Tracciato_4181" data-name="Tracciato 4181" d="M516.353,757.274l-10.746,4.463,2.479,3.522,11.981-3.522Z" transform="translate(-346.099 -518.371)" fill="#fff"/>
    <path id="Tracciato_4182" data-name="Tracciato 4182" d="M507.059,764.705a.472.472,0,0,1-.387-.2l-2.479-3.522a.473.473,0,0,1,.206-.71l10.746-4.463a.473.473,0,0,1,.545.135l3.713,4.463a.473.473,0,0,1-.23.757l-11.981,3.522a.474.474,0,0,1-.133.019m-1.752-3.785,1.944,2.762,10.964-3.223-3.03-3.641Z" transform="translate(-345.072 -517.344)"/>
    <path id="Tracciato_4183" data-name="Tracciato 4183" d="M477.828,769.76l-.84-1.191a1.133,1.133,0,0,0-1.346-.4l-1.239.545-.1-.36a.792.792,0,0,0-.888-.575c-2.434.385-10.083,1.515-12.961,2.985-3.4,1.739-2.086,7.091,3.283,7.464,4.255.3,10.146-2.862,12.594-4.521.8-.545.241-1.564.241-1.564l1.141-.941a1.134,1.134,0,0,0,.115-1.445" transform="translate(-313.909 -525.557)" fill="#fff"/>
    <path id="Tracciato_4184" data-name="Tracciato 4184" d="M463.28,777.7q-.305,0-.6-.021c-3.5-.242-5.154-2.377-5.512-4.132a3.8,3.8,0,0,1,2.047-4.226c2.769-1.414,9.657-2.492,12.6-2.952l.5-.079a1.266,1.266,0,0,1,1.361.752l.748-.33a1.605,1.605,0,0,1,1.924.56l.84,1.191a1.607,1.607,0,0,1-.163,2.048.5.5,0,0,1-.038.034l-.872.719a1.525,1.525,0,0,1-.546,1.812c-2.429,1.646-7.981,4.621-12.291,4.621m9.234-10.478a.338.338,0,0,0-.05,0l-.506.08c-2.647.414-9.68,1.514-12.314,2.859a2.835,2.835,0,0,0-1.55,3.193c.292,1.429,1.685,3.171,4.65,3.377,3.823.26,9.448-2.51,12.3-4.44.426-.289.126-.879.091-.945a.477.477,0,0,1,.115-.592l1.119-.922a.66.66,0,0,0,.051-.825l-.84-1.191a.658.658,0,0,0-.784-.233l-1.224.539a.473.473,0,0,1-.647-.308l-.1-.36a.319.319,0,0,0-.307-.236" transform="translate(-312.884 -524.531)"/>
    <path id="Tracciato_4185" data-name="Tracciato 4185" d="M492.432,778.911a.473.473,0,0,1-.455-.343l-1.111-3.884a.473.473,0,0,1,.91-.26l1.11,3.885a.473.473,0,0,1-.455.6" transform="translate(-335.997 -529.875)"/>
    <path id="Tracciato_4186" data-name="Tracciato 4186" d="M467.712,784.8a.464.464,0,0,1-.153-.026c-1.883-.645-2.978-1.559-3.256-2.717a3.465,3.465,0,0,1,.937-2.911.473.473,0,0,1,.68.658,2.551,2.551,0,0,0-.7,2.037c.2.809,1.11,1.514,2.641,2.038a.473.473,0,0,1-.153.921" transform="translate(-317.779 -533.242)"/>
    <path id="Tracciato_4187" data-name="Tracciato 4187" d="M438.634,721.923a.506.506,0,0,1-.094-.009.474.474,0,0,1-.37-.558l.142-.705c-1.879-1.369-14.225-10.206-21.12-11.228a.473.473,0,1,1,.139-.936c7.674,1.137,21.215,11.155,21.788,11.581a.473.473,0,0,1,.181.473l-.2,1a.473.473,0,0,1-.463.38" transform="translate(-285.301 -484.972)"/>
    <path id="Tracciato_4188" data-name="Tracciato 4188" d="M473.653,607.385c-.561-2.511-3.908-10.131-6.609-16.951a18.835,18.835,0,0,0-14.27-11.094,71.78,71.78,0,0,0-14.435-.327c-8.025.632-14.918,4.842-17.572,11.884-2.391,6.342-5,14.129-5.056,18.074-.063,4.2,2.476,8.217,5.247,11.335a21.129,21.129,0,0,0,13.866,6.885c7.693.713,19.7,1.427,25.149-.355,8.361-2.732,15.038-13.374,13.68-19.451" transform="translate(-284.563 -396.199)"/>
    <path id="Tracciato_4189" data-name="Tracciato 4189" d="M495.461,641.028H462.5a2.708,2.708,0,0,0-2.708,2.708V665.53a2.708,2.708,0,0,0,2.708,2.708h32.962a2.708,2.708,0,0,0,2.708-2.708V643.736a2.708,2.708,0,0,0-2.708-2.708" transform="translate(-314.737 -438.798)" fill="#fe196a"/>
    <path id="Tracciato_4190" data-name="Tracciato 4190" d="M494.434,667.685H461.473a3.185,3.185,0,0,1-3.182-3.182V642.71a3.185,3.185,0,0,1,3.182-3.182h32.961a3.185,3.185,0,0,1,3.182,3.182V664.5a3.185,3.185,0,0,1-3.182,3.182m-32.961-27.211a2.238,2.238,0,0,0-2.235,2.235V664.5a2.238,2.238,0,0,0,2.235,2.235h32.961a2.238,2.238,0,0,0,2.235-2.235V642.71a2.238,2.238,0,0,0-2.235-2.235Z" transform="translate(-313.71 -437.771)"/>
    <path id="Tracciato_4191" data-name="Tracciato 4191" d="M493.865,727.7H455.974a1.7,1.7,0,0,0,0,3.41h37.891a1.7,1.7,0,1,0,0-3.41" transform="translate(-310.957 -498.124)" fill="#fe196a"/>
    <path id="Tracciato_4192" data-name="Tracciato 4192" d="M492.838,730.551H454.947a2.178,2.178,0,0,1,0-4.356h37.891a2.178,2.178,0,1,1,0,4.356m-37.891-3.41a1.232,1.232,0,0,0,0,2.464h37.891a1.232,1.232,0,1,0,0-2.464Z" transform="translate(-309.931 -497.097)"/>
    <path id="Tracciato_4193" data-name="Tracciato 4193" d="M516.582,676.182a1.974,1.974,0,1,1-1.974-1.974,1.974,1.974,0,0,1,1.974,1.974" transform="translate(-350.91 -461.511)" fill="#fff"/>
    <path id="Tracciato_4194" data-name="Tracciato 4194" d="M496.425,546.454a3.5,3.5,0,0,0,3.827-3.129l.528-5.269a3.327,3.327,0,0,0-2.943-3.639l-.645-.072a3.349,3.349,0,0,0-2.854,1.084l-1.349,1.493a.669.669,0,0,1-.794.154,1.48,1.48,0,0,0-1.292-.137,2.3,2.3,0,0,0,1.052,3.884l-1.538,5.453a5.1,5.1,0,0,1-2.63,3.178c-.928.462-1.84.994-1.88,1.316-.218,1.746,4.954,2.384,6.426,2.418,2.729.063,6.556-1.029,6.845-2.585.131-.708-3.23-1.052-3.088-1.758a16.965,16.965,0,0,0,.335-2.392" transform="translate(-332.61 -365.758)" fill="#fff"/>
    <path id="Tracciato_4195" data-name="Tracciato 4195" d="M491.537,552.64l-.241,0c-1-.023-5.293-.425-6.525-1.854a1.389,1.389,0,0,1-.359-1.1c.049-.394.432-.831,2.138-1.681a4.629,4.629,0,0,0,2.386-2.883l1.418-5.027a2.563,2.563,0,0,1-1.626-2.158,2.652,2.652,0,0,1,.928-2.441,1.865,1.865,0,0,1,1.726.132.2.2,0,0,0,.231-.047l1.349-1.494a3.835,3.835,0,0,1,3.257-1.237l.645.071a3.813,3.813,0,0,1,3.362,4.156l-.529,5.269a3.97,3.97,0,0,1-3.861,3.572c-.04.4-.121,1.039-.282,1.864a6.851,6.851,0,0,0,1.2.466c1.032.336,2.006.654,1.865,1.415-.349,1.884-4.275,2.975-7.079,2.975m-6.19-2.786a.475.475,0,0,0,.14.311c.8.932,4.223,1.489,5.83,1.526,2.726.064,5.924-1,6.334-2.079a7.036,7.036,0,0,0-1.194-.462c-1.035-.338-2.013-.656-1.859-1.422a16.862,16.862,0,0,0,.327-2.318l.021-.5.5.05a3.021,3.021,0,0,0,3.308-2.7l.529-5.269a2.863,2.863,0,0,0-2.525-3.121l-.645-.071a2.88,2.88,0,0,0-2.451.93l-1.349,1.494a1.144,1.144,0,0,1-1.357.26,1.047,1.047,0,0,0-.859-.142,1.963,1.963,0,0,0-.427,1.534,1.708,1.708,0,0,0,1.388,1.477l.453.13-1.666,5.906a5.578,5.578,0,0,1-2.875,3.474,5.737,5.737,0,0,0-1.624,1" transform="translate(-331.584 -364.733)"/>
    <path id="Tracciato_4196" data-name="Tracciato 4196" d="M512.594,568.276a.479.479,0,0,1-.056,0c-.468-.055-2.831-.417-3.407-2.158a.473.473,0,0,1,.9-.3c.411,1.242,2.528,1.5,2.618,1.515a.473.473,0,0,1-.055.943" transform="translate(-348.496 -387.092)"/>
    <path id="Tracciato_4197" data-name="Tracciato 4197" d="M498.659,522.615l-.684-4.154a3.93,3.93,0,0,1,2.984-3.878l5.145-1.274a.815.815,0,0,1,1.01.81.815.815,0,0,0,1.012.81l2.344-.585a.815.815,0,0,1,.91,1.185l-.122.221a.815.815,0,0,0,.508,1.182l1.835.509a.815.815,0,0,1,.344,1.39l-4.751,4s-.761-3.457-4.179-2.944a5.055,5.055,0,0,0-3.478,2.537c-.2.368-.6,1.024-1.229.443,0,0,.414-1.413-1.648-.249" transform="translate(-340.875 -351.356)"/>
    <path id="Tracciato_4198" data-name="Tracciato 4198" d="M242.514,655l-4.425,45.313-3.158-.132,1.569-47.636Z" transform="translate(-160.815 -446.685)" fill="#fe196a"/>
    <path id="Tracciato_4199" data-name="Tracciato 4199" d="M70.814,649.645,75.133,696.7l3.265-.245L76.828,647.1Z" transform="translate(-48.474 -442.955)" fill="#fe196a"/>
    <path id="Tracciato_4200" data-name="Tracciato 4200" d="M23.163,614.968l1.27,49.412,2.549-.552,2.338-51.209Z" transform="translate(-15.856 -419.351)" fill="#fe196a"/>
    <path id="Tracciato_4201" data-name="Tracciato 4201" d="M181.063,611.465l1.27,49.412,2.649.014,2.239-51.776Z" transform="translate(-123.942 -416.954)" fill="#fe196a"/>
    <path id="Tracciato_4202" data-name="Tracciato 4202" d="M44.322,465.679v11.5c0,11.244,8.868,20.36,19.808,20.36s19.808,9.115,19.808,20.36a1.812,1.812,0,0,1-1.811,1.814H29.695C13.295,519.71,0,506.044,0,489.188V464.656a11.978,11.978,0,0,1,11.811-12.14H31.517a12.988,12.988,0,0,1,12.806,13.163" transform="translate(0 -309.757)" fill="#fe196a"/>
    <path id="Tracciato_4203" data-name="Tracciato 4203" d="M146.545,507.453s2.693,24.477,20.773,26.079l-20.773.3s-7.692-15.6-8-21.68,8-4.695,8-4.695" transform="translate(-94.829 -347.271)" fill="#fff"/>
    <path id="Tracciato_4204" data-name="Tracciato 4204" d="M145.519,533.269a.473.473,0,0,1-.424-.264c-.316-.641-7.738-15.762-8.052-21.865a4.521,4.521,0,0,1,1.413-3.8c2.4-2.142,6.948-1.416,7.141-1.384a.474.474,0,0,1,.393.415,44.661,44.661,0,0,0,3.575,12.313c3.816,8.208,9.459,12.7,16.77,13.346a.473.473,0,0,1-.035.945l-20.773.3Zm-1.924-26.508a6.98,6.98,0,0,0-4.51,1.284,3.623,3.623,0,0,0-1.1,3.046c.282,5.479,6.813,19.139,7.825,21.227l16.118-.229c-5.573-1.837-10.1-6.269-13.235-13.03a46.114,46.114,0,0,1-3.6-12.216,13.807,13.807,0,0,0-1.5-.082" transform="translate(-93.802 -346.239)"/>
    <path id="Tracciato_4205" data-name="Tracciato 4205" d="M63.012,456.96c3.507-.826,4.971-.836,17.72-.374,3.116.113,6.823,4.028,7.19,7.129-.991,2.974-5.562,17.656,2.418,29.127a24.811,24.811,0,0,0,4.785,5.124,16.039,16.039,0,0,1-5.51,2.949c-4.114,1.223-6.182-.1-9.5,0-8.769.262-11.984,10.039-17.648,8.811-1.512-.328-3.517-1.509-5.4-5.47a61.045,61.045,0,0,1-2.541-11.5,63.143,63.143,0,0,1,3-27.831c.621-1.949,1.342-6.99,5.477-7.964" transform="translate(-37.028 -312.333)"/>
    <path id="Tracciato_4206" data-name="Tracciato 4206" d="M154.1,477.463s-2.062-16.551-8-17.964l1.364,21.772Z" transform="translate(-100.004 -314.537)"/>
    <path id="Tracciato_4207" data-name="Tracciato 4207" d="M56.835,502.437c-2.714,1.15-5.9,2.506-8.709,3.712,0,.035,0,.069,0,.1l8.708-3.758Z" transform="translate(-32.942 -343.929)" fill="#fff"/>
    <path id="Tracciato_4208" data-name="Tracciato 4208" d="M46.573,505.4l.026-1.146.278-.12c2.394-1.029,5.325-2.278,8.712-3.713l.695-.295-.055,1.107Z" transform="translate(-31.88 -342.345)"/>
    <path id="Tracciato_4209" data-name="Tracciato 4209" d="M43.3,478.958s.581-9.832,1.429-13.631c1.785-7.992,12.13-8.076,12.13-8.076l-1.807,20.34Z" transform="translate(-29.642 -312.999)"/>
    <path id="Tracciato_4210" data-name="Tracciato 4210" d="M96.551,424.6l.35-4.973c.237-.016.4-.026.45-.027,1.386-.016,1.836-.465,1.955-1.6a8.5,8.5,0,0,0-.246-3.1.661.661,0,0,1,.028-.426l.237-.556a.484.484,0,0,0-.16-.5l-.126-.1a5.073,5.073,0,0,1-1.129-1.333c-.277-.466-.749-1.339-1.072-1.494-.91-.435-4.6-2.37-6.67,1.011-1.61,2.636,1.021,6.264,1.977,7.453.231.288-1.561,5.922-1.561,5.922l-2.317.561s1.788,3.178,7.218,1.864c3.867-.936,3.253-2.376,3.253-2.376Z" transform="translate(-60.421 -280.345)" fill="#fff"/>
    <path id="Tracciato_4211" data-name="Tracciato 4211" d="M91.958,427.067c-3.713,0-5.062-2.309-5.129-2.427a.473.473,0,0,1,.3-.692l2.058-.5a50.44,50.44,0,0,0,1.475-5.338c-1.211-1.534-3.6-5.137-1.925-7.887,1.474-2.413,3.89-2.83,7.182-1.237l.1.046a3.729,3.729,0,0,1,1.152,1.471l.122.209a4.6,4.6,0,0,0,1.023,1.21l.127.1a.956.956,0,0,1,.316.987.48.48,0,0,1-.021.062l-.237.556a.187.187,0,0,0-.006.12,8.979,8.979,0,0,1,.259,3.265c-.149,1.423-.85,2.011-2.42,2.029h-.012l-.291,4.122,1.754.259a.474.474,0,0,1,.366.283,1.314,1.314,0,0,1-.09,1.07c-.42.837-1.593,1.494-3.486,1.952a11.121,11.121,0,0,1-2.613.335m-3.887-2.373c.754.764,2.612,2.005,6.277,1.118,2.046-.495,2.657-1.1,2.84-1.413a.8.8,0,0,0,.047-.1l-1.78-.262a.474.474,0,0,1-.4-.5l.35-4.973a.473.473,0,0,1,.439-.439c.251-.017.425-.028.476-.028,1.171-.014,1.4-.307,1.491-1.181a8.05,8.05,0,0,0-.233-2.926,1.139,1.139,0,0,1,.051-.732l.212-.5-.126-.11a5.533,5.533,0,0,1-1.235-1.457l-.127-.216a5.453,5.453,0,0,0-.751-1.1l-.092-.044c-1.036-.5-4.188-2.025-5.962.879-1.409,2.306.889,5.6,1.942,6.91.174.216.39.486-1.479,6.362a.474.474,0,0,1-.34.316Z" transform="translate(-59.395 -279.313)"/>
    <path id="Tracciato_4212" data-name="Tracciato 4212" d="M88.233,398.163c1-.216,2.152-.062,2.638-.241.784-.288.805-1.228,1.89-1.492a1.916,1.916,0,0,1,2.373,1.023,2.211,2.211,0,0,1,.222.441c.825,2.216-.217,3.3-.68,3.648,0,0-2.953,1.527-3.458,1.964a2.732,2.732,0,0,0-.675,2.764.418.418,0,0,1-.185.457.394.394,0,0,1-.529-.121c-.384-.557-1.222-1.635-1.819-1.38-.75.32-.516,2.57,1.138,2.83a1.082,1.082,0,0,1,.87,1.133,1.1,1.1,0,0,1-.846.88,1.132,1.132,0,0,1-.851-.219c-1.079-.69-4.124-3.616-4.5-6.239-.456-3.159,3.083-5.161,4.416-5.448" transform="translate(-57.348 -271.303)"/>
    <path id="Tracciato_4213" data-name="Tracciato 4213" d="M111.614,439.258H111.6a4.031,4.031,0,0,1-2.227-.833.44.44,0,0,1,.569-.67,3.169,3.169,0,0,0,1.691.624.44.44,0,0,1-.017.879" transform="translate(-74.761 -299.582)"/>
    <path id="Tracciato_4214" data-name="Tracciato 4214" d="M164.157,536.408l8.094-23.851a2.666,2.666,0,0,1,2.239-1.2h21.573a1.34,1.34,0,0,1,1.289,1.79c-.127.334-.264.664-.375,1l-7.314,22.3h0a2.4,2.4,0,0,1-2.393,2.354h-39.81a2.4,2.4,0,0,1-2.394-2.4Z" transform="translate(-99.298 -350.035)" fill="#139cbe"/>
    <path id="Tracciato_4215" data-name="Tracciato 4215" d="M186.239,538.253h-39.81a2.873,2.873,0,0,1-2.868-2.871.473.473,0,0,1,.473-.473H162.79l7.984-23.53a.494.494,0,0,1,.051-.105,3.125,3.125,0,0,1,2.636-1.416h21.573a1.825,1.825,0,0,1,1.527.793,1.775,1.775,0,0,1,.205,1.639l-.109.282c-.094.24-.183.468-.259.7l-7.3,22.248a2.883,2.883,0,0,1-2.863,2.735m-41.672-2.4a1.925,1.925,0,0,0,1.863,1.451h39.81a1.931,1.931,0,0,0,1.919-1.89.47.47,0,0,1,.042-.186l7.3-22.255c.084-.257.182-.507.276-.749l.107-.275a.819.819,0,0,0-.1-.764.892.892,0,0,0-.748-.384H173.462a2.183,2.183,0,0,0-1.811.939l-8.074,23.792a.473.473,0,0,1-.448.321Z" transform="translate(-98.271 -349.009)"/>
    <path id="Tracciato_4216" data-name="Tracciato 4216" d="M256.212,547.045a1.676,1.676,0,1,0,2.139-1.349,1.8,1.8,0,0,0-2.139,1.349" transform="translate(-175.319 -373.498)" fill="#fe196a"/>
    <path id="Tracciato_4217" data-name="Tracciato 4217" d="M55.014,516.841C58,527.716,66.866,534.655,79.725,538.308l-1.961,3.665c-17.869-.629-27.241-8.4-30.987-23.3Z" transform="translate(-32.02 -353.789)" fill="#fff"/>
    <path id="Tracciato_4218" data-name="Tracciato 4218" d="M76.788,541.242l-.295-.01c-17.541-.617-27.527-8.134-31.429-23.657l-.119-.472,9.151-2.036.119.435c2.806,10.226,11.01,17.337,24.384,21.137l.565.161ZM46.1,517.815c3.844,14.648,13.433,21.794,30.129,22.459l1.546-2.888c-13.195-3.881-21.384-11.01-24.351-21.2Z" transform="translate(-30.767 -352.575)"/>
    <path id="Tracciato_4219" data-name="Tracciato 4219" d="M141.069,577.278a1.576,1.576,0,0,1,.863-.773,6.115,6.115,0,0,0,.787-.359l3.5-1.857c.656-.321,1.593.427,2.273.651,2.053.674,6.3,2.263,5.955,3.756-.378,1.61-4.032.848-5.329.523-.3-.074-2.981.9-3.83.962a2.766,2.766,0,0,1-2.017-.51,1.865,1.865,0,0,0-.869-.2,1.594,1.594,0,0,1-1.246-.583l-.007-.009a1.357,1.357,0,0,1-.149-1.465Z" transform="translate(-96.416 -393.06)" fill="#fff"/>
    <path id="Tracciato_4220" data-name="Tracciato 4220" d="M143.871,579.65a2.769,2.769,0,0,1-1.607-.447c-.076-.044-.154-.088-.239-.133a1.392,1.392,0,0,0-.652-.147,2.063,2.063,0,0,1-1.612-.761,1.837,1.837,0,0,1-.208-1.985l.069-.135a2.039,2.039,0,0,1,1.124-1,5.6,5.6,0,0,0,.725-.331l3.5-1.857a2.34,2.34,0,0,1,2.043.348,5.045,5.045,0,0,0,.6.272c4.485,1.473,6.594,2.924,6.268,4.313a1.51,1.51,0,0,1-.71.955c-1.22.744-3.725.284-5.145-.068-.207.025-.9.232-1.418.385a15,15,0,0,1-2.311.578c-.154.012-.3.017-.427.017m1.685-5.987a.358.358,0,0,0-.155.031l-3.485,1.85a6.5,6.5,0,0,1-.849.386,1.1,1.1,0,0,0-.6.543l-.069.134a.885.885,0,0,0,.1.954,1.128,1.128,0,0,0,.886.415,2.341,2.341,0,0,1,1.086.256c.1.05.185.1.27.15a2.075,2.075,0,0,0,1.491.308,15.721,15.721,0,0,0,2.112-.541c1.3-.385,1.624-.469,1.868-.408,2.092.524,3.806.6,4.472.191a.563.563,0,0,0,.281-.363c.141-.6-1.564-1.858-5.641-3.2a5.519,5.519,0,0,1-.729-.325,2.933,2.933,0,0,0-1.033-.381m-5.512,2.594h0Z" transform="translate(-95.391 -392.039)"/>
    <path id="Tracciato_4221" data-name="Tracciato 4221" d="M191.871,746.486c.505-.512,3.425-9.6,3.425-9.6L201.066,741l-6.325,8.511Z" transform="translate(-131.34 -504.412)" fill="#fff"/>
    <path id="Tracciato_4222" data-name="Tracciato 4222" d="M193.713,748.959a.474.474,0,0,1-.344-.147l-2.869-3.027a.474.474,0,0,1-.007-.644c.35-.492,1.972-5.218,3.325-9.432a.474.474,0,0,1,.726-.24l5.769,4.121a.473.473,0,0,1,.1.667l-6.325,8.511a.473.473,0,0,1-.351.19h-.028m-2.289-3.577,2.246,2.369,5.7-7.672-4.85-3.465c-.851,2.636-2.4,7.312-3.1,8.767m-.916-.256-.008.008.008-.008" transform="translate(-130.314 -503.385)"/>
    <path id="Tracciato_4223" data-name="Tracciato 4223" d="M193.5,769.3l-3.837-.023a7.548,7.548,0,0,1-6.284-3.437l-3.794-6.013a3.379,3.379,0,0,1,1.271-4.786,15.584,15.584,0,0,1,3.632-1.626c.789.075,1.108,3.814,1.108,3.814l3.419.132s1.689,7.03,3.174,7.83a6.523,6.523,0,0,1,2.346,2.217A1.226,1.226,0,0,1,193.5,769.3" transform="translate(-122.576 -515.729)"/>
    <path id="Tracciato_4224" data-name="Tracciato 4224" d="M195,775.8a.455.455,0,0,1-.071-.005l-5.248-.791a4.442,4.442,0,0,1-3.16-2.121l-4.638-7.756a.473.473,0,0,1,.813-.486l4.637,7.756a3.5,3.5,0,0,0,2.489,1.67l5.248.791a.473.473,0,0,1-.07.941" transform="translate(-124.456 -523.259)" fill="#fff"/>
    <path id="Tracciato_4225" data-name="Tracciato 4225" d="M202.044,778.243a.473.473,0,0,1-.124-.93l2.924-.8a.473.473,0,0,1,.249.913l-2.924.8a.474.474,0,0,1-.125.017" transform="translate(-137.98 -531.531)" fill="#fff"/>
    <path id="Tracciato_4226" data-name="Tracciato 4226" d="M206.871,783.7a.473.473,0,0,1-.112-.933l1.96-.48a.473.473,0,0,1,.225.92l-1.96.48a.48.48,0,0,1-.113.014" transform="translate(-141.284 -535.481)" fill="#fff"/>
    <path id="Tracciato_4227" data-name="Tracciato 4227" d="M254.272,754.909l6.7,6.738,3.551-1.306-6.175-8.62Z" transform="translate(-174.055 -514.57)" fill="#fff"/>
    <path id="Tracciato_4228" data-name="Tracciato 4228" d="M259.944,761.093a.473.473,0,0,1-.336-.14l-6.7-6.738a.473.473,0,0,1,.044-.706l4.074-3.188a.474.474,0,0,1,.676.1l6.175,8.62a.473.473,0,0,1-.221.72l-3.551,1.306a.479.479,0,0,1-.163.029m-5.987-7.167,6.109,6.145,2.683-.986-5.525-7.714Z" transform="translate(-173.028 -513.543)"/>
    <path id="Tracciato_4229" data-name="Tracciato 4229" d="M134.648,602.315s30.613-3.757,39.716,4.551-14.37,44.032-14.37,44.032l-7.423-5.8,7.041-25.25-28.3-8.473Z" transform="translate(-89.887 -411.718)" fill="#009ee3"/>
    <path id="Tracciato_4230" data-name="Tracciato 4230" d="M75.428,613.864a71.358,71.358,0,0,0,23.524,3.252,8.254,8.254,0,0,1,7.512,4.763c3.294,6.81,10.423,19.073,22.036,27.02l5.547-3.15-14.156-33.6a12.037,12.037,0,0,0-6.7-6.607L85.136,594.7s-8.7-2.564-12.965,5.624c-.762,1.462-2.176-1.152-2.513.028-1.155,4.045,1.951,12.235,5.77,13.513" transform="translate(-47.515 -406.825)" fill="#009ee3"/>
    <path id="Tracciato_4231" data-name="Tracciato 4231" d="M191.1,646.261a.473.473,0,0,1-.433-.281l-6.4-14.417a11.354,11.354,0,0,0-6.429-6.022l-13.436-4.932a.473.473,0,0,1,.327-.889l13.436,4.932a12.3,12.3,0,0,1,6.968,6.527l6.4,14.417a.473.473,0,0,1-.432.665" transform="translate(-112.327 -424.192)" fill="#fff"/>
    <path id="Tracciato_4232" data-name="Tracciato 4232" d="M216.855,731.9a.472.472,0,0,1-.341-.145c-1.292-1.345-2.563-2.789-3.778-4.293a.473.473,0,1,1,.736-.595c1.2,1.482,2.451,2.906,3.724,4.232a.473.473,0,0,1-.341.8" transform="translate(-145.551 -497.435)" fill="#fff"/>
    <path id="Tracciato_4233" data-name="Tracciato 4233" d="M209.3,722.721a.473.473,0,0,1-.368-.176c-.595-.736-1.189-1.5-1.768-2.279a.473.473,0,0,1,.76-.565c.57.767,1.157,1.524,1.744,2.249a.473.473,0,0,1-.368.771" transform="translate(-141.741 -492.521)" fill="#fff"/>
    <path id="Tracciato_4234" data-name="Tracciato 4234" d="M268.591,775.9a19.321,19.321,0,0,0,.226,5.4,2.945,2.945,0,0,0,2.887,2.3h16.439a1.259,1.259,0,0,0,.807-2.224c-2.923-2.452-8.3-6.2-14.911-7.294L272.2,776.66Z" transform="translate(-183.792 -529.872)"/>
    <path id="Tracciato_4235" data-name="Tracciato 4235" d="M290.3,796.52H273.265a.473.473,0,0,1,0-.946H290.3a.473.473,0,1,1,0,.946" transform="translate(-186.732 -544.588)" fill="#fff"/>
    <path id="Tracciato_4236" data-name="Tracciato 4236" d="M297.135,782.163a.473.473,0,0,1-.437-.653l.9-2.19a.473.473,0,0,1,.875.361l-.9,2.19a.474.474,0,0,1-.438.293" transform="translate(-203.072 -533.261)" fill="#fff"/>
    <path id="Tracciato_4237" data-name="Tracciato 4237" d="M306.534,784.454a.473.473,0,0,1-.449-.622l.653-1.976a.473.473,0,0,1,.9.3l-.653,1.976a.473.473,0,0,1-.449.325" transform="translate(-209.506 -534.977)" fill="#fff"/>
    <path id="Tracciato_4238" data-name="Tracciato 4238" d="M107.093,596.712H4.955a3.354,3.354,0,0,0-3.166,3.83L8.842,667.4h5.093L9.52,604.651a1.851,1.851,0,0,1,1.759-2.049H98.955a2.769,2.769,0,0,1,2.632,3.065l-4.371,62.121h5.093l7.173-68.188a2.53,2.53,0,0,0-2.389-2.888" transform="translate(-1.21 -408.463)" fill="#fff"/>
    <path id="Tracciato_4239" data-name="Tracciato 4239" d="M101.709,667.235H95.682l4.407-62.627a2.5,2.5,0,0,0-.646-1.881,2.06,2.06,0,0,0-1.514-.677H10.253a1.221,1.221,0,0,0-.9.4,1.517,1.517,0,0,0-.39,1.14l4.451,63.251H7.39l-7.1-67.278a4.071,4.071,0,0,1,1-3.154,3.518,3.518,0,0,1,2.636-1.2H106.067a2.769,2.769,0,0,1,2.075.942,3.19,3.19,0,0,1,.784,2.469Zm-5.011-.946h4.159l7.129-67.765a2.241,2.241,0,0,0-.547-1.736,1.834,1.834,0,0,0-1.372-.629H3.929A2.584,2.584,0,0,0,2,597.044a3.127,3.127,0,0,0-.763,2.421L8.242,665.9H12.4L8.022,603.658a2.463,2.463,0,0,1,.642-1.852,2.156,2.156,0,0,1,1.589-.7H97.929a3,3,0,0,1,2.206.978,3.452,3.452,0,0,1,.9,2.594Z" transform="translate(-0.184 -407.436)"/>
    <path id="Tracciato_4240" data-name="Tracciato 4240" d="M405.566,4.747c-1.338-.123-2.573,1.319-3.227,2.489a9.836,9.836,0,0,0,7.467,14.577c2.418.289,4.69-.448,7.09.394,2.63.922,5.066,3.241,7.9,3.379,2.962.144,5.9-1.615,8.72-2.423a44.315,44.315,0,0,0,10.757-4.275,9.915,9.915,0,0,0,3.847-3.634c1.747-3.311-.239-4.7-2.737-6.214-3.3-2-3.013-6.357-7.77-6.283-1.87.029-3.721.583-5.585.428-4.048-.337-7.661-3.951-11.618-3.036-4.051.937-5.956,6.12-10.2,6.551a5.134,5.134,0,0,1-3.552-1.478,2.024,2.024,0,0,0-1.094-.475" transform="translate(-274.561 -0.001)"/>
    <path id="Tracciato_4241" data-name="Tracciato 4241" d="M481.625,181.907s-5.329,1.985-7.419.314,3.239-4.493,4.493-4.284,2.926,3.971,2.926,3.971" transform="translate(-324.276 -121.794)"/>
    <path id="Tracciato_4242" data-name="Tracciato 4242" d="M566.879,317.88l-5.015,8.777-2.717-3.762,4.389-8.568Z" transform="translate(-382.748 -215.164)" fill="#fff"/>
    <path id="Tracciato_4243" data-name="Tracciato 4243" d="M560.837,326.1a.473.473,0,0,1-.383-.2l-2.717-3.762a.473.473,0,0,1-.038-.493l4.389-8.568a.473.473,0,0,1,.766-.109l3.343,3.553a.473.473,0,0,1,.066.559l-5.015,8.777a.475.475,0,0,1-.386.238h-.025m-2.163-4.277,2.117,2.931,4.477-7.835-2.644-2.809Z" transform="translate(-381.722 -214.137)"/>
    <path id="Tracciato_4244" data-name="Tracciato 4244" d="M549.212,335.675c-1.322,2.726-4.671,9.34-7.9,12.509a1.438,1.438,0,0,1-2.4-.652c-1.009-3.818-1.682-11.772,2.08-18.042a19.047,19.047,0,0,1,5.132.418l-.744,3.135.411-.293a1.65,1.65,0,0,1,2.034.09l.963.826a1.68,1.68,0,0,1,.419,2.01" transform="translate(-368.36 -225.521)"/>
    <path id="Tracciato_4245" data-name="Tracciato 4245" d="M543.18,348.377a.473.473,0,0,1-.443-.306c-2.96-7.824.889-16.7,1.054-17.077a.473.473,0,0,1,.866.382c-.039.089-3.856,8.9-1.035,16.36a.473.473,0,0,1-.442.641" transform="translate(-370.752 -226.38)" fill="#fff"/>
    <path id="Tracciato_4246" data-name="Tracciato 4246" d="M560.628,357.135a.473.473,0,0,1-.257-.076l-2.508-1.627a.473.473,0,0,1,.515-.794l2.508,1.627a.473.473,0,0,1-.258.87" transform="translate(-381.722 -242.706)" fill="#fff"/>
    <path id="Tracciato_4247" data-name="Tracciato 4247" d="M557.106,363.9a.47.47,0,0,1-.288-.1l-2.3-1.764a.473.473,0,1,1,.576-.751l2.3,1.764a.473.473,0,0,1-.288.848" transform="translate(-379.454 -247.239)" fill="#fff"/>
    <path id="Tracciato_4248" data-name="Tracciato 4248" d="M624.933,326.251c0,.209,4.6,10.24,4.6,10.24l-5.224.418-3.553-8.568Z" transform="translate(-424.919 -223.326)" fill="#fff"/>
    <path id="Tracciato_4249" data-name="Tracciato 4249" d="M623.278,336.355a.473.473,0,0,1-.437-.292l-3.553-8.568a.473.473,0,0,1,.226-.6l4.179-2.09a.473.473,0,0,1,.674.323c.179.524,2.819,6.332,4.566,10.144a.473.473,0,0,1-.393.669l-5.225.418-.038,0m-2.947-8.815,3.252,7.843,4.207-.337c-2.728-5.956-3.748-8.254-4.131-9.171Zm4.047-2.316h0Z" transform="translate(-423.892 -222.299)"/>
    <path id="Tracciato_4250" data-name="Tracciato 4250" d="M622,348.6a2.637,2.637,0,0,1,3.762-1.254s4.987,7.2,6.84,13.152a2.055,2.055,0,0,1-2.809,2.473c-3.758-1.7-9.648-5.259-13.018-11.863a10.545,10.545,0,0,1,2.717-3.971Z" transform="translate(-422.198 -237.528)"/>
    <path id="Tracciato_4251" data-name="Tracciato 4251" d="M632.782,369.983c-1.44,0-6.676-.711-13.44-10.034a.473.473,0,0,1,.766-.556c7.424,10.233,12.871,9.638,12.926,9.632a.473.473,0,0,1,.135.937,2.825,2.825,0,0,1-.388.022" transform="translate(-423.892 -245.878)" fill="#fff"/>
    <path id="Tracciato_4252" data-name="Tracciato 4252" d="M647.548,370.218a.473.473,0,0,1-.239-.882l2.508-1.463a.473.473,0,0,1,.477.818l-2.508,1.463a.473.473,0,0,1-.238.064" transform="translate(-442.937 -251.773)" fill="#fff"/>
    <path id="Tracciato_4253" data-name="Tracciato 4253" d="M643.574,364.256a.473.473,0,0,1-.225-.89l2.717-1.463a.473.473,0,1,1,.449.833L643.8,364.2a.472.472,0,0,1-.224.057" transform="translate(-440.217 -247.692)" fill="#fff"/>
    <path id="Tracciato_4254" data-name="Tracciato 4254" d="M529.711,165.942s13.621,2.432,23.437,12.725a9.9,9.9,0,0,1,2.29,9.766c-2.181,7.035-6.928,19.883-14.86,29.546l-6.061-5.225s1.463-12.121,5.433-19.644-19.226-23.824-19.226-23.824Z" transform="translate(-356.448 -113.591)" fill="#fff"/>
    <path id="Tracciato_4255" data-name="Tracciato 4255" d="M539.551,217.426a.472.472,0,0,1-.309-.115l-6.061-5.225a.474.474,0,0,1-.161-.415c.015-.122,1.519-12.295,5.485-19.809,1.514-2.868-1.263-7.768-8.031-14.169a113.145,113.145,0,0,0-11.049-9.047.473.473,0,0,1,.107-.831l8.986-3.344a.474.474,0,0,1,.248-.022c.138.025,13.887,2.578,23.7,12.864a10.382,10.382,0,0,1,2.4,10.233c-2.139,6.9-6.924,19.933-14.946,29.706a.472.472,0,0,1-.325.171l-.041,0m-5.558-5.89,5.5,4.74c7.736-9.6,12.377-22.264,14.468-29.009a9.436,9.436,0,0,0-2.181-9.3c-9.1-9.539-21.672-12.284-23.054-12.562l-8.028,2.987c4.007,2.91,22.4,16.8,18.646,23.912-3.572,6.769-5.115,17.469-5.35,19.231" transform="translate(-355.421 -112.565)"/>
    <path id="Tracciato_4256" data-name="Tracciato 4256" d="M530.02,215.223l-7.106,2.09s-12.957-27.377-16.718-31.347-11.076-10.449-18.808-12.748-7.732-8.15-7.732-8.15l13.166-3.762s18.39,7.942,24.451,16.928,12.748,36.99,12.748,36.99" transform="translate(-328.335 -110.417)" fill="#fff"/>
    <path id="Tracciato_4257" data-name="Tracciato 4257" d="M521.887,216.758a.474.474,0,0,1-.428-.271c-.129-.273-12.967-27.353-16.634-31.225-2.194-2.315-10.018-10.068-18.6-12.62-7.979-2.371-8.071-8.542-8.071-8.6a.473.473,0,0,1,.343-.455l13.166-3.762a.473.473,0,0,1,.318.021c.756.327,18.587,8.1,24.656,17.1,6.039,8.955,12.542,36,12.816,37.145a.473.473,0,0,1-.327.564l-7.106,2.09a.468.468,0,0,1-.134.019M479.126,164.39c.139,1.254,1.078,5.476,7.37,7.347,8.808,2.618,16.783,10.517,19.017,12.876,3.577,3.775,15.012,27.7,16.629,31.1l6.285-1.848c-.88-3.589-7.042-28.2-12.574-36.4-5.622-8.336-22.31-15.9-24.093-16.69Z" transform="translate(-327.308 -109.39)"/>
    <path id="Tracciato_4258" data-name="Tracciato 4258" d="M445.871,85.466c3.553-7.105,9.4-8.15,9.4-8.15l10.031-.836a8.083,8.083,0,0,1,7.71,4.615l9.217,21.508s-1.881,5.015-10.24,5.851-14.106.313-16.823,3.657c-1.791,2.2-1.734-12.5-.7-24.126Z" transform="translate(-305.209 -52.341)" fill="#009ee3"/>
    <path id="Tracciato_4259" data-name="Tracciato 4259" d="M473.056,125.348l-4.6-2.09-3.553,1.463s-19.059-2.414-10.537-16.051c.037-.059-6.7-1.421-6.7-1.421s-7.767,18.516,16.816,18.934a4.1,4.1,0,0,0,2.926-.418c1.672-.836,4.6.836,5.643-.418" transform="translate(-305.644 -73.415)" fill="#fff"/>
    <path id="Tracciato_4260" data-name="Tracciato 4260" d="M464.274,125.735a3.641,3.641,0,0,1-.907-.105c-8.248-.151-13.811-2.342-16.534-6.514-3.691-5.655-.775-12.775-.648-13.075a.474.474,0,0,1,.53-.281c6.909,1.4,6.909,1.4,7.038,1.7a.474.474,0,0,1-.033.439c-2.165,3.465-2.674,6.463-1.512,8.911,2.309,4.866,10.492,6.239,11.586,6.4l3.434-1.414a.471.471,0,0,1,.376.007l4.6,2.09a.473.473,0,0,1,.168.733c-.727.873-2,.683-3.23.5a4.737,4.737,0,0,0-2.565.038,5.131,5.131,0,0,1-2.3.572m-17.352-18.967c-.526,1.491-2.263,7.293.707,11.836,2.549,3.9,7.871,5.946,15.816,6.081a.47.47,0,0,1,.142.024,3.64,3.64,0,0,0,2.565-.392,5.335,5.335,0,0,1,3.127-.128,7.839,7.839,0,0,0,1.6.139l-3.476-1.58-3.363,1.385a.466.466,0,0,1-.24.032c-.4-.05-9.76-1.3-12.443-6.952-1.245-2.623-.83-5.738,1.23-9.266-1.147-.255-3.755-.792-5.66-1.179" transform="translate(-304.593 -72.389)"/>
    <path id="Tracciato_4261" data-name="Tracciato 4261" d="M454.066,106.247l-9.335-2.638.36-.812a6.832,6.832,0,0,1,1.264-.812c.2,0,5.48-.2,5.48-.2l3.247,1.015Z" transform="translate(-304.428 -69.672)" fill="#009ee3"/>
    <path id="Tracciato_4262" data-name="Tracciato 4262" d="M547.128,121.87H529L542.44,101.2a2.308,2.308,0,0,1,1.938-1.037h14.711a1.152,1.152,0,0,1,1,1.767Z" transform="translate(-362.114 -68.566)"/>
    <path id="Tracciato_4263" data-name="Tracciato 4263" d="M589.616,119.579a3.831,3.831,0,0,1-2.829,1.64c-.974,0-1.285-.734-.7-1.64a3.831,3.831,0,0,1,2.829-1.64c.974,0,1.285.734.7,1.64" transform="translate(-400.988 -80.732)" fill="#fff"/>
    <path id="Tracciato_4264" data-name="Tracciato 4264" d="M585.762,120.665A1.382,1.382,0,0,1,584.44,120a1.67,1.67,0,0,1,.228-1.7,4.3,4.3,0,0,1,3.226-1.856,1.382,1.382,0,0,1,1.322.669,1.67,1.67,0,0,1-.228,1.7h0a4.3,4.3,0,0,1-3.226,1.855m2.133-3.28a3.361,3.361,0,0,0-2.432,1.425c-.237.365-.25.624-.19.735s.242.174.49.174a3.361,3.361,0,0,0,2.432-1.424c.237-.365.251-.624.19-.735s-.242-.174-.49-.174m.7,1.167h0Z" transform="translate(-399.964 -79.705)"/>
    <path id="Tracciato_4265" data-name="Tracciato 4265" d="M518.69,170.23H491.434a1.654,1.654,0,0,1-1.653-1.653v-.034h30.562v.034a1.653,1.653,0,0,1-1.653,1.653" transform="translate(-335.266 -115.371)"/>
    <path id="Tracciato_4266" data-name="Tracciato 4266" d="M490.53,56.049c.186-.093,2.7-3.06,4.172-4.807a3.874,3.874,0,0,1-.055-1.375,1.873,1.873,0,0,1-.456-1.755c.356-1.153,1.45-.228,1.45-.228s.507-.886,2.413.641,3.919-.331,3.919-.331a4.772,4.772,0,0,1-1.008,2.535,4.832,4.832,0,0,0-.675,2.728l-1.068-.154a4.222,4.222,0,0,1-1.832,1.372,3.158,3.158,0,0,1-1.3-.665l-1.17,2.665,1.193.627s.27,1.672-2.865,2.09S487.6,57.3,487.6,57.3s1.672-.627,2.926-1.254" transform="translate(-333.776 -32.537)" fill="#fff"/>
    <path id="Tracciato_4267" data-name="Tracciato 4267" d="M491.5,58.889a8.224,8.224,0,0,1-5.259-2.276.473.473,0,0,1,.168-.778c.016-.006,1.625-.611,2.836-1.212.137-.129.794-.828,3.917-4.535A4.135,4.135,0,0,1,493.137,49a2.276,2.276,0,0,1-.425-2.056,1.179,1.179,0,0,1,.782-.87,1.455,1.455,0,0,1,1.093.194,1.2,1.2,0,0,1,.337-.116,3.225,3.225,0,0,1,2.4.976c1.57,1.259,3.232-.244,3.3-.309a.473.473,0,0,1,.794.348,5.23,5.23,0,0,1-1.1,2.812,4.432,4.432,0,0,0-.586,2.464.473.473,0,0,1-.54.455l-.813-.117a4.553,4.553,0,0,1-1.839,1.3.472.472,0,0,1-.266.028,3.384,3.384,0,0,1-1.014-.412l-.761,1.733.8.422a.474.474,0,0,1,.247.344,1.8,1.8,0,0,1-.379,1.295,4.136,4.136,0,0,1-2.891,1.34,5.96,5.96,0,0,1-.781.051M487.49,56.43a6.6,6.6,0,0,0,4.667,1.469c1.928-.256,2.35-.98,2.438-1.343l-.924-.485a.473.473,0,0,1-.213-.609l1.17-2.665a.473.473,0,0,1,.735-.174,2.887,2.887,0,0,0,.961.531,3.752,3.752,0,0,0,1.508-1.179.473.473,0,0,1,.429-.163l.551.079a4.616,4.616,0,0,1,.741-2.463,5.364,5.364,0,0,0,.67-1.222,3.194,3.194,0,0,1-3.494-.336c-1.025-.822-1.506-.81-1.629-.786a.342.342,0,0,1-.05,0,.027.027,0,0,0-.026.012.473.473,0,0,1-.716.127.9.9,0,0,0-.549-.235c-.035.011-.093.08-.143.241a1.407,1.407,0,0,0,.339,1.281.471.471,0,0,1,.138.36l-.006.115a3.114,3.114,0,0,0,.05,1.128.473.473,0,0,1-.1.41c-4.021,4.775-4.188,4.859-4.322,4.926-.743.371-1.617.738-2.224.982" transform="translate(-332.749 -31.513)"/>
    <path id="Tracciato_4268" data-name="Tracciato 4268" d="M513.75,67.391l-.345-.311Z" transform="translate(-351.437 -45.918)" fill="#fff"/>
    <path id="Tracciato_4269" data-name="Tracciato 4269" d="M512.723,66.838a.471.471,0,0,1-.317-.122l-.345-.311a.473.473,0,0,1,.634-.7l.345.311a.473.473,0,0,1-.317.825" transform="translate(-350.41 -44.891)"/>
  </g>
</svg>
