<svg xmlns="http://www.w3.org/2000/svg" xmlns:xlink="http://www.w3.org/1999/xlink" width="42.417" height="42.417" viewBox="0 0 42.417 42.417">
  <defs>
    <clipPath id="clip-path">
      <rect id="Rettangolo_12" data-name="Rettangolo 12" width="42.417" height="42.417" transform="translate(0 0)" fill="#f9fafa"/>
    </clipPath>
  </defs>
  <g id="Raggruppa_28" data-name="Raggruppa 28" clip-path="url(#clip-path)">
    <path id="Tracciato_15" data-name="Tracciato 15" d="M30.426,0H11.6A11.609,11.609,0,0,0,0,11.6V30.425a11.609,11.609,0,0,0,11.6,11.6H30.426a11.609,11.609,0,0,0,11.6-11.6V11.6A11.609,11.609,0,0,0,30.426,0m7.869,30.425a7.877,7.877,0,0,1-7.868,7.868H11.6a7.876,7.876,0,0,1-7.868-7.868V11.6A7.877,7.877,0,0,1,11.6,3.728H30.426A7.877,7.877,0,0,1,38.294,11.6V30.425Z" transform="translate(0.03 0.198)" fill="#f9fafa"/>
    <path id="Tracciato_16" data-name="Tracciato 16" d="M51.8,40.97A10.828,10.828,0,1,0,62.624,51.8,10.84,10.84,0,0,0,51.8,40.97m0,17.927a7.1,7.1,0,1,1,7.1-7.1,7.107,7.107,0,0,1-7.1,7.1" transform="translate(-30.755 -30.589)" fill="#f9fafa"/>
    <path id="Tracciato_17" data-name="Tracciato 17" d="M121.655,28.251a2.733,2.733,0,1,0,1.934.8,2.745,2.745,0,0,0-1.934-.8" transform="translate(-89.332 -21.031)" fill="#f9fafa"/>
  </g>
</svg>
