<svg xmlns="http://www.w3.org/2000/svg" width="595.915" height="700.866" viewBox="0 0 595.915 700.866">
  <g id="Raggruppa_1992" data-name="Raggruppa 1992" transform="translate(0 -0.001)">
    <g id="Raggruppa_1993" data-name="Raggruppa 1993">
      <path id="Tracciato_4013" data-name="Tracciato 4013" d="M242.754,197.886l182.7-108.361A37.207,37.207,0,0,1,474.514,99.61c29.566,40.617,80.014,120.567,78.864,191.922L297.74,390Z" transform="translate(41.361 113.809)"/>
      <path id="Tracciato_4015" data-name="Tracciato 4015" d="M520.645,268.817a1.178,1.178,0,0,1-1.118-.81c-25.862-78.6-60.384-136.252-74.027-157.393a11.976,11.976,0,0,0-16.037-3.89L280.934,192.689a1.176,1.176,0,0,1-1.177-2.036l148.531-85.967a14.33,14.33,0,0,1,19.19,4.653c13.691,21.217,48.336,79.078,74.284,157.934a1.177,1.177,0,0,1-1.117,1.544" transform="translate(46.526 116.427)" fill="#fff"/>
      <path id="Tracciato_4016" data-name="Tracciato 4016" d="M161.321,345.649c13.01-35.215,45.617-113.7,93.234-161.869l53.213,102.23a22.212,22.212,0,0,0,21.623,11.874l235.789-20.458-97.619,198.9a28.492,28.492,0,0,1-33.941,14.685c-56.779-17.427-202.019-65-263.135-113.036a28.526,28.526,0,0,1-9.162-32.322" transform="translate(29.561 127.916)" fill="#fff"/>
      <path id="Tracciato_4017" data-name="Tracciato 4017" d="M442.216,493.6a29.9,29.9,0,0,1-8.8-1.327C374.492,474.19,230.852,426.951,169.9,379.042a29.631,29.631,0,0,1-9.539-33.654c12.007-32.5,45.155-113.379,93.5-162.289a1.176,1.176,0,0,1,1.879.284l53.213,102.231a21,21,0,0,0,20.479,11.245L565.223,276.4a1.176,1.176,0,0,1,1.158,1.69l-97.618,198.9A29.529,29.529,0,0,1,442.216,493.6m-187.81-307.7C207,234.6,174.432,314.1,162.571,346.2a27.287,27.287,0,0,0,8.786,30.989c60.637,47.664,203.951,94.789,262.753,112.837a27.2,27.2,0,0,0,32.54-14.079l96.7-197.026L329.639,299.2a23.328,23.328,0,0,1-22.768-12.5ZM161.468,345.8h0Z" transform="translate(29.413 127.77)"/>
      <path id="Tracciato_4018" data-name="Tracciato 4018" d="M397.9,448.889a1.174,1.174,0,0,1-1.027-.6L316.8,304.9a1.176,1.176,0,0,1,2.054-1.146l80.076,143.382a1.176,1.176,0,0,1-1.027,1.75" transform="translate(51.841 144.846)"/>
      <path id="Tracciato_4019" data-name="Tracciato 4019" d="M181.706,331.9a1.176,1.176,0,0,1-.4-2.284l102.172-36.685a1.176,1.176,0,1,1,.795,2.214L182.1,331.833a1.186,1.186,0,0,1-.4.07" transform="translate(32.536 143.387)"/>
      <path id="Tracciato_4020" data-name="Tracciato 4020" d="M253.361.75l-.755-.725a.087.087,0,0,0-.123.123q.362.376.725.755c.1.1.254-.056.153-.153" transform="translate(131.162 0)"/>
      <path id="Tracciato_4021" data-name="Tracciato 4021" d="M38.141,425.9l-4.2,5.548a15.519,15.519,0,0,0,2.369,21.231l14.633,12.337a59.562,59.562,0,0,0,38.394,14.027l37.5.552a4.87,4.87,0,0,0,2.911-8.825c-12.175-8.725-23.658-17.286-26.627-24.72Z" transform="translate(15.999 221.272)"/>
      <path id="Tracciato_4022" data-name="Tracciato 4022" d="M140.059,440.88s7.909,31.637,16.283,33.018,101.937-16.944,98.606-23.374c-2.817-5.438-45.544-11.14-50.247-23.436-2.8-7.31-64.643,13.791-64.643,13.791" transform="translate(72.766 221.089)"/>
      <path id="Tracciato_4023" data-name="Tracciato 4023" d="M184.53,154.353s-51.619,26.438-85.81,85.053-97.69,318.4-97.69,318.4,52.512,33.6,132.838,36.018c0,0,18.926-158.427,45.58-240.265,0,0,1.468,151.12,21.03,230.7,0,0,79.58-6.25,107.334-16.28,0,0-62.441-330.017-70.291-401.446Z" transform="translate(0.535 80.192)" fill="#fff"/>
      <path id="Tracciato_4024" data-name="Tracciato 4024" d="M134.4,595.927h-.047C54.52,593.52,1.249,560,.722,559.663a1.563,1.563,0,0,1-.676-1.69c.637-2.6,63.944-260.683,97.855-318.821,34.032-58.335,85.93-85.391,86.451-85.656a1.553,1.553,0,0,1,1.064-.132l52.992,12.185a1.571,1.571,0,0,1,1.2,1.355c7.753,70.554,69.648,398.025,70.273,401.326a1.566,1.566,0,0,1-1.006,1.763c-27.636,9.988-104.485,16.115-107.743,16.37a1.579,1.579,0,0,1-1.643-1.187c-16.519-67.2-20.178-186.584-20.907-221.336-24.8,82.939-42.445,229.184-42.628,230.707a1.566,1.566,0,0,1-1.554,1.38M3.36,557.605c7.4,4.422,57.311,32.615,129.664,35.145C135,576.712,153.442,430.532,178.5,353.612a1.565,1.565,0,0,1,3.053.47c.015,1.5,1.67,150.208,20.669,229.052,10.347-.86,78.078-6.753,104.341-15.645-4.308-22.822-61.929-328.6-69.937-399.136l-51.339-11.807c-5.372,2.905-52.9,29.712-84.676,84.184C68.053,296.538,7.938,539.017,3.36,557.605" transform="translate(0 79.657)"/>
      <path id="Tracciato_4025" data-name="Tracciato 4025" d="M164.042,227.112h-12.96s-23.178,46.214-33.065,90.682Z" transform="translate(61.314 117.994)" fill="#fff"/>
      <path id="Tracciato_4026" data-name="Tracciato 4026" d="M118.554,319.9a1.537,1.537,0,0,1-.34-.038,1.565,1.565,0,0,1-1.188-1.867c9.815-44.147,32.962-90.581,33.194-91.045a1.566,1.566,0,0,1,1.4-.863h12.96a1.565,1.565,0,1,1,0,3.13H152.591c-3.2,6.545-23.516,49-32.511,89.457a1.568,1.568,0,0,1-1.527,1.226" transform="translate(60.779 117.458)"/>
      <path id="Tracciato_4027" data-name="Tracciato 4027" d="M36.166,449.5a1.584,1.584,0,0,1-.324-.033,1.564,1.564,0,0,1-1.21-1.852c.053-.263,5.575-26.638,13.386-62.885a1.566,1.566,0,0,1,3.062.659c-7.81,36.236-13.329,62.6-13.384,62.865a1.567,1.567,0,0,1-1.53,1.246" transform="translate(17.975 199.239)"/>
      <path id="Tracciato_4028" data-name="Tracciato 4028" d="M48.453,372.689a1.587,1.587,0,0,1-.334-.036,1.565,1.565,0,0,1-1.2-1.863l1.358-6.241a1.566,1.566,0,0,1,3.06.669l-1.36,6.239a1.566,1.566,0,0,1-1.529,1.232" transform="translate(24.359 188.758)"/>
      <path id="Tracciato_4029" data-name="Tracciato 4029" d="M50.708,454.8a1.6,1.6,0,0,1-.336-.036,1.565,1.565,0,0,1-1.194-1.865c11.087-50.62,26.446-118.968,36.659-157.108,19.7-73.572,61.93-119.77,62.354-120.229a1.566,1.566,0,0,1,2.3,2.127c-.419.453-42.14,46.124-61.626,118.912-10.2,38.083-25.546,106.38-36.627,156.968a1.566,1.566,0,0,1-1.527,1.231" transform="translate(25.531 90.952)"/>
      <path id="Tracciato_4030" data-name="Tracciato 4030" d="M104.094,218.541c-.536,0-1.076-.008-1.624-.023a1.563,1.563,0,0,1-1.521-1.608,1.535,1.535,0,0,1,1.606-1.521c38.51,1.052,42.6-37.279,42.764-38.911a1.565,1.565,0,0,1,3.117.3c-.041.422-4.44,41.765-44.342,41.765" transform="translate(52.446 90.952)"/>
      <path id="Tracciato_4031" data-name="Tracciato 4031" d="M210.2,100.06c-3.575,2.708-14.319,10.845-23.919,7.611-7.908-2.665-9.245-11.1-14.507-10.635-5.128.447-4.764,8.531-11.07,12.247-9.711,5.727-20.117-7.827-37.473-6.874-12.813.7-13.665,8.447-28.434,13.153-14.594,4.651-40.315,5.551-54-10.5-14.533-17.052-9.488-46.191,5-62.207,18.04-19.942,48.058-16.59,49.411-16.419,16.01,2.03,20.407,10,31.685,7.114,13.615-3.48,11.839-16.274,27.765-24.576,13.566-7.072,33.141-7.321,46.1,1.111,8.822,5.739,8.575,11.6,15.972,13.094,11.7,2.367,17.165-11.307,30.128-10.318,9.748.745,19.838,10.147,21.661,21.661,1.216,7.678-1.08,17.437-7.741,22.448-8.435,6.347-16.867-.19-25.92,6.85C231.884,66.13,232.577,67,225.75,78.4,218.7,90.174,215.283,96.209,210.2,100.06" transform="translate(16.675 1.927)"/>
      <path id="Tracciato_4032" data-name="Tracciato 4032" d="M165.669,153.32c.123-.195,47.726-65.7,52.35-69.066s13.355,3.685,16.639,7.146,12.551,14.636,12.551,14.636-3.629,2.746-5.628.052-12.348-9.88-12.348-9.88l6.083,9.184s-5.487,2.17-9.5.081c0,0-1.333,10.412-12.946,10.132,0,0-7.713,48.6-17.994,54.985s-43.691,5.452-29.209-17.27" transform="translate(84.21 43.313)" fill="#fff"/>
      <path id="Tracciato_4033" data-name="Tracciato 4033" d="M180.281,176.068c-6.365,0-12.74-1.474-16.289-5.063-2.931-2.966-5.156-8.494.9-17.987.463-.711,47.783-65.878,52.746-69.49,6.867-4.995,18.579,7.212,18.7,7.335,3.282,3.46,12.241,14.256,12.621,14.714a1.567,1.567,0,0,1-.26,2.247,7.424,7.424,0,0,1-4.926,1.507,4.335,4.335,0,0,1-2.9-1.77,33.276,33.276,0,0,0-4.943-4.363l1.24,1.869a1.568,1.568,0,0,1-.729,2.32c-.22.087-4.78,1.851-8.988.714a13.286,13.286,0,0,1-12.7,9.594c-1.474,8.906-8.549,48.58-18.5,54.763-3.553,2.206-9.751,3.609-15.96,3.609m-12.775-21.337c-3.948,6.209-4.381,10.944-1.287,14.074,5.768,5.835,22.137,4.867,28.368,1,7.934-4.929,15.159-40.579,17.274-53.9a1.571,1.571,0,0,1,1.583-1.32c.137,0,.274.006.407.006,9.645,0,10.9-8.415,10.951-8.777a1.567,1.567,0,0,1,2.275-1.184c1.989,1.036,4.563.767,6.291.392l-4.907-7.4a1.566,1.566,0,0,1,2.2-2.15c1.08.751,10.619,7.412,12.712,10.231a1.187,1.187,0,0,0,.833.538,2.51,2.51,0,0,0,1.1-.14c-2.632-3.152-8.748-10.439-11.248-13.074-3.977-4.192-11.36-9.3-14.581-6.958-4.194,3.053-49.75,65.539-51.97,68.671m-1.3-.871h0Z" transform="translate(83.673 42.773)"/>
      <path id="Tracciato_4034" data-name="Tracciato 4034" d="M198.354,96.611a1.565,1.565,0,0,1-.986-2.781l6.85-5.555a1.567,1.567,0,0,1,1.9-.052l6,4.349a1.565,1.565,0,0,1-1.837,2.535l-5.03-3.644-5.917,4.8a1.556,1.556,0,0,1-.985.349" transform="translate(102.239 45.681)"/>
      <path id="Tracciato_4035" data-name="Tracciato 4035" d="M164.28,68.272c-15.559-1.164-27.631,11.422-37.21,21.409a57.093,57.093,0,0,0-5.7,6.773C101.9,124.131,93.577,154,93.577,154c-6.367,26.694-10.924,45.8.038,58.341,12.132,13.879,37.678,13.307,45.127,13.136,11-.246,10.775-2.471,19.944-2.448,27.926.074,44.639,20.754,49.618,16.294,4.148-3.718-10.4-15.449-8.886-35.547,1.132-15.092,10.643-25.922,11.448-41.672a56.147,56.147,0,0,1,1.292-11.22c1.811-7.909,4.729-10.739,3.779-21.257-1.913-21.179-16.112-35.843-22.79-42.74-9.231-9.534-17.18-17.741-28.867-18.616" transform="translate(45.195 35.431)" fill="#fe196a"/>
      <path id="Tracciato_4036" data-name="Tracciato 4036" d="M202.923,146.48c.5-.922,35.36-47.615,42.594-57.3a3.276,3.276,0,0,1,3.425-1.217L270.1,93.246a3.291,3.291,0,0,1,1.817,5.191l-38.048,49.731Z" transform="translate(105.426 45.651)" fill="#fe196a"/>
      <path id="Tracciato_4037" data-name="Tracciato 4037" d="M117.394,107.281c1.169-5.337,7.832-33.386,21.305-34.849,9.452-1.026,18.026,11.485,21.711,16.861,17.575,25.641,5.566,44.793,22.131,65.013,2.079,2.539,13.088,15.976,29.2,16.133,13.483.129,28.71-9.055,33.375-21.353,3.161-8.33.536-15.619,6.668-20.5,2.778-2.211,4.281-1.485,11.27-5.508,6.08-3.5,8.806-6.274,9.708-5.546,1.716,1.38-7.26,12.068-4.657,15.347,3.27,4.118,21.362-7.815,23.886-4.457,1.811,2.41-4.791,12.172-14.106,17.336a34.468,34.468,0,0,1-16.94,4.165c-4.034,10.494-15.952,37.192-44.685,54.792-11.39,6.978-30.736,18.827-51.4,14.08-38.747-8.9-56.5-70.262-47.469-111.51" transform="translate(59.789 37.601)" fill="#fff"/>
      <path id="Tracciato_4038" data-name="Tracciato 4038" d="M175.216,221.992a45.245,45.245,0,0,1-10.161-1.14c-18.315-4.206-33.5-20.046-42.766-44.6-8.3-21.991-10.5-47.7-5.881-68.773,1.767-8.076,8.626-34.545,22.665-36.069,10.368-1.14,19.342,11.945,23.168,17.528,9.063,13.22,10.482,25.024,11.732,35.439,1.223,10.17,2.38,19.777,10.319,29.47,4.714,5.756,14.618,15.431,28.01,15.56,13.29.176,27.593-9,31.9-20.342a35.108,35.108,0,0,0,1.816-8.712c.547-4.657,1.065-9.056,5.34-12.462a13.6,13.6,0,0,1,4.267-2.237,42.471,42.471,0,0,0,7.2-3.405c2.422-1.395,4.273-2.653,5.761-3.664,2.753-1.871,4.27-2.9,5.71-1.746,1.746,1.406.441,3.849-1.536,7.548-1.208,2.266-3.724,6.978-2.876,8.046,1,1.266,7.686-1.352,11.275-2.759,5.993-2.348,10.725-4.2,12.636-1.664a3.79,3.79,0,0,1,.482,3.173c-.948,4.443-7.233,12.123-15.08,16.473a35.366,35.366,0,0,1-16.627,4.353c-5.455,13.79-18.317,38.26-44.942,54.57-9.81,6.008-25.159,15.41-42.407,15.41M140.353,74.475a8.463,8.463,0,0,0-.941.05c-12.272,1.331-18.769,28.245-19.947,33.626-4.489,20.5-2.339,45.551,5.753,67C134.1,198.69,148.5,213.836,165.757,217.8c20.044,4.606,38.94-6.972,50.23-13.887,26.493-16.229,38.967-40.81,44.044-54.02a1.567,1.567,0,0,1,1.462-1c.077,0,.158,0,.236,0a32.456,32.456,0,0,0,15.945-3.971c8.892-4.929,13.9-13.259,13.607-14.984-1.231-.384-6.064,1.51-8.984,2.655-6.391,2.5-12.428,4.869-14.87,1.792-2.126-2.677.261-7.145,2.57-11.466.383-.719.833-1.562,1.207-2.32-.286.19-.579.389-.862.582-1.45.985-3.434,2.334-5.958,3.787a45.686,45.686,0,0,1-7.665,3.626,10.715,10.715,0,0,0-3.411,1.752c-3.267,2.6-3.671,6.036-4.182,10.38a38.091,38.091,0,0,1-2,9.455c-4.73,12.471-20.354,22.488-34.854,22.363-14.665-.143-25.341-10.529-30.4-16.706-8.52-10.4-9.727-20.445-11.006-31.081C169.6,114.2,168.288,103.3,159.66,90.713c-3.381-4.932-11.129-16.238-19.307-16.238m-22.416,33.342h0Z" transform="translate(59.246 37.065)"/>
      <path id="Tracciato_4039" data-name="Tracciato 4039" d="M197.937,31.348c.649,3.165,1.409,4.524,1.758,7.317.708,5.682-3.872,17.09,0,23.322-1.834,3.455-4.5,1.877-6.756,2.814-.514,2.01-4.925,9.757-7.128,14.895a3.865,3.865,0,0,1-4.648,2.191,34.082,34.082,0,0,1-9.524-4.679s-8.309,15.147-2.354,39.775c0,0-24.8-19.526-31.374-25.967-3.9-3.817-2.421-2.342,3.291-8.5s15-28.054,15-28.054c-.324-.538-4.472-7.669-1.111-13.144,1.235-2.012,3.969-4.592,6.11-3.889,2.088.688,3.477,4.46,2.407,9.257a27.4,27.4,0,0,0,3.5-2.244c1.788-1.29,3.65-2.913,3.945-4.247,18.238,7.993,16.49-17.388,26.879-8.844" transform="translate(70.519 15.361)" fill="#fff"/>
      <path id="Tracciato_4040" data-name="Tracciato 4040" d="M169.821,119.085a1.559,1.559,0,0,1-.969-.336c-1.015-.8-24.94-19.652-31.5-26.08-1.792-1.755-2.677-2.623-2.646-3.931.029-1.246.912-2.033,2.246-3.223a49.035,49.035,0,0,0,3.639-3.531c4.9-5.286,12.776-23.133,14.408-26.9-1.17-2.223-4-8.683-.7-14.053,1.469-2.395,4.794-5.589,7.932-4.556,2.449.807,3.89,3.879,3.849,7.7q.335-.237.656-.47c3.006-2.167,3.307-3.2,3.332-3.314a1.564,1.564,0,0,1,2.156-1.1c8.8,3.86,12.123-.792,15.335-5.288,1.86-2.6,3.616-5.065,6.35-5.426,1.749-.231,3.563.456,5.56,2.1a1.56,1.56,0,0,1,.538.893c.269,1.313.558,2.295.836,3.244a24.377,24.377,0,0,1,.942,4.2c.286,2.291-.181,5.265-.676,8.412-.8,5.069-1.7,10.813.453,14.276a1.566,1.566,0,0,1,.053,1.559c-1.643,3.1-4,3.194-5.729,3.265a10.06,10.06,0,0,0-1.193.094c-.512,1.295-1.527,3.3-2.975,6.145-1.363,2.671-2.907,5.7-3.933,8.087a5.413,5.413,0,0,1-6.537,3.073,34.923,34.923,0,0,1-8.409-3.867c-1.814,4.391-6.159,17.812-1.5,37.1a1.565,1.565,0,0,1-1.521,1.933M137.976,88.831c.307.371.93.98,1.536,1.574,5.007,4.9,20.842,17.6,27.865,23.182-4.171-22.383,3.092-35.995,3.424-36.6a1.564,1.564,0,0,1,2.261-.535,32.66,32.66,0,0,0,9.088,4.467,2.287,2.287,0,0,0,2.756-1.31c1.065-2.484,2.635-5.562,4.019-8.275a60.637,60.637,0,0,0,3.033-6.388,1.569,1.569,0,0,1,.913-1.059,8.077,8.077,0,0,1,2.883-.5c1.211-.05,1.978-.082,2.656-.928-2.149-4.384-1.222-10.284-.4-15.53a31.8,31.8,0,0,0,.661-7.541,21.476,21.476,0,0,0-.839-3.7c-.245-.833-.517-1.763-.776-2.93a4.079,4.079,0,0,0-2.743-1.08c-1.387.184-2.761,2.106-4.215,4.141-3.053,4.276-7.6,10.644-17.75,6.9a15.94,15.94,0,0,1-3.788,3.522,29.371,29.371,0,0,1-3.717,2.374,1.565,1.565,0,0,1-2.229-1.74c.965-4.329-.357-7.1-1.369-7.429-.957-.318-3.091,1.276-4.285,3.22-2.9,4.729.953,11.243,1.117,11.518a1.562,1.562,0,0,1,.1,1.419c-.384.9-9.467,22.217-15.3,28.507a52.329,52.329,0,0,1-3.851,3.74c-.386.343-.808.72-1.058.979" transform="translate(69.984 14.825)"/>
      <path id="Tracciato_4041" data-name="Tracciato 4041" d="M152.208,53.184A22.887,22.887,0,0,0,162.547,64.6Z" transform="translate(79.078 27.631)" fill="#fff"/>
      <path id="Tracciato_4042" data-name="Tracciato 4042" d="M163.082,66.7a1.57,1.57,0,0,1-.732-.182,24.343,24.343,0,0,1-11.082-12.278A1.566,1.566,0,0,1,154.22,53.2a21.532,21.532,0,0,0,9.6,10.555,1.566,1.566,0,0,1-.734,2.949" transform="translate(78.543 27.096)"/>
    </g>
  </g>
</svg>
