<svg id="Raggruppa_2002" data-name="Raggruppa 2002" xmlns="http://www.w3.org/2000/svg" xmlns:xlink="http://www.w3.org/1999/xlink" width="89.866" height="259.799" viewBox="0 0 89.866 259.799">
  <defs>
    <clipPath id="clip-path">
      <rect id="Rettangolo_365" data-name="Rettangolo 365" width="89.866" height="259.799" fill="none"/>
    </clipPath>
  </defs>
  <path id="Tracciato_4073" data-name="Tracciato 4073" d="M28.339,524.7l-2.27,15.938-5.808.022-.274-15.675Z" transform="translate(-11.317 -297.099)" fill="#fff"/>
  <g id="Raggruppa_2001" data-name="Raggruppa 2001">
    <g id="Raggruppa_2000" data-name="Raggruppa 2000" clip-path="url(#clip-path)">
      <path id="Tracciato_4074" data-name="Tracciato 4074" d="M19.411,540.458a.651.651,0,0,1-.651-.639l-.273-15.675a.651.651,0,0,1,.629-.662l8.352-.285a.65.65,0,0,1,.666.742l-2.27,15.938a.65.65,0,0,1-.642.559l-5.809.022Zm.388-15.7.251,14.394,4.6-.018,2.081-14.612Z" transform="translate(-10.468 -296.25)"/>
      <path id="Tracciato_4075" data-name="Tracciato 4075" d="M17.816,571.662A53.74,53.74,0,0,1,7.607,571.6a2.8,2.8,0,0,1-2.5-3.252c.7-4.326,2.67-11.956,5.767-15.457l1.531,2.181.908-2.253c.146-.243,4-.4,4.076.053l.234,2.2,2.185-2.449-.119,8.041a12.111,12.111,0,0,0,.25,2.644l.574,2.78a5.29,5.29,0,0,1-1.251,4.692,2.528,2.528,0,0,1-1.443.878" transform="translate(-2.869 -312.891)" fill="#fff"/>
      <path id="Tracciato_4076" data-name="Tracciato 4076" d="M12.558,571.686c-1.636,0-3.583-.073-5.854-.273a3.392,3.392,0,0,1-2.4-1.31,3.487,3.487,0,0,1-.686-2.695c.185-1.14,1.928-11.269,5.922-15.784a.65.65,0,0,1,1.019.058l.843,1.2.46-1.142a.789.789,0,0,1,.046-.092c.479-.8,4.087-.5,4.326-.454.21.039.848.157.949.728,0,.015,0,.03.006.045l.079.741,1.208-1.353a.651.651,0,0,1,1.136.443l-.12,8.041a11.6,11.6,0,0,0,.237,2.5l.574,2.78a5.932,5.932,0,0,1-1.413,5.269,3.116,3.116,0,0,1-1.848,1.08l-.069-.647.069.647a42.237,42.237,0,0,1-4.48.216M9.986,553.135C7.243,556.82,5.511,563.852,4.9,567.617a2.183,2.183,0,0,0,.429,1.687,2.1,2.1,0,0,0,1.49.813,52.7,52.7,0,0,0,10.083.059,1.962,1.962,0,0,0,1.038-.676,4.63,4.63,0,0,0,1.088-4.115l-.574-2.78a12.863,12.863,0,0,1-.264-2.786l.094-6.3-1.023,1.146a.65.65,0,0,1-1.133-.364l-.2-1.847a13.736,13.736,0,0,0-2.974.043l-.8,1.978a.651.651,0,0,1-1.136.13Z" transform="translate(-2.021 -312.051)"/>
      <path id="Tracciato_4077" data-name="Tracciato 4077" d="M16.556,589.636a33.809,33.809,0,0,1-5.842-.519.651.651,0,0,1,.226-1.281,28.557,28.557,0,0,0,9.584.193.651.651,0,0,1,.259,1.275,23.067,23.067,0,0,1-4.226.331" transform="translate(-5.762 -332.846)"/>
      <path id="Tracciato_4078" data-name="Tracciato 4078" d="M21.439,576.212H16.17a.651.651,0,0,1,0-1.3h5.269a.651.651,0,0,1,0,1.3" transform="translate(-8.787 -325.533)"/>
      <path id="Tracciato_4079" data-name="Tracciato 4079" d="M135.352,525.928,137.4,544.5l7.813,1.636-.476-21.781Z" transform="translate(-76.641 -296.908)" fill="#fff"/>
      <path id="Tracciato_4080" data-name="Tracciato 4080" d="M144.36,545.942a.637.637,0,0,1-.134-.014l-7.814-1.636a.651.651,0,0,1-.513-.566l-2.044-18.576a.651.651,0,0,1,.54-.713l9.382-1.569a.651.651,0,0,1,.758.627l.476,21.781a.651.651,0,0,1-.651.665m-7.219-2.827,6.55,1.372-.442-20.211-8.033,1.344Z" transform="translate(-75.791 -296.06)"/>
      <path id="Tracciato_4081" data-name="Tracciato 4081" d="M132.355,575.208c-.172-3.255-.176-9.25,1.806-12.139l6.251,2.226v-1.336a.779.779,0,0,1,.7-.807l3.486-.2a7.578,7.578,0,0,1,3.785.779c3.5,1.723,14.166,6.143,15.645,11.111a2.36,2.36,0,0,1-2.238,2.975c-3.509.1-11.946.211-27.086-.307a2.433,2.433,0,0,1-2.347-2.3" transform="translate(-74.904 -318.754)" fill="#fff"/>
      <path id="Tracciato_4082" data-name="Tracciato 4082" d="M153.945,577.7c-4.654,0-11.23-.089-20.113-.393a3.066,3.066,0,0,1-2.975-2.918c-.178-3.38-.166-9.5,1.919-12.542a.651.651,0,0,1,.755-.245l5.382,1.916v-.413a1.43,1.43,0,0,1,1.312-1.457l3.486-.2a8.264,8.264,0,0,1,4.11.845c.417.205.937.448,1.53.727,4.567,2.142,13.068,6.13,14.451,10.783a2.9,2.9,0,0,1-.443,2.54,3.092,3.092,0,0,1-2.4,1.271c-1.505.043-3.8.085-7.013.085m-21.789-3.38a1.772,1.772,0,0,0,1.719,1.687c14.976.512,23.373.412,27.045.307a1.782,1.782,0,0,0,1.383-.733,1.606,1.606,0,0,0,.25-1.406c-1.218-4.094-9.687-8.066-13.757-9.976-.6-.282-1.128-.529-1.551-.737a6.956,6.956,0,0,0-3.461-.713l-3.486.2c-.03,0-.085.063-.085.157v1.336a.651.651,0,0,1-.869.613l-5.755-2.05c-1.182,2.135-1.7,6.2-1.434,11.316" transform="translate(-74.056 -317.905)"/>
      <path id="Tracciato_4083" data-name="Tracciato 4083" d="M155.667,588.879a149.552,149.552,0,0,1-16.989-.956.651.651,0,0,1,.15-1.293,143.825,143.825,0,0,0,24.4.731.651.651,0,1,1,.1,1.3c-.056,0-3,.219-7.654.219" transform="translate(-78.198 -332.166)"/>
      <path id="Tracciato_4084" data-name="Tracciato 4084" d="M165.426,572.212a.65.65,0,0,1-.38-.122l-6.017-4.328a.651.651,0,1,1,.76-1.056l6.017,4.328a.651.651,0,0,1-.38,1.179" transform="translate(-89.894 -320.817)"/>
      <path id="Tracciato_4085" data-name="Tracciato 4085" d="M67.725,219.071s11.2,86.1,8.814,137.38l-3.494.35a37.759,37.759,0,0,1-5.655.14l-3.314-.167s-13.357-87.165-20.026-100.1c0,0-18.138,78.54-18.837,97.308,0,0-8.062.81-11.275-.346-1.726-18.113-2.225-46.125-2.311-57.895-.247-33.686,2.972-48.988,4.737-56.247,1.621-6.666,3.36-12.082,4.63-15.747l4.241-12.1Z" transform="translate(-6.576 -119.843)"/>
      <path id="Tracciato_4086" data-name="Tracciato 4086" d="M85.988,305.422a.666.666,0,0,1-.116-.01.651.651,0,0,1-.525-.755l1.04-5.793q.006-.029.013-.057a5.662,5.662,0,0,1,4.333-4.062l1.743-.36a.651.651,0,1,1,.263,1.274l-1.743.36a4.365,4.365,0,0,0-3.333,3.1l-1.035,5.763a.651.651,0,0,1-.639.536" transform="translate(-48.32 -166.682)" fill="#fe196a"/>
      <path id="Tracciato_4087" data-name="Tracciato 4087" d="M33,282.729a.651.651,0,0,1-.106-1.293c9.582-1.6,11.485-8.873,11.562-9.182a.651.651,0,0,1,1.264.308c-.02.084-2.156,8.416-12.612,10.158a.656.656,0,0,1-.108.009" transform="translate(-18.318 -153.878)" fill="#fe196a"/>
      <path id="Tracciato_4088" data-name="Tracciato 4088" d="M133.947,269.256a.647.647,0,0,1-.259-.054,9.53,9.53,0,0,1-6.011-8.6.651.651,0,0,1,1.3.048,8.089,8.089,0,0,0,5.23,7.358.651.651,0,0,1-.26,1.247" transform="translate(-72.294 -147.207)" fill="#fe196a"/>
      <path id="Tracciato_4089" data-name="Tracciato 4089" d="M17.637,245.439c-1.018,3.483-2.615,8.3-.848,10.614,3.213,4.2,5.878,3.53,9.844,2.083,7.931-2.891,20.588-7.459,24.284-4.92l.164-7.777Z" transform="translate(-9.058 -138.975)"/>
      <path id="Tracciato_4090" data-name="Tracciato 4090" d="M56.461,73.493A17.147,17.147,0,0,1,71.95,83.071c3.339,6.817,8.052,24.658,8.236,32.45.321,13.619-11.609,14.386-11.963,14.406a.008.008,0,0,0-.007.009c.037.393,1.431,15.192,1.541,17.819.2,4.8-8.71,12.3-18.945,8.608-10.184-3.675-38.005-11-40.831-4.762a.007.007,0,1,1-.014,0l11.671-43.3a.008.008,0,0,0-.008-.01l-9.58.463h0l-7.8-4.512a.008.008,0,0,1,0-.009l1.976-8.752C9.968,80.523,20.01,73.662,32.97,73.6Z" transform="translate(-2.4 -41.614)" fill="#0cf"/>
      <path id="Tracciato_4091" data-name="Tracciato 4091" d="M30.2,135.426c-1.791-.331-1.3-2.407-7.593-2.782-18.156-1.082-9.357-10.3,1.044-8.544,3.448.582,4.8,2.812,6.1,3.378,10.882,4.748,4.019,8.608.449,7.948" transform="translate(-6.859 -70.143)" fill="#fff"/>
      <path id="Tracciato_4092" data-name="Tracciato 4092" d="M30.2,135.294a5.337,5.337,0,0,1-.971-.085,3.31,3.31,0,0,1-1.659-.92c-.783-.681-1.855-1.614-5.854-1.852-6.134-.366-9.891-1.686-10.864-3.819a2.819,2.819,0,0,1,.471-2.975c1.648-2.144,6.267-3.939,11.584-3.041a10.022,10.022,0,0,1,5.069,2.567,5.912,5.912,0,0,0,1.182.856c5.927,2.586,6.625,4.913,6.166,6.409-.541,1.765-3.013,2.86-5.125,2.86M20.189,123.676c-3.588,0-6.689,1.269-7.833,2.76a1.543,1.543,0,0,0-.32,1.642c.273.6,1.782,2.585,9.758,3.06,4.442.265,5.707,1.366,6.631,2.169a2.09,2.09,0,0,0,1.041.622c1.671.309,4.208-.546,4.615-1.876.416-1.359-1.618-3.167-5.442-4.836a6.632,6.632,0,0,1-1.5-1.051,8.781,8.781,0,0,0-4.451-2.281,15.036,15.036,0,0,0-2.5-.209" transform="translate(-6.01 -69.287)"/>
      <path id="Tracciato_4093" data-name="Tracciato 4093" d="M79.926,52.977a.919.919,0,0,0-.508-1.6l-1.231-.148a3.452,3.452,0,0,1-2.856-2.256L73.3,33.993,69.144,35.48l-5.5-2.721.492,16a3.424,3.424,0,0,1-2.3,3.109l-1.608.575a.967.967,0,0,0-.065,1.808c3.275,1.428,16.588,1.438,19.762-1.277" transform="translate(-33.731 -18.549)" fill="#fff"/>
      <path id="Tracciato_4094" data-name="Tracciato 4094" d="M67.361,55c-3.584,0-6.882-.377-8.306-1a1.617,1.617,0,0,1,.107-3.017l1.608-.575a2.76,2.76,0,0,0,1.864-2.515L62.141,31.93a.651.651,0,0,1,.939-.6l5.256,2.6,3.9-1.394a.65.65,0,0,1,.864.525l2.019,14.906a2.784,2.784,0,0,0,2.3,1.767l1.231.148a1.564,1.564,0,0,1,1.327,1.115,1.533,1.533,0,0,1-.474,1.63C77.52,54.316,72.182,55,67.361,55M63.475,32.973l.459,14.919a4.062,4.062,0,0,1-2.726,3.742L59.6,52.21a.318.318,0,0,0-.227.295.308.308,0,0,0,.2.3c3.312,1.444,16.238,1.256,19.079-1.175a.236.236,0,0,0,.075-.264.275.275,0,0,0-.237-.2l-1.231-.148a4.077,4.077,0,0,1-3.392-2.685.666.666,0,0,1-.031-.13l-1.921-14.18-3.4,1.217a.652.652,0,0,1-.507-.029Zm15.6,19.155h0Z" transform="translate(-32.882 -17.7)"/>
      <path id="Tracciato_4095" data-name="Tracciato 4095" d="M79.422,6.669c7.087,2.61,5.869,7.2,5.869,7.2a19.421,19.421,0,0,0,.1,4.409c.194.691,1.326,1.991,1.381,2.375s-.559,1.171-1.786,1.451c0,0-.466,6.129-2.073,7.133s-7.795-.923-7.795-.923l-1.041-.417a10.914,10.914,0,0,1-6.378-7.6S63.182.69,79.422,6.669" transform="translate(-38.005 -3.134)" fill="#fff"/>
      <path id="Tracciato_4096" data-name="Tracciato 4096" d="M80.521,29.319a26.246,26.246,0,0,1-6.456-1.234l-.049-.017-1.041-.417a11.541,11.541,0,0,1-6.761-8.028c-.1-.437-2.25-10.037,2.214-13.97,2.261-1.992,5.747-2.14,10.364-.441,7.037,2.591,6.419,7.226,6.29,7.893a18.8,18.8,0,0,0,.076,4.147,6.378,6.378,0,0,0,.72,1.209,3.45,3.45,0,0,1,.678,1.251c.1.69-.567,1.6-1.82,2.042-.158,1.682-.724,6.176-2.338,7.184a3.672,3.672,0,0,1-1.877.381M74.476,26.85c2.453.761,6.3,1.565,7.232.985.906-.566,1.591-4.291,1.768-6.631a.651.651,0,0,1,.5-.585,1.979,1.979,0,0,0,1.261-.75c-.087-.161-.293-.462-.438-.673a6.374,6.374,0,0,1-.9-1.593,20.27,20.27,0,0,1-.118-4.63.647.647,0,0,1,.02-.121c.04-.16.932-4.063-5.465-6.418-4.133-1.522-7.18-1.456-9.054.2C65.4,10.055,67.453,19.208,67.474,19.3a10.267,10.267,0,0,0,5.986,7.142Z" transform="translate(-37.15 -2.287)"/>
      <path id="Tracciato_4097" data-name="Tracciato 4097" d="M74.106.216c1.863.455,3.685,1.618,4.647,1.721C80.306,2.1,81.427.11,83.388.833A4.57,4.57,0,0,1,86.327,4.59a3.745,3.745,0,0,1,.025.88c-.364,4.183-2.981,5.071-4.044,5.261,0,0-6.154-.57-7.355-.278-1.123.272-2.859,2.02-3.381,4.5a.753.753,0,0,1-1.474-.034c-.206-1.193-.768-3.577-1.979-3.647-1.412-.082-3.211,2.709-1.364,4.459a1.108,1.108,0,0,1-.349,1.813,2.057,2.057,0,0,1-2.181-.406s-3.643-6.386-1.905-11.777S71.627-.39,74.106.216" transform="translate(-35.022 0)"/>
      <path id="Tracciato_4098" data-name="Tracciato 4098" d="M109.758,32.055a.651.651,0,0,1-.442-1.128,3.248,3.248,0,0,0,.688-2.06,4.11,4.11,0,0,0-.249-1.741c-.151-.357-.314-.482-.365-.485h0c-.134,0-.562.442-.757,1.467a.651.651,0,0,1-1.279-.243c.3-1.583,1.134-2.575,2.105-2.524a1.809,1.809,0,0,1,1.5,1.278,5.38,5.38,0,0,1,.35,2.315,4.419,4.419,0,0,1-1.1,2.947.651.651,0,0,1-.443.174" transform="translate(-60.779 -14.348)"/>
      <path id="Tracciato_4099" data-name="Tracciato 4099" d="M98.643,32.349l-.094,0a2.228,2.228,0,0,1-1.787-1.267,4.67,4.67,0,0,1-.509-2.463c.1-2.02,1.272-3.546,2.668-3.475a2.229,2.229,0,0,1,1.787,1.267,4.667,4.667,0,0,1,.508,2.463c-.1,1.974-1.224,3.477-2.574,3.477M96.9,28.65l.65.033a3.4,3.4,0,0,0,.349,1.768.988.988,0,0,0,.714.6h.025c.553,0,1.21-.944,1.277-2.243a3.4,3.4,0,0,0-.349-1.767.987.987,0,0,0-.714-.6c-.567-.026-1.234.925-1.3,2.242Z" transform="translate(-54.498 -14.235)"/>
      <path id="Tracciato_4100" data-name="Tracciato 4100" d="M88.589,29.248l-.059,0-6.762-.606a.651.651,0,1,1,.116-1.3l6.762.606a.651.651,0,0,1-.057,1.3" transform="translate(-45.964 -15.481)"/>
      <path id="Tracciato_4101" data-name="Tracciato 4101" d="M73.413,73.448s2.633,4.13,5,3.4c1.246-.383,2.463-4.457,2.96-4.6a9.676,9.676,0,0,0,6.477-4.54c1.737-3.1,1.358-4.759.91-5.52a1.049,1.049,0,0,1,.025-1.123,2.063,2.063,0,0,0,.319-2,1.064,1.064,0,0,1,.009-.844c.441-1.027,1.258-3.391-.33-3.857a1.064,1.064,0,0,0-1.157.4A11.476,11.476,0,0,1,84.773,57.6c-1.84,1.17-2.942,1.971-3.867,2.5-.792.452-1.209-3.5-3.113-4.985-1.689-1.318-2.264-.651-2.433-.032s.877.865,1.473,3.811a21.044,21.044,0,0,1-.243,7.9c-.248,1.82-3.177,6.658-3.177,6.658" transform="translate(-41.569 -30.761)" fill="#fff"/>
      <path id="Tracciato_4102" data-name="Tracciato 4102" d="M76.981,76.738c-2.472,0-4.7-3.369-4.967-3.79a.651.651,0,0,1-.008-.687c.8-1.314,2.9-5.027,3.089-6.409.035-.257.084-.55.138-.876a18.091,18.091,0,0,0,.113-6.808,7.044,7.044,0,0,0-1.112-2.831,1.487,1.487,0,0,1-.351-1.279,1.555,1.555,0,0,1,.985-1.134c.671-.223,1.48.046,2.476.824A8.747,8.747,0,0,1,79.623,57.5c.129.329.292.745.421,1,.426-.259.907-.579,1.486-.963s1.237-.822,2.044-1.336a10.786,10.786,0,0,0,2.68-2.667,1.713,1.713,0,0,1,1.868-.639,1.836,1.836,0,0,1,1.185.993c.5,1.073.039,2.629-.44,3.745a.413.413,0,0,0-.011.326,2.673,2.673,0,0,1-.377,2.622.4.4,0,0,0,0,.428c.6,1.014.922,2.907-.9,6.169a10.156,10.156,0,0,1-6.664,4.789l-.059.017a13.114,13.114,0,0,0-.594,1.188c-.825,1.774-1.532,3.155-2.5,3.451a2.63,2.63,0,0,1-.778.117m-3.647-4.162c.8,1.124,2.642,3.231,4.043,2.8.486-.149,1.335-1.976,1.7-2.756.546-1.174.8-1.71,1.271-1.849l.2-.058a8.88,8.88,0,0,0,5.89-4.175c1.6-2.866,1.263-4.283.917-4.873a1.687,1.687,0,0,1,.047-1.817,1.4,1.4,0,0,0,.262-1.369,1.718,1.718,0,0,1,.007-1.362,4.015,4.015,0,0,0,.458-2.678.535.535,0,0,0-.373-.3.412.412,0,0,0-.448.154,12.106,12.106,0,0,1-3.035,3c-.8.508-1.458.946-2.023,1.322-.743.494-1.331.884-1.871,1.192a.88.88,0,0,1-.738.071c-.558-.2-.825-.879-1.229-1.911a7.834,7.834,0,0,0-1.868-3.2c-.921-.718-1.251-.62-1.265-.615-.043.014-.09.088-.125.193.033.064.106.175.167.268a8.3,8.3,0,0,1,1.3,3.29,19.232,19.232,0,0,1-.1,7.28c-.052.311-.1.592-.132.838-.227,1.664-2.328,5.327-3.05,6.549" transform="translate(-40.719 -29.911)"/>
      <path id="Tracciato_4103" data-name="Tracciato 4103" d="M40.521,95.99l-7.974-5.081s-10.78,17.43-18.944,23.347c-3.975,2.88-11.685-.506-11.685-.506s-7.4,28.45,6.886,32.517c23.8,6.775,31.718-50.276,31.718-50.276" transform="translate(0 -51.476)" fill="#0cf"/>
      <path id="Tracciato_4104" data-name="Tracciato 4104" d="M108.212,186.362c-9.017,0-21.624-6.955-30.788-13.781a.651.651,0,1,1,.778-1.044c9.118,6.792,22.856,14.388,31.567,13.442a.651.651,0,0,1,.141,1.294,15.8,15.8,0,0,1-1.7.088" transform="translate(-43.692 -97.057)" fill="#fe196a"/>
      <path id="Tracciato_4105" data-name="Tracciato 4105" d="M101.193,138.9c-5.081,0-14.319-4.325-14.749-4.527A.651.651,0,0,1,87,133.2c3.124,1.472,11.964,5.112,15.328,4.289,6.707-1.643,5.151-10.043,5.081-10.4a.651.651,0,1,1,1.277-.249c.019.1,1.849,9.978-6.049,11.913a6.1,6.1,0,0,1-1.443.152" transform="translate(-48.736 -71.522)" fill="#fe196a"/>
      <path id="Tracciato_4106" data-name="Tracciato 4106" d="M28.9,114.7a.651.651,0,0,1-.39-1.172c8.539-6.382,19.157-23.952,19.264-24.129a.65.65,0,1,1,1.115.67c-.439.73-10.855,17.965-19.6,24.5a.649.649,0,0,1-.39.13" transform="translate(-15.995 -50.443)" fill="#fe196a"/>
      <path id="Tracciato_4107" data-name="Tracciato 4107" d="M26.147,150.648c-.319,0-.639-.013-.963-.042a.651.651,0,0,1,.112-1.3C42.963,150.837,52.726,104.2,53.721,99.2l-3.1-1.975a.651.651,0,1,1,.7-1.1l3.477,2.214a.651.651,0,0,1,.29.668c-.4,2.142-9.844,51.644-28.937,51.644" transform="translate(-13.924 -54.37)" fill="#fe196a"/>
    </g>
  </g>
</svg>
