<svg xmlns="http://www.w3.org/2000/svg" width="21.002" height="21.007" viewBox="0 0 21.002 21.007">
  <g id="Icon_awesome-paper-plane" data-name="Icon awesome-paper-plane" transform="translate(1.999 2.002)" fill="none">
    <path d="M15.809.105.416,8.986A.8.8,0,0,0,.489,10.42L4.019,11.9,13.56,3.493a.2.2,0,0,1,.286.276l-8,9.747v2.673a.8.8,0,0,0,1.411.525l2.109-2.567L13.5,15.88a.8.8,0,0,0,1.1-.6L16.991.929A.8.8,0,0,0,15.809.105Z" stroke="none"/>
    <path d="M 16.20265960693359 -0.002161026000976562 C 16.07122993469238 -0.002162933349609375 15.93626594543457 0.03129005432128906 15.80851554870605 0.1051349639892578 L 0.4155063629150391 8.98558521270752 C -0.1856040954589844 9.330975532531738 -0.1092243194580078 10.16787528991699 0.4885654449462891 10.42027568817139 L 4.018825531005859 11.90145492553711 L 13.56016540527344 3.492595672607422 C 13.74282646179199 3.329854965209961 14.00186634063721 3.578936576843262 13.84577560424805 3.768235206604004 L 5.845396041870117 13.5154857635498 L 5.845396041870117 16.18891525268555 C 5.845396041870117 16.97268486022949 6.791895866394043 17.28154563903809 7.2568359375 16.71364593505859 L 9.365695953369141 14.14648532867432 L 13.50371551513672 15.88006591796875 C 13.97529602050781 16.07932472229004 14.5133056640625 15.78374576568604 14.5996561050415 15.27563571929932 L 16.99080657958984 0.9287548065185547 C 17.07860946655273 0.4070625305175781 16.66231536865234 -0.002157211303710938 16.20265960693359 -0.002161026000976562 M 16.20265579223633 -2.002164840698242 L 16.20269584655762 -2.002164840698242 C 17.02855682373047 -2.002143859863281 17.80939674377441 -1.638923645019531 18.34500503540039 -1.005624771118164 C 18.87476539611816 -0.3792343139648438 19.10004615783691 0.4468059539794922 18.96306610107422 1.260685920715332 L 16.57138633728027 15.61074542999268 C 16.34172630310059 16.96201515197754 15.18088626861572 17.94277572631836 13.81117630004883 17.94277572631836 C 13.43789291381836 17.94277572631836 13.07361507415771 17.86906242370605 12.7283763885498 17.72366142272949 L 9.966073989868164 16.56642532348633 L 8.802255630493164 17.9831657409668 C 8.27138614654541 18.63160514831543 7.485626220703125 19.00497627258301 6.648566246032715 19.00497627258301 C 5.931455612182617 19.00497627258301 5.249125480651855 18.73571586608887 4.727286338806152 18.24680519104004 C 4.158596038818359 17.7139949798584 3.845396041870117 16.98315620422363 3.845396041870117 16.18891525268555 L 3.845396041870117 13.99759674072266 L -0.2852249145507812 12.26452541351318 C -1.275623321533203 11.84635543823242 -1.928823471069336 10.92411613464355 -1.994073867797852 9.855955123901367 C -2.059314727783203 8.787785530090332 -1.517814636230469 7.78980541229248 -0.5808944702148438 7.251465797424316 L 14.80908584594727 -1.62724494934082 C 15.2328462600708 -1.872215270996094 15.71526622772217 -2.002164840698242 16.20265579223633 -2.002164840698242 Z" stroke="none" fill="#fff"/>
  </g>
</svg>
