<svg id="Raggruppa_1905" data-name="Raggruppa 1905" xmlns="http://www.w3.org/2000/svg" xmlns:xlink="http://www.w3.org/1999/xlink" width="95.792" height="239.799" viewBox="0 0 95.792 239.799">
  <defs>
    <clipPath id="clip-path">
      <rect id="Rettangolo_341" data-name="Rettangolo 341" width="95.792" height="239.799" fill="none"/>
    </clipPath>
  </defs>
  <path id="Tracciato_176" data-name="Tracciato 176" d="M178.975,520.338l2.171,15.239,5.554.021.262-14.988Z" transform="translate(-107.078 -311.311)" fill="#fff"/>
  <g id="Raggruppa_1904" data-name="Raggruppa 1904">
    <g id="Raggruppa_1903" data-name="Raggruppa 1903" clip-path="url(#clip-path)">
      <path id="Tracciato_177" data-name="Tracciato 177" d="M185.8,535.3h0l-5.554-.021a.6.6,0,0,1-.594-.517l-2.171-15.239a.6.6,0,0,1,.617-.687l7.986.272a.6.6,0,0,1,.582.613l-.262,14.988a.6.6,0,0,1-.6.592m-5.031-1.224,4.439.017.241-13.8-6.676-.228Z" transform="translate(-106.181 -310.413)"/>
      <path id="Tracciato_178" data-name="Tracciato 178" d="M179.911,567.374a51.43,51.43,0,0,0,9.761-.055,2.678,2.678,0,0,0,2.394-3.11c-.673-4.136-2.553-11.432-5.514-14.779l-1.464,2.085-.868-2.155c-.14-.233-3.821-.386-3.9.051l-.224,2.1-2.089-2.342.114,7.689a11.619,11.619,0,0,1-.239,2.528l-.549,2.658a5.056,5.056,0,0,0,1.2,4.486,2.418,2.418,0,0,0,1.38.84" transform="translate(-106.031 -328.538)" fill="#fff"/>
      <path id="Tracciato_179" data-name="Tracciato 179" d="M183.23,567.291a40.418,40.418,0,0,1-4.282-.206,2.96,2.96,0,0,1-1.755-1.026,5.653,5.653,0,0,1-1.347-5.02l.549-2.658a11.06,11.06,0,0,0,.227-2.4l-.115-7.689a.6.6,0,0,1,1.052-.41l1.184,1.327.08-.752c0-.014,0-.027.006-.041.094-.534.695-.644.892-.681.228-.042,3.663-.33,4.116.425a.553.553,0,0,1,.042.085l.454,1.126.826-1.177a.6.6,0,0,1,.944-.053c3.815,4.312,5.481,13.992,5.658,15.082a3.316,3.316,0,0,1-.652,2.561,3.221,3.221,0,0,1-2.285,1.246c-2.171.191-4.033.261-5.6.261m-4.153-1.4a50.446,50.446,0,0,0,9.644-.057,2.03,2.03,0,0,0,1.439-.785,2.106,2.106,0,0,0,.413-1.627c-.587-3.609-2.25-10.357-4.884-13.878l-1.006,1.433a.6.6,0,0,1-1.052-.121l-.766-1.9a12.908,12.908,0,0,0-2.876-.041l-.19,1.781a.6.6,0,0,1-1.048.337l-1.014-1.135.091,6.073a12.278,12.278,0,0,1-.252,2.659l-.549,2.658a4.448,4.448,0,0,0,1.045,3.952,1.9,1.9,0,0,0,1,.653" transform="translate(-105.132 -327.65)"/>
      <path id="Tracciato_180" data-name="Tracciato 180" d="M187.067,587.259a22.061,22.061,0,0,1-4.037-.317.6.6,0,0,1,.239-1.181,27.439,27.439,0,0,0,9.172-.184.6.6,0,1,1,.208,1.187,32.347,32.347,0,0,1-5.583.5" transform="translate(-109.215 -350.336)"/>
      <path id="Tracciato_181" data-name="Tracciato 181" d="M193.518,573.437H188.48a.6.6,0,1,1,0-1.205h5.039a.6.6,0,1,1,0,1.205" transform="translate(-112.404 -342.358)"/>
      <path id="Tracciato_182" data-name="Tracciato 182" d="M65.706,521.49l-1.954,17.762-7.471,1.564.455-20.826Z" transform="translate(-33.672 -311.102)" fill="#fff"/>
      <path id="Tracciato_183" data-name="Tracciato 183" d="M55.383,540.521a.6.6,0,0,1-.6-.616l.455-20.827a.6.6,0,0,1,.7-.581l8.971,1.5a.6.6,0,0,1,.5.66l-1.954,17.762a.6.6,0,0,1-.475.524l-7.471,1.564a.592.592,0,0,1-.124.013m1.042-20.72L56,539.174l6.3-1.32,1.844-16.761Z" transform="translate(-32.774 -310.205)"/>
      <path id="Tracciato_184" data-name="Tracciato 184" d="M37.509,571.554c.164-3.112.168-8.845-1.727-11.607l-5.977,2.128V560.8a.746.746,0,0,0-.668-.772l-3.333-.191a7.25,7.25,0,0,0-3.62.745c-3.351,1.647-13.546,5.873-14.959,10.624a2.257,2.257,0,0,0,2.14,2.845c3.355.1,11.422.2,25.9-.293a2.327,2.327,0,0,0,2.244-2.2" transform="translate(-4.27 -334.934)" fill="#fff"/>
      <path id="Tracciato_185" data-name="Tracciato 185" d="M15.158,573.835c-3.072,0-5.266-.041-6.706-.082a2.934,2.934,0,0,1-2.279-1.207,2.748,2.748,0,0,1-.421-2.412c1.321-4.441,9.444-8.252,13.809-10.3.567-.266,1.063-.5,1.462-.695a7.872,7.872,0,0,1,3.92-.805l3.333.191a1.347,1.347,0,0,1,1.236,1.373v.423l5.172-1.841a.6.6,0,0,1,.7.227c1.99,2.9,2,8.751,1.832,11.98a2.913,2.913,0,0,1-2.826,2.772c-8.492.29-14.781.375-19.231.375m9.348-14.307a6.7,6.7,0,0,0-2.952.694c-.4.2-.907.435-1.482.7-3.894,1.827-12,5.628-13.165,9.551a1.555,1.555,0,0,0,.242,1.362,1.725,1.725,0,0,0,1.338.709c3.512.1,11.54.2,25.861-.293a1.714,1.714,0,0,0,1.663-1.631c.258-4.9-.244-8.8-1.382-10.845l-5.519,1.965a.6.6,0,0,1-.8-.568V559.9c0-.1-.059-.168-.1-.17l-3.333-.191c-.122-.007-.244-.01-.367-.01m12.106,11.128h0Z" transform="translate(-3.373 -334.037)"/>
      <path id="Tracciato_186" data-name="Tracciato 186" d="M23.367,586.443c-4.453,0-7.262-.206-7.316-.21a.6.6,0,1,1,.091-1.2,137.5,137.5,0,0,0,23.33-.7.6.6,0,1,1,.139,1.2,142.945,142.945,0,0,1-16.244.914" transform="translate(-9.27 -349.595)"/>
      <path id="Tracciato_187" data-name="Tracciato 187" d="M38.809,568.977a.6.6,0,0,1-.352-1.092l5.753-4.138a.6.6,0,0,1,.7.979l-5.753,4.138a.6.6,0,0,1-.351.113" transform="translate(-22.858 -337.213)"/>
      <path id="Tracciato_188" data-name="Tracciato 188" d="M60.915,226.271s-10.71,73.467-8.428,122.5l3.341.334a36.062,36.062,0,0,0,5.407.134l3.169-.159s12.772-74.488,19.149-86.857c0,0,17.343,66.241,18.011,84.186,0,0,7.709.775,10.781-.331,1.65-17.319,2.127-35.246,2.209-46.5.236-32.21-2.842-46.842-4.529-53.782-1.549-6.373-3.213-11.553-4.426-15.056l-4.055-11.567Z" transform="translate(-31.212 -131.129)" fill="#0cf"/>
      <path id="Tracciato_189" data-name="Tracciato 189" d="M58.535,348.992c-1.222,0-2.447-.061-3.659-.182l-3.341-.334a.6.6,0,0,1-.542-.572c-2.259-48.531,8.326-121.882,8.434-122.617a.6.6,0,0,1,.493-.507l40.629-7.1a.6.6,0,0,1,.672.394l4.055,11.567c1.71,4.935,3.2,10.019,4.443,15.113,2.06,8.471,4.771,23.277,4.546,53.929-.069,9.44-.448,28.04-2.212,46.553a.6.6,0,0,1-.4.51c-3.164,1.138-10.725.4-11.046.364a.6.6,0,0,1-.542-.577c-.6-16.1-14.891-72.064-17.565-82.41-6.457,15.775-18.276,84.442-18.4,85.16a.6.6,0,0,1-.564.5l-3.169.159q-.916.046-1.839.046m-6.362-1.664,2.823.282a35.656,35.656,0,0,0,5.317.131L63,347.607c1.2-6.948,12.975-74.626,19.125-86.556a.6.6,0,0,1,1.118.123c.172.657,17.036,65.24,18.006,83.786,1.68.14,7.017.506,9.641-.231,1.727-18.336,2.1-36.7,2.169-46.051.224-30.518-2.468-45.227-4.512-53.635-1.229-5.058-2.713-10.1-4.41-15l-3.886-11.083-39.7,6.933c-.869,6.113-10.451,74.967-8.384,121.436" transform="translate(-30.319 -130.232)"/>
      <path id="Tracciato_190" data-name="Tracciato 190" d="M120.3,316.106a.6.6,0,0,1-.58-.443l-1.782-6.484a4.194,4.194,0,0,0-3.209-3.009l-1.667-.345a.6.6,0,0,1,.244-1.18l1.667.345a5.394,5.394,0,0,1,4.128,3.87l1.781,6.484a.6.6,0,0,1-.421.741.593.593,0,0,1-.16.022" transform="translate(-67.353 -182.257)"/>
      <path id="Tracciato_191" data-name="Tracciato 191" d="M172.27,287.563a.605.605,0,0,1-.1-.008c-9.985-1.664-12.024-9.618-12.044-9.7a.6.6,0,0,1,1.171-.284c.074.3,1.9,7.265,11.071,8.794a.6.6,0,0,1-.1,1.2" transform="translate(-95.791 -165.792)"/>
      <path id="Tracciato_192" data-name="Tracciato 192" d="M71.844,277.955A.6.6,0,0,1,71.6,276.8a7.754,7.754,0,0,0,5.012-7.054.6.6,0,0,1,.581-.622.59.59,0,0,1,.623.578,9.093,9.093,0,0,1-5.736,8.2.6.6,0,0,1-.24.05" transform="translate(-42.622 -161.012)"/>
      <path id="Tracciato_193" data-name="Tracciato 193" d="M30.568,82.248c7.083-.8,22.2-2.231,32.6-1.28a21.022,21.022,0,0,1,10.059,4.265c7.033,6.07,20.3,19.436,22.519,35.475a4.54,4.54,0,0,1-3.519,5.048l-12.259,2.717s4.888,19.262,4.494,22.588S73.946,160.048,61.28,155.4c-9.877-3.621-23.855-6.5-32.729-3.376-.084.03-.934,6.849-1.022,6.862-2.849.415-5.721-.695-5.653-4.7l1.351-20.8L6.981,131.245l-1.451-.483A8.075,8.075,0,0,1,.562,120.149C4.379,110.433,10.137,94.706,20.8,86.02c2.281-1.858,6.84-3.442,9.764-3.772" transform="translate(0 -48.254)"/>
      <path id="Tracciato_194" data-name="Tracciato 194" d="M40.006,184.072H14.618a2.4,2.4,0,0,1-2.329-1.822L3.505,146.833a2.4,2.4,0,0,1,2.329-2.977H31.222a2.4,2.4,0,0,1,2.329,1.822L42.335,181.1a2.4,2.4,0,0,1-2.329,2.977" transform="translate(-2.054 -86.067)" fill="#139cbe"/>
      <path id="Tracciato_195" data-name="Tracciato 195" d="M8.877,187.275l.853,3.574,3.069-1.022a23.883,23.883,0,0,0,4.839-2.238L19.4,186.52a2.417,2.417,0,0,1,3.533,1.276c1.086,3.082.871,8.244-10.184,11.486-6.1,1.79-7.849-6.027-7.059-10.37A3.643,3.643,0,0,1,7,186.645a1.18,1.18,0,0,1,1.881.63" transform="translate(-3.297 -111.383)" fill="#fff"/>
      <path id="Tracciato_196" data-name="Tracciato 196" d="M10.148,199.247a4.908,4.908,0,0,1-3.367-1.287c-2.467-2.219-3.177-6.836-2.592-10.053a4.228,4.228,0,0,1,1.523-2.63,1.782,1.782,0,0,1,2.842.95l0,.009.7,2.934,2.445-.814a23.337,23.337,0,0,0,4.717-2.182l1.761-1.067a3.02,3.02,0,0,1,4.414,1.591,7.016,7.016,0,0,1-.286,5.654c-1.436,2.8-4.9,5.027-10.3,6.611a6.624,6.624,0,0,1-1.863.283M6.823,186.091a.567.567,0,0,0-.357.128,3.056,3.056,0,0,0-1.091,1.905c-.534,2.936.147,7.083,2.211,8.941a4.047,4.047,0,0,0,4.085.743c5.067-1.486,8.285-3.506,9.564-6a5.764,5.764,0,0,0,.221-4.7,1.823,1.823,0,0,0-1.109-1.118,1.8,1.8,0,0,0-1.543.156l-1.761,1.068a24.562,24.562,0,0,1-4.961,2.295l-3.069,1.022a.6.6,0,0,1-.776-.432l-.852-3.568a.567.567,0,0,0-.376-.4.579.579,0,0,0-.186-.031" transform="translate(-2.391 -110.486)"/>
      <path id="Tracciato_197" data-name="Tracciato 197" d="M135.12,134.212a19.482,19.482,0,0,0,4.294,3.315c5.33,3.035,18.063,10.382,21.23,13.089,4.035,3.448,5.966,4.733,2.723,13.6-5.287,14.458-29.937-22.657-29.937-22.657s-7.24,1.309-8.866-5.035c0,0-3.773.708-5.346.027a1.475,1.475,0,0,1,.456-2.794l10.414-1.942a4.4,4.4,0,0,1,3.92,1.257Z" transform="translate(-70.826 -78.824)" fill="#fff"/>
      <path id="Tracciato_198" data-name="Tracciato 198" d="M158.557,167.267c-8.55,0-24.225-22.849-26.317-25.956-1.566.163-7.272.366-9-5-1.161.18-3.783.49-5.156-.1a2.067,2.067,0,0,1-1.179-2.19,2.032,2.032,0,0,1,1.792-1.754l10.388-1.937a5,5,0,0,1,4.462,1.428l1.111,1.138a18.88,18.88,0,0,0,4.162,3.213c5.343,3.042,18.117,10.414,21.323,13.155l.355.3c3.883,3.307,5.832,4.967,2.542,13.965-.822,2.246-2.151,3.494-3.951,3.707a4.484,4.484,0,0,1-.528.031m-26.024-27.2a.6.6,0,0,1,.5.269c4.829,7.269,18.614,25.729,25.489,25.731a3.593,3.593,0,0,0,.419-.024c1.33-.158,2.3-1.114,2.961-2.924,3-8.21,1.482-9.5-2.191-12.634l-.358-.3c-3.128-2.673-15.823-10-21.137-13.024a20.1,20.1,0,0,1-4.427-3.418L132.68,132.6a3.791,3.791,0,0,0-3.383-1.084l-10.41,1.941a.825.825,0,0,0-.791.728.866.866,0,0,0,.465.922c1.15.5,4,.121,4.995-.066a.6.6,0,0,1,.695.443c1.465,5.717,7.9,4.64,8.176,4.591a.632.632,0,0,1,.106-.009" transform="translate(-69.928 -77.927)"/>
      <path id="Tracciato_199" data-name="Tracciato 199" d="M84.709,9.8a5.414,5.414,0,0,0-.63.26,3.123,3.123,0,0,0-.956,1.141c-.456.837-1.217,3.423-2.206,3.271s-2.206-4.184-2.206-4.184-.38-1.978-3.424-1.218a24.8,24.8,0,0,0-6.314,2.587,4.3,4.3,0,0,1-2.663.609c-.913-.076-3.881-1.826-3.348-4.641a5.829,5.829,0,0,1,5.4-4.717c2.376.012,5.781-1.522,6.39-1.826S78.945-.693,80.9.4a8.271,8.271,0,0,1,4,5.173,8.4,8.4,0,0,1,.063,3.771c-.021.2-.058.392-.249.456" transform="translate(-37.631 0)"/>
      <path id="Tracciato_200" data-name="Tracciato 200" d="M75.835,25.57a.165.165,0,0,0-.086.157,19.544,19.544,0,0,1-.156,4.12c-.161.956-.774,3.282-.516,3.761s1.217.516,1.659.479,1.18.148,1.364.516.738,3.8.958,4.609a2.113,2.113,0,0,0,2.323,1.622c.175-.019.685-.133,1.08-.226a.51.51,0,0,1,.619.416c.655,4.165-3.554,8.857-4.566,9.928a.221.221,0,0,0,.072.353c9.333,4.073,18.934-2.958,21.557-5.144a13.385,13.385,0,0,1-7.3-7.226c-1.055-2.538-.7-6.486-.74-8.055a.791.791,0,0,1,.458-.741,3.986,3.986,0,0,0,1.813-2.206c.38-1.369.229-5.736-3.39-3.986a3.12,3.12,0,0,0-.955,1.141c-.457.837-1.217,3.423-2.207,3.271s-2.206-4.184-2.206-4.184-.38-1.978-3.423-1.217a31.194,31.194,0,0,0-6.358,2.612" transform="translate(-44.879 -13.632)" fill="#fff"/>
      <path id="Tracciato_201" data-name="Tracciato 201" d="M83.778,52.268a15.67,15.67,0,0,1-6.329-1.309.823.823,0,0,1-.27-1.318c1.174-1.243,4.936-5.564,4.423-9.32a9.735,9.735,0,0,1-1.054.215,2.717,2.717,0,0,1-2.969-2.063c-.1-.378-.262-1.23-.431-2.131-.156-.832-.389-2.076-.483-2.358a1.361,1.361,0,0,0-.777-.194c-.291.024-1.759.1-2.24-.794-.268-.5-.116-1.411.269-3.234.075-.356.143-.677.183-.913a19.145,19.145,0,0,0,.149-3.98.768.768,0,0,1,.4-.727,31.825,31.825,0,0,1,6.5-2.667,3.935,3.935,0,0,1,3.127.256A2.352,2.352,0,0,1,85.3,23.124a10.506,10.506,0,0,0,1.721,3.736c.362-.138.951-1.534,1.176-2.067.15-.357.28-.664.4-.891a3.683,3.683,0,0,1,1.171-1.367l.051-.028c1.667-.805,2.683-.417,3.243.05,1.307,1.091,1.289,3.56.989,4.639a4.55,4.55,0,0,1-2.141,2.592.19.19,0,0,0-.108.178c.008.329,0,.745-.009,1.227-.037,1.872-.092,4.7.7,6.613a12.394,12.394,0,0,0,6.714,6.764c.323.141.578.253.628.6l.047.333-.26.219c-2.149,1.791-8.548,6.542-15.854,6.542m-5.348-2.207c8.181,3.216,16.426-2.125,19.7-4.669a13.483,13.483,0,0,1-6.735-7.124c-.893-2.146-.834-5.126-.8-7.1.009-.465.017-.866.009-1.173a1.392,1.392,0,0,1,.808-1.3,3.405,3.405,0,0,0,1.484-1.82c.221-.8.21-2.716-.6-3.392-.413-.345-1.055-.313-1.909.092a2.812,2.812,0,0,0-.727.905c-.094.173-.219.469-.351.782-.56,1.329-1.258,2.984-2.476,2.8-1.187-.183-2.2-2.964-2.691-4.606l-.015-.061a1.164,1.164,0,0,0-.519-.656,2.908,2.908,0,0,0-2.167-.09,29.847,29.847,0,0,0-5.972,2.426,19.69,19.69,0,0,1-.18,3.978c-.042.248-.113.587-.192.962a13.006,13.006,0,0,0-.374,2.426,1.984,1.984,0,0,0,1.065.152,2.1,2.1,0,0,1,1.954.847,16.254,16.254,0,0,1,.591,2.684c.157.839.32,1.706.41,2.036a1.533,1.533,0,0,0,1.677,1.181c.029,0,.215-.028,1.007-.213a1.113,1.113,0,0,1,1.352.909C83.4,44,79.988,48.324,78.429,50.061m-3.7-17.591Zm.723-7.685v0m-.515-.113h0Z" transform="translate(-43.982 -12.733)"/>
      <path id="Tracciato_202" data-name="Tracciato 202" d="M93.3,63.535a.6.6,0,0,1-.17-1.181,19,19,0,0,0,4.423-2.045.6.6,0,1,1,.662,1.007,20.391,20.391,0,0,1-4.745,2.194.613.613,0,0,1-.171.025" transform="translate(-55.457 -36.023)"/>
    </g>
  </g>
</svg>
