<svg id="Raggruppa_1902" data-name="Raggruppa 1902" xmlns="http://www.w3.org/2000/svg" xmlns:xlink="http://www.w3.org/1999/xlink" width="93.239" height="224.286" viewBox="0 0 93.239 224.286">
  <defs>
    <clipPath id="clip-path">
      <rect id="Rettangolo_340" data-name="Rettangolo 340" width="93.239" height="224.286" fill="none"/>
    </clipPath>
  </defs>
  <g id="Raggruppa_1901" data-name="Raggruppa 1901" clip-path="url(#clip-path)">
    <path id="Tracciato_142" data-name="Tracciato 142" d="M53.689,29.1a14.8,14.8,0,0,0-14.437-3.692c-5.567,1.612-8.245,6.459-10.134,9.877-3.339,6.042-1.565,8.179-4.228,11.7C20.173,53.224,12.347,49.511,6.5,54.11-2.414,61.125-2.91,84.417,9.735,93.062c8.432,5.765,19.537,2.154,22.558,1.171,9.169-2.982,20.438-11.058,21.75-21.762C55.127,63.62,49,56.378,53.694,48.893c1.2-1.906,2.219-2.436,3.076-4.808,1.391-3.853,1.526-10.3-3.081-14.986" transform="translate(0 -15.75)"/>
    <path id="Tracciato_143" data-name="Tracciato 143" d="M93.76,14.6c2.055-1.727.561-6.688-.875-9.353-.538-1-2.947-5.469-5.919-5.242-3.053.233-5.819,5.354-4.6,9.351,1.525,5,8.984,7.268,11.393,5.244" transform="translate(-52.012 0)"/>
    <path id="Tracciato_144" data-name="Tracciato 144" d="M95.809,440.145s52.984,7.632,57.6-2.955c0,0-1.919-7.932-13.8-8.91s-43.8,11.864-43.8,11.864" transform="translate(-60.718 -271.385)"/>
    <path id="Tracciato_145" data-name="Tracciato 145" d="M139.835,380.831s-4.531,27.815-28.716,56.54a35.413,35.413,0,0,0-5.5,9.025l-.831,1.964s-5.683-.982-6.591-3.779,22.028-45.124,22.028-45.124Z" transform="translate(-62.215 -241.347)" fill="#fff"/>
    <path id="Tracciato_146" data-name="Tracciato 146" d="M103.821,447.96a.539.539,0,0,1-.093-.008c-.245-.042-6.021-1.073-7.02-4.151-.191-.588-.638-1.966,10.707-24.032,5.559-10.812,11.3-21.418,11.361-21.523a.527.527,0,0,1,.1-.137l19.609-18.626a.549.549,0,0,1,.92.487c-.045.28-4.833,28.294-28.838,56.806a34.846,34.846,0,0,0-5.413,8.885l-.831,1.964a.55.55,0,0,1-.506.335M119.7,398.845c-8.725,16.105-22.365,42.4-21.944,44.628.6,1.851,4.018,2.943,5.733,3.312l.657-1.553a35.956,35.956,0,0,1,5.585-9.165c20.447-24.286,26.83-48.154,28.254-54.59Z" transform="translate(-61.248 -240.397)"/>
    <path id="Tracciato_147" data-name="Tracciato 147" d="M89.582,544.392l1.28-3.734c5.723-1.994,4.9,2.32,4.8,4.569s3.577,11.077,5.611,12.807.909,4.454.909,4.454-6.907,2.538-12.046-1.113-8.933-18.933-8.933-18.933c2.826-4.87,8.644-6.125,8.644-6.125a7.444,7.444,0,0,0-.267,8.074" transform="translate(-51.463 -339.885)" fill="#0cf"/>
    <path id="Tracciato_148" data-name="Tracciato 148" d="M95.933,562.957a12.036,12.036,0,0,1-7.063-2.083c-5.244-3.726-8.992-18.616-9.149-19.248a.55.55,0,0,1,.058-.408c2.915-5.023,8.756-6.333,9-6.387a.549.549,0,0,1,.55.873,6.806,6.806,0,0,0-.784,6.284l.842-2.458a.55.55,0,0,1,.339-.341c2.078-.724,3.551-.724,4.5,0,1.3.991,1.166,3.016,1.068,4.494-.015.218-.029.426-.037.619-.093,2.112,3.5,10.736,5.418,12.365,2.313,1.967,1.112,4.956,1.06,5.082a.548.548,0,0,1-.318.306,17.349,17.349,0,0,1-5.49.9m-15.09-21.379c.485,1.865,4.074,15.14,8.663,18.4,4.324,3.072,10.063,1.514,11.3,1.124a3.357,3.357,0,0,0-.836-3.6c-2.18-1.854-5.909-10.855-5.8-13.25.009-.2.023-.417.039-.644.086-1.3.193-2.914-.638-3.547-.585-.445-1.7-.417-3.222.08l-1.193,3.478a.55.55,0,0,1-.467.368.544.544,0,0,1-.529-.273,7.969,7.969,0,0,1-.4-7.426,13.455,13.455,0,0,0-6.912,5.288" transform="translate(-50.512 -338.935)"/>
    <path id="Tracciato_149" data-name="Tracciato 149" d="M87.076,559.632a36.285,36.285,0,0,1-3.757-13.765,11.45,11.45,0,0,0-2.114,2.628S85,563.776,90.138,567.428s12.046,1.113,12.046,1.113a4.938,4.938,0,0,0,.28-2.21c-9.678,2.089-11.542.338-15.388-6.7" transform="translate(-51.463 -345.937)"/>
    <path id="Tracciato_150" data-name="Tracciato 150" d="M106.122,560.278a3.374,3.374,0,0,0-1.189-2.244c-2.035-1.731-5.71-10.558-5.611-12.807s.921-6.563-4.8-4.569l-1.28,3.734a7.444,7.444,0,0,1,.268-8.074,15.5,15.5,0,0,0-6.53,3.5,36.274,36.274,0,0,0,3.756,13.765c3.846,7.037,5.71,8.789,15.388,6.7" transform="translate(-55.121 -339.885)" fill="#0cf"/>
    <path id="Tracciato_151" data-name="Tracciato 151" d="M99.107,560.681c-5.017,0-6.915-2.5-9.806-7.789A36.473,36.473,0,0,1,85.48,538.91a.55.55,0,0,1,.173-.449,15.925,15.925,0,0,1,6.788-3.632.55.55,0,0,1,.551.874,6.8,6.8,0,0,0-.784,6.284l.842-2.458a.549.549,0,0,1,.339-.341c2.078-.724,3.551-.725,4.5,0,1.3.991,1.167,3.016,1.068,4.494-.015.218-.029.426-.037.619-.093,2.112,3.5,10.736,5.418,12.365a3.9,3.9,0,0,1,1.378,2.6.55.55,0,0,1-.43.6,30.117,30.117,0,0,1-6.18.816M86.6,539.086a35.858,35.858,0,0,0,3.668,13.279c3.583,6.555,5.079,8.441,14.264,6.536a2.8,2.8,0,0,0-.9-1.4c-2.18-1.855-5.909-10.855-5.8-13.25.009-.2.023-.417.038-.644.086-1.3.194-2.914-.637-3.547-.585-.445-1.7-.417-3.222.08l-1.193,3.478a.55.55,0,0,1-1,.1,7.969,7.969,0,0,1-.4-7.427,14.971,14.971,0,0,0-4.816,2.8" transform="translate(-54.17 -338.934)"/>
    <path id="Tracciato_152" data-name="Tracciato 152" d="M106.11,569.673a.55.55,0,0,1-.524-.386,78.686,78.686,0,0,1-2.247-9.564.549.549,0,1,1,1.085-.173,77.647,77.647,0,0,0,2.211,9.41.55.55,0,0,1-.524.713" transform="translate(-65.486 -354.315)"/>
    <path id="Tracciato_153" data-name="Tracciato 153" d="M125,473.052c-.4-.178.468-5.251-.284-7.4S115.272,444,114.694,423.637s17.087-16.558,17.087-16.558-5.012,47.456,5.465,63.584c0,0-3.5,6.248-12.245,2.389" transform="translate(-72.677 -257.803)" fill="#fff"/>
    <path id="Tracciato_154" data-name="Tracciato 154" d="M129.359,473.887a13.7,13.7,0,0,1-5.53-1.3c-.512-.226-.481-.792-.381-2.665a16.549,16.549,0,0,0-.2-5.057c-.076-.217-.245-.642-.481-1.231-6.007-15.032-9.228-28.809-9.573-40.949-.187-6.6,1.5-11.432,5-14.347,5.2-4.326,12.444-2.829,12.749-2.763a.55.55,0,0,1,.431.595c-.05.472-4.872,47.447,5.379,63.227a.548.548,0,0,1,.019.568,8.7,8.7,0,0,1-7.416,3.922m-4.866-2.208c7.1,3.024,10.392-.874,11.152-1.981-9.759-15.635-5.952-57.713-5.414-63.13-1.666-.244-7.284-.755-11.339,2.621-3.23,2.689-4.778,7.22-4.6,13.466.341,12.01,3.536,25.661,9.495,40.573.25.624.414,1.036.5,1.276a17.071,17.071,0,0,1,.26,5.479c-.033.615-.073,1.355-.052,1.7" transform="translate(-71.727 -256.837)"/>
    <path id="Tracciato_155" data-name="Tracciato 155" d="M167.842,582.16a6.418,6.418,0,0,0-1.673-2.4c-2.495-2.287-14.78-10.04-14.78-10.04s-6.141.891-3.183,5.029c0,0-6.371-1.361-7.917-.959-1.135.3-1.034,6.089-.9,9.147a1.94,1.94,0,0,0,1.941,1.854h24.7a1.937,1.937,0,0,0,1.816-2.629" transform="translate(-88.286 -361.053)" fill="#0cf"/>
    <path id="Tracciato_156" data-name="Tracciato 156" d="M165.068,584.388h-24.7a2.486,2.486,0,0,1-2.489-2.379c-.406-9.256.753-9.558,1.31-9.7,1.248-.325,5,.327,6.98.712a2.832,2.832,0,0,1-.077-2.279c.852-2,4.118-2.494,4.257-2.514a.548.548,0,0,1,.372.079c.5.318,12.355,7.806,14.858,10.1a6.969,6.969,0,0,1,1.813,2.606,2.462,2.462,0,0,1-.262,2.287,2.5,2.5,0,0,1-2.065,1.092M139.5,573.362c-.327.318-.791,2.461-.522,8.6a1.388,1.388,0,0,0,1.391,1.328h24.7a1.383,1.383,0,0,0,1.158-.612,1.348,1.348,0,0,0,.146-1.267,5.888,5.888,0,0,0-1.533-2.2c-2.269-2.08-13.009-8.908-14.524-9.868-.889.168-2.743.727-3.21,1.826a2.422,2.422,0,0,0,.589,2.306.549.549,0,0,1-.561.857c-2.39-.511-6.546-1.219-7.631-.972" transform="translate(-87.328 -360.102)"/>
    <path id="Tracciato_157" data-name="Tracciato 157" d="M139.524,605.718c0,.01,0,.021,0,.032a1.939,1.939,0,0,0,1.94,1.854h24.7a1.948,1.948,0,0,0,1.947-1.885Z" transform="translate(-88.422 -383.867)"/>
    <path id="Tracciato_158" data-name="Tracciato 158" d="M177.341,588.338a.548.548,0,0,1-.223-.048L165.235,583a.549.549,0,1,1,.447-1l11.883,5.29a.55.55,0,0,1-.224,1.052" transform="translate(-104.509 -368.804)"/>
    <path id="Tracciato_159" data-name="Tracciato 159" d="M88.272,209.285a713.227,713.227,0,0,0-16.526,95.463s13.458,5.128,38.292-6.468,28.12-.975,28.12-.975L115.525,207.5Z" transform="translate(-45.468 -131.499)" fill="#fff"/>
    <path id="Tracciato_160" data-name="Tracciato 160" d="M79.5,305.506a26.8,26.8,0,0,1-8.9-1.2.549.549,0,0,1-.351-.568A720.213,720.213,0,0,1,86.789,208.2a.55.55,0,0,1,.5-.411L114.539,206a.557.557,0,0,1,.568.414l22.633,89.807a.549.549,0,0,1-1.057.3,5.832,5.832,0,0,0-3.37-3.125c-3.423-1.49-10.364-1.929-23.994,4.435-13.289,6.206-23.308,7.679-29.824,7.679m-8.109-2.1c2.388.7,15.486,3.686,37.468-6.578,14.056-6.564,21.33-6.027,24.956-4.421a8.547,8.547,0,0,1,2.182,1.371l-21.838-86.655-26.4,1.731A722.054,722.054,0,0,0,71.387,303.41" transform="translate(-44.518 -130.55)"/>
    <path id="Tracciato_161" data-name="Tracciato 161" d="M142.837,107.615s9.84-.209,16.957,5.762,18.445,18.1,20.355,28.148-11.5,8.414-17.995,1.977-19.317-35.887-19.317-35.887" transform="translate(-90.521 -68.199)" fill="#0cf"/>
    <path id="Tracciato_162" data-name="Tracciato 162" d="M87.686,113.444a42.579,42.579,0,0,1,29.483-3.834l13.992,31.115a4.064,4.064,0,0,1-1.8,5.262c-4.752,2.511-15.026,5.965-32.457,2.665a6.645,6.645,0,0,1-5.351-5.665Z" transform="translate(-55.57 -68.752)" fill="#0cf"/>
    <path id="Tracciato_163" data-name="Tracciato 163" d="M225.752,149.387s5.125,16.541,4.647,19.737-1.246,7.085-5.513,4.42-2.728-19.716-2.728-19.716Z" transform="translate(-140.619 -94.672)" fill="#fff"/>
    <path id="Tracciato_164" data-name="Tracciato 164" d="M226.35,174.033a5.359,5.359,0,0,1-2.745-.974c-4.426-2.764-3.144-18.452-2.984-20.232a.551.551,0,0,1,.12-.3l3.594-4.44a.549.549,0,0,1,.952.183c.211.681,5.157,16.7,4.665,19.981-.357,2.385-.844,4.777-2.5,5.543a2.59,2.59,0,0,1-1.1.236M221.7,153.092c-.413,4.774-.74,17.02,2.486,19.035,1.2.75,2.142.975,2.8.672,1.163-.536,1.579-2.711,1.877-4.707.353-2.355-2.762-13.353-4.326-18.507Z" transform="translate(-139.63 -93.722)"/>
    <path id="Tracciato_165" data-name="Tracciato 165" d="M210.129,142.379l-.963-.37,7.072-20.273,7.279-1.327.963.37Z" transform="translate(-132.557 -76.307)" fill="#fff"/>
    <path id="Tracciato_166" data-name="Tracciato 166" d="M219.074,141.692l-7.279,1.327,7.072-20.273,7.279-1.327Z" transform="translate(-134.223 -76.948)"/>
    <path id="Tracciato_167" data-name="Tracciato 167" d="M181.1,157.134a.549.549,0,0,1-.512-.35l-7.425-19.052a.549.549,0,0,1,1.024-.4l7.424,19.052a.55.55,0,0,1-.512.749" transform="translate(-109.714 -86.812)"/>
    <path id="Tracciato_168" data-name="Tracciato 168" d="M97.751,152.975a20.042,20.042,0,0,1-7.059-.343c-12.855-3.041-8.949-23.667-8.949-23.667L73,122.021C55.812,140.972,67.156,164.1,85.3,166.895a27.235,27.235,0,0,0,16.547-2.648c-5.121-3.825-4.917-8.435-4.1-11.272" transform="translate(-40.879 -77.329)" fill="#0cf"/>
    <path id="Tracciato_169" data-name="Tracciato 169" d="M181.222,154.314l-1.147-3.408-4.983,7.8,1.191-3.6a7.33,7.33,0,0,0-2.362,2.2c-.938,1.412-1.7,5.365-1.745,5.6-2.2,1.822-9.471,7.353-17.873,8.373-.82,2.837-1.488,7.085,3.633,10.911,11.1-5.5,17.737-16.361,17.737-16.361,4.895-3.565,5.549-11.515,5.549-11.515" transform="translate(-97.431 -95.635)" fill="#fff"/>
    <path id="Tracciato_170" data-name="Tracciato 170" d="M157.008,181.79a.547.547,0,0,1-.329-.11c-5.276-3.941-4.713-8.453-3.832-11.5a.549.549,0,0,1,.462-.393c8.1-.984,15.22-6.312,17.437-8.127.183-.918.894-4.261,1.789-5.608a7.851,7.851,0,0,1,2.561-2.382.549.549,0,0,1,.794.363l2.793-4.372a.549.549,0,0,1,.983.12l1.147,3.408a.547.547,0,0,1,.027.22c-.027.333-.725,8.153-5.687,11.851-.69,1.085-7.343,11.235-17.9,16.473a.549.549,0,0,1-.244.058m-3.2-10.962c-.768,2.859-.959,6.463,3.262,9.767,10.648-5.418,17.143-15.9,17.208-16a.546.546,0,0,1,.145-.158c4.335-3.158,5.213-10.058,5.314-11.008l-.744-2.21-4.365,6.832a.549.549,0,0,1-.985-.468l.633-1.914a6.24,6.24,0,0,0-.825.99,20.64,20.64,0,0,0-1.663,5.4.551.551,0,0,1-.189.32c-2.057,1.7-9.35,7.291-17.792,8.448" transform="translate(-96.503 -94.684)"/>
    <path id="Tracciato_171" data-name="Tracciato 171" d="M113.767,185.643c-12.33,0-19.315-12.349-19.389-12.483a.549.549,0,0,1,.961-.532c.077.138,7.825,13.794,21.215,11.7a.549.549,0,1,1,.17,1.086,19.092,19.092,0,0,1-2.958.233" transform="translate(-59.767 -109.221)"/>
    <path id="Tracciato_172" data-name="Tracciato 172" d="M111.306,84.715l.258,6.513,5.468,1.093s-3.292,6.7-17.835,2.945l5.182-3.422,1.339-8.947Z" transform="translate(-62.865 -52.535)" fill="#fff"/>
    <path id="Tracciato_173" data-name="Tracciato 173" d="M106.3,96.016a32.916,32.916,0,0,1-8.2-1.168.549.549,0,0,1-.166-.99l4.977-3.287,1.3-8.7a.549.549,0,0,1,.713-.441l5.588,1.818a.549.549,0,0,1,.379.5l.241,6.081,5.044,1.008a.55.55,0,0,1,.386.781c-.111.227-2.28,4.4-10.271,4.4M99.6,94.08c10.327,2.354,14.341-.9,15.551-2.335l-4.646-.928a.55.55,0,0,1-.441-.517l-.243-6.13-4.608-1.5-1.243,8.3a.546.546,0,0,1-.241.377Z" transform="translate(-61.914 -51.585)"/>
    <path id="Tracciato_174" data-name="Tracciato 174" d="M121.89,56.608c-1.466-3.881-5.088-3.4-6.739-2.631s-1.289.209-3.163,1.186-.361,2.353.017,3.473-1.784,0-2.555.511c-.509.337-.6,1.122.113,2.057a4.3,4.3,0,0,0,1.662,1.332c1.026,3.391,4.672,6.208,7.691,5.07,3.04-1.146,3.023-10.862,2.973-11" transform="translate(-69.11 -33.872)" fill="#fff"/>
    <path id="Tracciato_175" data-name="Tracciato 175" d="M116.534,67.46a5.7,5.7,0,0,1-2.52-.629,8.612,8.612,0,0,1-4.186-4.849,5.037,5.037,0,0,1-1.651-1.4,2.427,2.427,0,0,1-.6-1.879,1.436,1.436,0,0,1,.622-.968,2.711,2.711,0,0,1,1.844-.147c.12.017.272.038.406.052-.076-.166-.174-.344-.277-.53a2.858,2.858,0,0,1-.531-2.172,2.119,2.119,0,0,1,1.145-1.216,6.482,6.482,0,0,1,1.888-.74,5.253,5.253,0,0,0,1.3-.457,6.032,6.032,0,0,1,4.635-.209,5.147,5.147,0,0,1,2.85,3.144h0c.153.406.169,10.4-3.293,11.7a4.59,4.59,0,0,1-1.627.294M109.1,58.6a.616.616,0,0,0-.3.051.335.335,0,0,0-.147.237,1.406,1.406,0,0,0,.393,1.031,3.781,3.781,0,0,0,1.425,1.152.549.549,0,0,1,.326.352,7.577,7.577,0,0,0,3.7,4.423,4.12,4.12,0,0,0,3.274.292c2.34-.882,2.718-8.933,2.627-10.356a4.065,4.065,0,0,0-2.211-2.447,4.975,4.975,0,0,0-3.756.188,6.312,6.312,0,0,1-1.525.534,5.445,5.445,0,0,0-1.615.641,1.107,1.107,0,0,0-.6.56c-.1.335.175.838.442,1.324a5.979,5.979,0,0,1,.442.926.911.911,0,0,1-.109.927c-.346.418-.946.333-1.58.243a6.214,6.214,0,0,0-.782-.076" transform="translate(-68.159 -32.92)"/>
  </g>
</svg>
