<svg xmlns="http://www.w3.org/2000/svg" width="42.021" height="42.021" viewBox="0 0 42.021 42.021">
  <path id="Tracciato_63" data-name="Tracciato 63" d="M370.76-102.626a21.011,21.011,0,0,0-21.01,21.011A21.01,21.01,0,0,0,370.76-60.6a21.01,21.01,0,0,0,21.011-21.01A21.011,21.011,0,0,0,370.76-102.626Zm8.1,29.409a1.273,1.273,0,0,1-1.1.631,1.269,1.269,0,0,1-.641-.174,18.737,18.737,0,0,0-9.86-2.189,24.454,24.454,0,0,0-5.114.675,1.274,1.274,0,0,1-1.564-.891,1.274,1.274,0,0,1,.89-1.563,26.537,26.537,0,0,1,5.64-.763,24.906,24.906,0,0,1,5.433.394,18.348,18.348,0,0,1,5.86,2.138A1.273,1.273,0,0,1,378.859-73.217Zm2.367-4.914a1.506,1.506,0,0,1-1.3.747,1.5,1.5,0,0,1-.759-.205,22.2,22.2,0,0,0-11.68-2.592,28.987,28.987,0,0,0-6.058.8,1.508,1.508,0,0,1-1.851-1.055,1.507,1.507,0,0,1,1.052-1.852,31.427,31.427,0,0,1,6.682-.9,29.471,29.471,0,0,1,6.436.467,21.717,21.717,0,0,1,6.939,2.533A1.505,1.505,0,0,1,381.225-78.131Zm3.052-5.383a1.848,1.848,0,0,1-1.6.915,1.827,1.827,0,0,1-.931-.253c-9.418-5.5-21.634-2.232-21.756-2.2a1.849,1.849,0,0,1-2.273-1.292,1.849,1.849,0,0,1,1.292-2.273,38.46,38.46,0,0,1,8.2-1.108,36.056,36.056,0,0,1,7.895.57,26.646,26.646,0,0,1,8.513,3.108A1.849,1.849,0,0,1,384.277-83.514Z" transform="translate(-349.75 102.626)" fill="#f9fafa"/>
</svg>
