<svg xmlns="http://www.w3.org/2000/svg" xmlns:xlink="http://www.w3.org/1999/xlink" width="36.516" height="39.157" viewBox="0 0 36.516 39.157">
  <defs>
    <clipPath id="clip-path">
      <rect id="Rettangolo_25" data-name="Rettangolo 25" width="36.516" height="39.157" fill="#f9fafa"/>
    </clipPath>
  </defs>
  <g id="Raggruppa_1806" data-name="Raggruppa 1806" clip-path="url(#clip-path)">
    <path id="Tracciato_67" data-name="Tracciato 67" d="M26.071,10.495A13.046,13.046,0,0,0,30.013,13.3a16.14,16.14,0,0,0,4.033,1.273l1.167.209,1.3-6.606L35.3,7.964a10.535,10.535,0,0,1-4.648-2.118A16.5,16.5,0,0,1,26.382.634L26.04,0H19.216V26.136a6.182,6.182,0,1,1-6.182-6.2h2.419V13.088H13.034A13.035,13.035,0,1,0,26.068,26.122V11.578h0Z" transform="translate(0)" fill="#f9fafa" fill-rule="evenodd"/>
  </g>
</svg>
