<svg xmlns="http://www.w3.org/2000/svg" xmlns:xlink="http://www.w3.org/1999/xlink" width="209.157" height="259.799" viewBox="0 0 209.157 259.799">
  <defs>
    <linearGradient id="linear-gradient" x1="0.5" x2="0.5" y2="1" gradientUnits="objectBoundingBox">
      <stop offset="0" stop-color="#0cf"/>
      <stop offset="1" stop-color="#fe196a"/>
    </linearGradient>
    <clipPath id="clip-path">
      <rect id="Rettangolo_364" data-name="Rettangolo 364" width="156.016" height="259.799" fill="none"/>
    </clipPath>
  </defs>
  <g id="Raggruppa_1999" data-name="Raggruppa 1999" transform="translate(-210 -3016.201)">
    <path id="Icon_material-verified-user" data-name="Icon material-verified-user" d="M76.212,1.5,4.5,33.372V81.18c0,44.222,30.6,85.576,71.712,95.616,41.115-10.04,71.712-51.394,71.712-95.616V33.372ZM60.276,128.988,28.4,97.116,39.639,85.881l20.637,20.557,52.509-52.509L124.02,65.244Z" transform="translate(270.234 3081.534)" stroke="#000" stroke-linecap="round" stroke-linejoin="round" stroke-width="2" fill="url(#linear-gradient)"/>
    <g id="Raggruppa_1998" data-name="Raggruppa 1998" transform="translate(210 3016.201)">
      <g id="Raggruppa_1997" data-name="Raggruppa 1997" transform="translate(0)" clip-path="url(#clip-path)">
        <path id="Tracciato_4043" data-name="Tracciato 4043" d="M167.181,203.094s2.224,7.628-30.974,9.485S108.564,205,108.564,205l34.853-10.154Z" transform="translate(-60.979 -109.797)"/>
        <path id="Tracciato_4044" data-name="Tracciato 4044" d="M152.715,484.406c.889-.042-3.035,19.723-3.035,19.723l8.407,1,4.572-22.239Z" transform="translate(-84.344 -272.106)" fill="#fff"/>
        <path id="Tracciato_4045" data-name="Tracciato 4045" d="M157.242,504.939a.669.669,0,0,1-.078,0l-8.407-1a.655.655,0,0,1-.565-.778c1.656-8.337,3.288-17.72,3.154-19.2a.656.656,0,0,1,.425-1.041l9.943-1.517a.655.655,0,0,1,.741.779l-4.572,22.24a.655.655,0,0,1-.641.523m-7.628-2.222,7.108.846,4.261-20.729L152.65,484.1c0,1.094-.287,3.594-1.375,9.736-.656,3.7-1.368,7.383-1.66,8.876m2.287-18.5h0" transform="translate(-83.499 -271.26)"/>
        <path id="Tracciato_4046" data-name="Tracciato 4046" d="M141.032,529.1c.714-4.253,1.814-9.968,2.737-11.129,1.506-1.894,5.6,2.235,5.6,2.235s1.867-6.108,5.911-5.3c3.043.608,13.274,8.034,18.665,13.944a3.02,3.02,0,0,1-2.248,5.042H145.088a4.111,4.111,0,0,1-4.056-4.791" transform="translate(-79.438 -290.103)" fill="#0cf"/>
        <path id="Tracciato_4047" data-name="Tracciato 4047" d="M170.852,533.694H144.243a4.765,4.765,0,0,1-4.7-5.555c1.664-9.911,2.571-11.053,2.87-11.428a1.936,1.936,0,0,1,1.451-.741c1.5-.081,3.362,1.336,4.39,2.235.76-1.818,2.766-5.5,6.311-4.795,3.355.67,13.843,8.469,19.021,14.144a3.675,3.675,0,0,1-2.732,6.139M144,517.277l-.064,0a.63.63,0,0,0-.5.248c-.3.377-1.152,2.186-2.6,10.83h0a3.456,3.456,0,0,0,3.41,4.028h26.609a2.353,2.353,0,0,0,2.173-1.419,2.288,2.288,0,0,0-.409-2.527c-5.325-5.837-15.459-13.174-18.31-13.743-3.417-.682-5.14,4.795-5.156,4.85a.655.655,0,0,1-1.091.27c-.987-.994-2.941-2.539-4.061-2.539m-3.81,10.972h0Z" transform="translate(-78.594 -289.254)"/>
        <path id="Tracciato_4048" data-name="Tracciato 4048" d="M172.962,547.794h-26.43a.655.655,0,1,1,0-1.31h26.43a.655.655,0,1,1,0,1.31" transform="translate(-82.201 -307.941)" fill="#fff"/>
        <path id="Tracciato_4049" data-name="Tracciato 4049" d="M56.9,487.034,47.279,506.1l-5.379-.552,4.782-20.423Z" transform="translate(-23.611 -273.363)" fill="#fff"/>
        <path id="Tracciato_4050" data-name="Tracciato 4050" d="M46.434,505.906a.591.591,0,0,1-.068,0l-5.379-.552a.655.655,0,0,1-.571-.8L45.2,484.126a.653.653,0,0,1,.759-.494l10.214,1.913a.655.655,0,0,1,.464.939l-9.618,19.063a.653.653,0,0,1-.584.36m-4.572-1.782,4.19.43,9.023-17.882-8.743-1.637Z" transform="translate(-22.765 -272.518)"/>
        <path id="Tracciato_4051" data-name="Tracciato 4051" d="M32.972,522.2s-2.733-4.167-7.207-.986c0,0-6.551,14.677-7.877,26.03a3.77,3.77,0,0,0,5.9,3.507c6.2-4.332,15.614-12.75,19.452-25.8,0,0-2.8-4.544-6.244-6.239Z" transform="translate(-10.064 -292.291)" fill="#0cf"/>
        <path id="Tracciato_4052" data-name="Tracciato 4052" d="M20.8,551.245a4.446,4.446,0,0,1-2.285-.64,4.351,4.351,0,0,1-2.121-4.284c1.323-11.32,7.864-26.072,7.93-26.22a.651.651,0,0,1,.219-.267A5.891,5.891,0,0,1,29.1,518.6a5.743,5.743,0,0,1,3.106,1.815l3.513-3.043a.655.655,0,0,1,.718-.093c3.567,1.757,6.393,6.29,6.511,6.482a.653.653,0,0,1,.071.529c-3.788,12.881-12.807,21.331-19.7,26.151a4.4,4.4,0,0,1-2.522.8M25.445,520.8c-.719,1.648-6.528,15.194-7.752,25.673a3.115,3.115,0,0,0,4.877,2.895c6.675-4.664,15.382-12.805,19.113-25.161-.6-.9-2.817-4.072-5.44-5.553l-3.688,3.194a.656.656,0,0,1-.975-.134,4.684,4.684,0,0,0-2.73-1.831,4.558,4.558,0,0,0-3.405.916" transform="translate(-9.22 -291.446)"/>
        <path id="Tracciato_4053" data-name="Tracciato 4053" d="M22.521,556.891a.655.655,0,0,1-.028-1.309c.122-.007,10.243-.771,20.224-21.867a.654.654,0,1,1,1.183.56c-10.381,21.943-20.91,22.6-21.353,22.615h-.026" transform="translate(-12.322 -300.535)" fill="#fff"/>
        <path id="Tracciato_4054" data-name="Tracciato 4054" d="M59.422,333.02l-16.133-.539,22.005-86.974a135.449,135.449,0,0,1,16.937-39.336l33.721-.021s12.439,47.477-10.364,125.61H88.724s6.566-71.285,6.023-91.767c0,0-15.852,58.553-35.325,93.026" transform="translate(-24.393 -116.165)"/>
        <path id="Tracciato_4055" data-name="Tracciato 4055" d="M156.1,276.193a.655.655,0,0,1-.631-.832l5.949-21.151a.654.654,0,0,1,.439-.449l4.557-1.391a.655.655,0,1,1,.382,1.252l-4.214,1.286-5.852,20.806a.655.655,0,0,1-.63.478" transform="translate(-87.592 -142.193)" fill="#fe196a"/>
        <path id="Tracciato_4056" data-name="Tracciato 4056" d="M278,77.594l-12.46,6.726s-7.638,19.92-18.571,21.119-21.748-13.922-21.748-13.922l-7.258,15.527s10.657,16.478,27.557,13.822,21.506-28.043,21.506-28.043a5.461,5.461,0,0,0,5.51-3.506c1.285-3.322.749-5.278.749-5.278s6-3.205,4.716-6.445" transform="translate(-122.82 -43.724)" fill="#fff"/>
        <path id="Tracciato_4057" data-name="Tracciato 4057" d="M241.037,120.962c-14.967,0-24.371-14.252-24.471-14.408a.654.654,0,0,1-.043-.633l7.258-15.528a.655.655,0,0,1,1.125-.1c.107.148,10.712,14.8,21.145,13.653,10.409-1.142,17.956-20.507,18.031-20.7a.656.656,0,0,1,.3-.342l12.46-6.726a.654.654,0,0,1,.92.334c1.283,3.227-3.182,6.186-4.6,7.03a11.061,11.061,0,0,1-.859,5.171,5.957,5.957,0,0,1-4.922,3.882c-.261.035-.479.056-.664.065-.8,3.877-5.982,25.506-21.938,28.014a24.091,24.091,0,0,1-3.737.294m-23.17-14.825c1.533,2.178,11.668,15.6,26.7,13.237,16.252-2.554,20.918-27.264,20.963-27.513a.655.655,0,0,1,.536-.529.664.664,0,0,1,.22,0,4.8,4.8,0,0,0,4.788-3.1,8.816,8.816,0,0,0,.728-4.873.661.661,0,0,1,.324-.746c1.353-.724,4.47-2.853,4.546-4.865l-11.459,6.185c-.932,2.348-8.334,20.136-19.022,21.308a12.215,12.215,0,0,1-1.333.072c-9.256,0-17.916-10.24-20.356-13.381Z" transform="translate(-121.974 -42.879)"/>
        <path id="Tracciato_4058" data-name="Tracciato 4058" d="M328.7,97.626a.655.655,0,0,1-.192-1.281c.017-.006,1.931-.624,2.138-2.123a4.837,4.837,0,0,1,1.437-2.712,2.307,2.307,0,0,0,.631-1.152l-3.251,1.3a.655.655,0,1,1-.485-1.216l4.2-1.676a.655.655,0,0,1,.9.608v.483a3.62,3.62,0,0,1-1.07,2.584,3.542,3.542,0,0,0-1.063,1.964c-.323,2.33-2.939,3.161-3.051,3.195a.643.643,0,0,1-.193.029" transform="translate(-184.852 -49.991)"/>
        <path id="Tracciato_4059" data-name="Tracciato 4059" d="M83.451,126.13s-7.683,17.284-20.213,20.815-21.256-7.139-21.2-18.153L46.3,127.38s4.37,11.288,14.119,8.35,14.272-25.9,14.272-25.9Z" transform="translate(-23.688 -61.891)" fill="#fff"/>
        <path id="Tracciato_4060" data-name="Tracciato 4060" d="M57.578,147.45a15.446,15.446,0,0,1-9.462-3.217,20.539,20.539,0,0,1-7.578-16.29.654.654,0,0,1,.449-.618l4.259-1.412a.656.656,0,0,1,.816.385c.171.437,4.276,10.685,13.32,7.96,9.264-2.791,13.774-25.17,13.818-25.4a.655.655,0,0,1,1.219-.183l8.762,16.3a.654.654,0,0,1,.022.576c-.319.717-7.954,17.606-20.633,21.179a18.359,18.359,0,0,1-4.992.722M41.85,128.417a19.151,19.151,0,0,0,7.059,14.773,14.575,14.575,0,0,0,13.305,2.277c11.219-3.161,18.591-17.91,19.658-20.163L74.1,110.856c-1.289,5.5-5.836,22.092-14.344,24.656a11.526,11.526,0,0,1-3.334.515c-6.741,0-10.383-6.665-11.332-8.684Z" transform="translate(-22.843 -61.045)"/>
        <path id="Tracciato_4061" data-name="Tracciato 4061" d="M167.635,98.1s-7.7-10.055-29.47-8.177c-25.991,2.243-27.973,7.379-27.973,7.379l6.785,13.747-7.962,34.7s5.44,4.506,18.184,1.976,34.644-5.635,40.433-3.887l-8.073-33.108Z" transform="translate(-61.429 -50.54)" fill="#0cf"/>
        <path id="Tracciato_4062" data-name="Tracciato 4062" d="M118.973,148.3c-7.606,0-11.04-2.752-11.221-2.9a.655.655,0,0,1-.22-.651l7.91-34.47-6.682-13.538a.656.656,0,0,1-.024-.526c.218-.565,2.87-5.581,28.527-7.8,21.868-1.888,29.723,8.009,30.046,8.431a.655.655,0,0,1,.032.751L159.416,110l8.006,32.836a.655.655,0,0,1-.825.782c-5.539-1.672-27.212,1.34-40.117,3.9a38.56,38.56,0,0,1-7.508.788m-10.067-3.689c1.316.845,6.751,3.714,17.32,1.616,12.695-2.52,32.634-5.307,39.674-4.115l-7.823-32.082a.655.655,0,0,1,.085-.508l7.81-12.213c-1.6-1.705-9.773-9.21-28.6-7.586C115.583,91.608,110.924,95.55,110.1,96.5l6.617,13.406a.652.652,0,0,1,.052.436Z" transform="translate(-60.584 -49.691)"/>
        <path id="Tracciato_4063" data-name="Tracciato 4063" d="M29.717,130.849,60.739,132.1a1.342,1.342,0,0,0,1.144-2.045L41.795,93.348a2.112,2.112,0,0,0-1.8-1.007l-31.359.716Z" transform="translate(-4.866 -52.034)" fill="#fe196a"/>
        <path id="Tracciato_4064" data-name="Tracciato 4064" d="M23.462,132.1H56.948L34.985,92.342H1.5Z" transform="translate(-0.845 -52.034)" fill="#139cbe"/>
        <path id="Tracciato_4065" data-name="Tracciato 4065" d="M56.1,131.913H22.617a.655.655,0,0,1-.573-.338L.081,91.813a.655.655,0,0,1,.574-.971H34.14a.655.655,0,0,1,.573.338l21.963,39.762a.655.655,0,0,1-.574.971M23,130.6h31.99L33.754,92.152H1.764Z" transform="translate(0 -51.189)"/>
        <path id="Tracciato_4066" data-name="Tracciato 4066" d="M41.8,160.294a14.7,14.7,0,0,0,0-5.5c-.629-2.2-4.531-8.742-5.646-10.112s-2.061,13.25,5.646,15.609" transform="translate(-19.953 -81.479)" fill="#fff"/>
        <path id="Tracciato_4067" data-name="Tracciato 4067" d="M40.952,160.1a.658.658,0,0,1-.192-.029c-4.815-1.474-6.693-7.434-6.845-12.521-.054-1.826.07-4.073.971-4.409a.811.811,0,0,1,.928.282c1.19,1.461,5.128,8.109,5.768,10.345a15.192,15.192,0,0,1,.014,5.8.654.654,0,0,1-.643.532M35.34,145a19.436,19.436,0,0,0,1,8.584,8.185,8.185,0,0,0,4.088,4.971,12.3,12.3,0,0,0-.1-4.421c-.516-1.806-3.5-6.95-4.983-9.134" transform="translate(-19.105 -80.635)"/>
        <path id="Tracciato_4068" data-name="Tracciato 4068" d="M228.192,8.276c4.224,2.57,4.888,7.482,4.936,7.889.661,5.57-3.3,11.334-7.632,12.2-3.7.738-4.983-2.649-9.634-2.43-5.185.244-5.7,4.555-10.639,5.641-7.289,1.6-10.261-6.875-18.634-6.283-6.443.456-7.287,5.661-14.308,5.726-.8.007-7.085-.035-11.279-4.911a14.987,14.987,0,0,1-1.184-17.237c.321-.509,3.745-5.786,8.282-5.657,2.845.081,3.411,2.211,6.119,2.164,4.167-.072,5-5.154,8.652-5.367,4.218-.247,5.155,6.419,10.831,7.363,4.285.712,5.5-2.794,10.1-1.986,4.769.838,5,4.874,9.047,5,3.874.123,4.939-3.537,9.956-3.567a10.352,10.352,0,0,1,5.388,1.454" transform="translate(-88.832 0)"/>
        <path id="Tracciato_4069" data-name="Tracciato 4069" d="M144.078,41.365c-.29-.458,1.083-2.937,1.131-3.84s-.658-1.66-.954-2.608a7.031,7.031,0,0,1,.035-2.636c.4-11.312,12.727-8.628,12.727-8.628,2.83.856,4.5,4.035,5.042,6.149,1.055,4.093-.89,9.042-.89,9.042.083.186,2.1,13.433,2.193,13.6,1.28,2.461-7.3,4.071-10,1.593-.912-.838.255-6.991,0-7-1.011-.027-2.25,1.058-3.524.72-1.877-.5-3.291-5.2-3.56-5.55a2.255,2.255,0,0,0-1.019-.366c-.5-.115-1.027-.24-1.179-.481" transform="translate(-81.165 -13.171)" fill="#fff"/>
        <path id="Tracciato_4070" data-name="Tracciato 4070" d="M156.857,55.084a7.235,7.235,0,0,1-4.788-1.415c-.722-.663-.672-2.43-.3-5.9.028-.265.059-.545.082-.789-.148.052-.3.113-.464.176a4.078,4.078,0,0,1-2.567.383c-1.788-.474-3.012-3.538-3.67-5.184-.082-.2-.172-.429-.227-.554a6.1,6.1,0,0,0-.624-.165,2.472,2.472,0,0,1-1.622-.776c-.325-.512-.073-1.2.481-2.593a8.393,8.393,0,0,0,.549-1.633,2.688,2.688,0,0,0-.43-1.256,6.959,6.959,0,0,1-.495-1.121,7.262,7.262,0,0,1,.007-2.905c.128-3.305,1.25-5.8,3.336-7.422,3.967-3.081,9.932-1.827,10.183-1.772l.051.013c3.237.979,4.971,4.617,5.486,6.612.992,3.846-.493,8.3-.845,9.26.095.508.322,1.928,1,6.274.457,2.915,1.023,6.517,1.13,7.05a1.8,1.8,0,0,1-.735,2.286,10.039,10.039,0,0,1-5.541,1.428m-4.382-9.55h.055a.688.688,0,0,1,.488.23c.253.289.227.537.054,2.147-.126,1.172-.46,4.287-.1,4.815,1.805,1.654,6.97,1.16,8.626-.11.505-.387.392-.6.331-.72-.082-.159-.1-.184-1.224-7.374-.442-2.818-.942-6.007-1.017-6.35a.659.659,0,0,1,.019-.422c.019-.048,1.854-4.806.866-8.639-.445-1.725-1.907-4.854-4.571-5.678-.4-.08-5.721-1.081-9.083,1.535-1.772,1.379-2.723,3.559-2.827,6.481a.672.672,0,0,1-.012.1,6.223,6.223,0,0,0-.052,2.316,5.83,5.83,0,0,0,.408.911,3.711,3.711,0,0,1,.575,1.926,7.9,7.9,0,0,1-.64,2.049,13.423,13.423,0,0,0-.507,1.414,6.321,6.321,0,0,0,.688.185,2.328,2.328,0,0,1,1.392.6,4.2,4.2,0,0,1,.419.913c.448,1.121,1.638,4.1,2.79,4.4a2.958,2.958,0,0,0,1.751-.336,4.405,4.405,0,0,1,1.567-.406m-8.692-5.372h0Z" transform="translate(-80.317 -12.319)"/>
        <path id="Tracciato_4071" data-name="Tracciato 4071" d="M131.495,23.078c1.238-1.255,2.5,0,7.421-.693,4.1-.575,5.277-1.73,8.377-1.219a8.765,8.765,0,0,1,3.964,1.526,9.793,9.793,0,0,1,3.573,5.747c.878,3.4-.222,7.373-.716,8.874a.84.84,0,0,1-.87.571,21.742,21.742,0,0,1-2.764-.4.633.633,0,0,1-.458-.857,3.124,3.124,0,0,0,.107-.312,2.387,2.387,0,1,0-4.551-1.3c-.028.1-.05.2-.068.3-1.808-1.369-2.737-2.919-4.409-3.752a6.1,6.1,0,0,0-2.42-.548c-2.906-.1-3.872,1.619-5.247,1.286-2.4-.582-4.166-6.971-1.939-9.227" transform="translate(-73.521 -11.855)"/>
        <path id="Tracciato_4072" data-name="Tracciato 4072" d="M163.873,72.088a.655.655,0,0,1-.2-1.279c3.79-1.193,4.385-3.541,4.408-3.641a.655.655,0,0,1,1.279.282c-.027.129-.734,3.173-5.294,4.607a.655.655,0,0,1-.2.031" transform="translate(-91.973 -37.563)"/>
      </g>
    </g>
  </g>
</svg>
