<svg id="Raggruppa_1911" data-name="Raggruppa 1911" xmlns="http://www.w3.org/2000/svg" xmlns:xlink="http://www.w3.org/1999/xlink" width="124.518" height="239.799" viewBox="0 0 124.518 239.799">
  <defs>
    <clipPath id="clip-path">
      <rect id="Rettangolo_343" data-name="Rettangolo 343" width="124.518" height="239.799" fill="none"/>
    </clipPath>
  </defs>
  <path id="Tracciato_237" data-name="Tracciato 237" d="M23.137,524.941l-2.451,13.932,7.242.85,2.954-13.081Z" transform="translate(-12.604 -319.847)" fill="#fff"/>
  <g id="Raggruppa_1910" data-name="Raggruppa 1910">
    <g id="Raggruppa_1909" data-name="Raggruppa 1909" clip-path="url(#clip-path)">
      <path id="Tracciato_238" data-name="Tracciato 238" d="M27.015,539.4a.591.591,0,0,1-.069,0l-7.242-.85a.586.586,0,0,1-.509-.683l2.451-13.932a.586.586,0,0,1,.7-.471l7.745,1.7a.586.586,0,0,1,.446.7l-2.954,13.081a.586.586,0,0,1-.571.457m-6.558-1.946,6.1.716,2.708-11.991-6.572-1.444Z" transform="translate(-11.69 -318.933)"/>
      <path id="Tracciato_239" data-name="Tracciato 239" d="M18.543,550.757a6.136,6.136,0,0,1-6.8-1.535l-.91-.987a.721.721,0,0,0-1.128.084l-5.1,7.524a3.264,3.264,0,0,0,.323,4.176,32.068,32.068,0,0,0,6.295,4.8c5.014,2.852,9.344,8.93,14.475,7.46s4.864-1.715,5.444-3.335-1.877-4.949-5.961-8.674c-2.5-2.277-4.924-7.2-5.692-9.113a.72.72,0,0,0-.938-.4" transform="translate(-2.432 -333.897)" fill="#0cf"/>
      <path id="Tracciato_240" data-name="Tracciato 240" d="M23.2,572.173c-3.1,0-5.924-2.277-8.668-4.49a35.6,35.6,0,0,0-4.511-3.272,32.781,32.781,0,0,1-6.414-4.887,3.871,3.871,0,0,1-.385-4.946l5.09-7.5a1.307,1.307,0,0,1,2.043-.152l.909.987a5.578,5.578,0,0,0,6.154,1.388,1.3,1.3,0,0,1,1.7.724c.8,1.979,3.2,6.757,5.544,8.9,2.66,2.426,6.992,6.86,6.118,9.3-.04.112-.076.216-.11.316-.57,1.667-1,2.034-5.725,3.386a6.319,6.319,0,0,1-1.748.247m-13.8-24.5H9.386a.13.13,0,0,0-.1.059l-5.1,7.524a2.671,2.671,0,0,0,.246,3.426,31.6,31.6,0,0,0,6.176,4.71,36.432,36.432,0,0,1,4.667,3.378c3.156,2.545,6.136,4.951,9.357,4.028,4.475-1.282,4.555-1.516,4.938-2.638.035-.1.073-.215.115-.332.342-.956-.972-3.637-5.8-8.043-2.7-2.46-5.184-7.689-5.841-9.328a.13.13,0,0,0-.071-.072.132.132,0,0,0-.1,0A6.758,6.758,0,0,1,10.4,548.7l-.909-.987a.131.131,0,0,0-.1-.043m8.243,2.169h0Z" transform="translate(-1.528 -332.983)"/>
      <path id="Tracciato_241" data-name="Tracciato 241" d="M29.252,580.784s-4.176,3.065-9.848-.1C15.625,578.579,1.7,566.84,1.7,566.84L.483,568.488A2.562,2.562,0,0,0,.564,571.6c3.536,3.1,13.912,11.259,19.378,12.878,8.4,2.489,9.31-3.69,9.31-3.69" transform="translate(0 -345.375)"/>
      <path id="Tracciato_242" data-name="Tracciato 242" d="M121.8,532.219l-3.55,19.241,7.974,3.977,4.522-20.933Z" transform="translate(-72.052 -324.281)" fill="#fff"/>
      <path id="Tracciato_243" data-name="Tracciato 243" d="M125.314,555.109a.593.593,0,0,1-.262-.061l-7.974-3.977a.587.587,0,0,1-.315-.631l3.55-19.241a.586.586,0,0,1,.721-.461l8.947,2.285a.586.586,0,0,1,.427.692l-4.522,20.933a.584.584,0,0,1-.573.462M118,550.219l6.9,3.444,4.244-19.644-7.792-1.99Z" transform="translate(-71.138 -323.367)"/>
      <path id="Tracciato_244" data-name="Tracciato 244" d="M111.283,575.764c-.281,1.841-2.431,5.415-2.5,8.482a3.8,3.8,0,0,0,3.27,3.836,170.082,170.082,0,0,0,29.613.685,2.683,2.683,0,0,0,2.345-2.341c1.247-5.975-9.1-7.569-20.4-12.052a1.222,1.222,0,0,0-1.294.248l-1.239,1.178a4.222,4.222,0,0,1-4.624.8l-3.707-1.643a1.047,1.047,0,0,0-1.458.805" transform="translate(-66.279 -349.912)" fill="#0cf"/>
      <path id="Tracciato_245" data-name="Tracciato 245" d="M130.419,588.8a161.873,161.873,0,0,1-19.366-1.049,4.38,4.38,0,0,1-3.774-4.43,18.228,18.228,0,0,1,1.612-5.911,14.907,14.907,0,0,0,.9-2.645,1.633,1.633,0,0,1,2.275-1.253l3.707,1.643a3.629,3.629,0,0,0,3.982-.692l1.239-1.178a1.815,1.815,0,0,1,1.914-.368c2.636,1.045,5.172,1.916,7.625,2.758,7.932,2.724,14.2,4.876,13.137,9.958a3.281,3.281,0,0,1-2.873,2.806c-3.228.256-6.81.361-10.375.361m-19.472-13.859a15.112,15.112,0,0,1-.967,2.9,17.117,17.117,0,0,0-1.528,5.5,3.208,3.208,0,0,0,2.766,3.242,168.541,168.541,0,0,0,29.485.68,2.092,2.092,0,0,0,1.818-1.877c.849-4.07-4.7-5.974-12.37-8.61-2.465-.847-5.015-1.723-7.676-2.777a.639.639,0,0,0-.674.128l-1.239,1.178a4.8,4.8,0,0,1-5.265.914l-3.707-1.643a.447.447,0,0,0-.4.017.466.466,0,0,0-.238.341" transform="translate(-65.364 -348.999)"/>
      <path id="Tracciato_246" data-name="Tracciato 246" d="M108.168,597.722s-.01.311-.014.461a3.8,3.8,0,0,0,3.27,3.836c5.362.758,19.442,2.538,29.83,1.717.711-.056,2-1.252,2.372-3.031a7.874,7.874,0,0,0,.06-1.532l-.737.028a213.809,213.809,0,0,1-31.435-1.138Z" transform="translate(-65.898 -364.192)"/>
      <path id="Tracciato_247" data-name="Tracciato 247" d="M51.442,248.527c.229,1.062-3.372,8.392-2.784,15.591.921,11.284,1.647,17.143-4.407,28.357-5.84,10.815-16.382,21.144-23.914,66.157a3.732,3.732,0,0,0,3.638,4.343l5.785.07A3.735,3.735,0,0,0,33.132,361c3.8-7.474,15.548-29.582,20.143-37.873,5.4-9.737,20.773-34.1,21.669-45.782.844-11.009.07-26.749-.021-28.515a.181.181,0,0,0-.174-.171Z" transform="translate(-12.359 -151.427)"/>
      <path id="Tracciato_248" data-name="Tracciato 248" d="M143.29,241.819s13.693,28.5,5.491,62.812c-5.932,24.82-14.351,52.484-17.056,60.368a3.806,3.806,0,0,1-3.617,2.57l-6.319-.029a3.8,3.8,0,0,1-3.76-4.272c1.626-13.1,6.632-55.525,6.267-65.782-.6-16.9-5.571-22.823-6.435-34.718-.942-12.96,2.66-20.708,2.66-20.708Z" transform="translate(-71.716 -147.34)"/>
      <path id="Tracciato_249" data-name="Tracciato 249" d="M121.441,333.11l-.044,0a.586.586,0,0,1-.542-.627c.935-12.676-1.546-20.109-3.736-26.666-1.607-4.815-3.126-9.362-2.9-15.126a.579.579,0,0,1,.608-.563.586.586,0,0,1,.563.608c-.217,5.55,1.2,9.795,2.841,14.71,2.224,6.662,4.746,14.213,3.793,27.123a.586.586,0,0,1-.584.543" transform="translate(-69.58 -176.773)" fill="#fe196a"/>
      <path id="Tracciato_250" data-name="Tracciato 250" d="M67.96,9.438,70,4.312S65.362.378,59.975.994c-5.487.628-11.715,5.891-10.941,15.449.4,4.966-3.778,7.447-7.739,11.15-.851.795-1.745,1.539-2.648,2.273-6.511,5.3-5.385,11.021-5.385,11.021A6.418,6.418,0,0,1,35.3,37.9c-1.286,8.554,5.112,17.635,13.426,19.491,7.868,1.757,17.582-3.345,19.724-9.337,2.08-5.816.662-14.243-2.143-20.654S61.74,12.385,67.96,9.438" transform="translate(-20.221 -0.566)"/>
      <path id="Tracciato_251" data-name="Tracciato 251" d="M263.925,72.386l-19.569.437,7.037-23.837,19.569-.437Z" transform="translate(-148.886 -29.581)" fill="#fff"/>
      <path id="Tracciato_252" data-name="Tracciato 252" d="M243.442,72.5a.586.586,0,0,1-.562-.752l7.037-23.837a.586.586,0,0,1,.549-.42l19.569-.437a.578.578,0,0,1,.478.23.585.585,0,0,1,.1.522l-7.036,23.837a.586.586,0,0,1-.549.42l-19.569.437h-.013m19.569-1.023h0ZM250.921,48.649l-6.689,22.657,18.339-.41,6.689-22.656Z" transform="translate(-147.972 -28.667)" fill="#0cf"/>
      <path id="Tracciato_253" data-name="Tracciato 253" d="M264.505,90.062h-6.059l1.674-5.535h6.059Z" transform="translate(-157.471 -51.502)" fill="#139cbe"/>
      <path id="Tracciato_254" data-name="Tracciato 254" d="M279.947,59.967H268.972a.586.586,0,1,1,0-1.172h10.975a.586.586,0,1,1,0,1.172" transform="translate(-163.527 -35.824)" fill="#fe196a"/>
      <path id="Tracciato_255" data-name="Tracciato 255" d="M276.349,69.25h-8.656a.586.586,0,1,1,0-1.172h8.656a.586.586,0,0,1,0,1.172" transform="translate(-162.748 -41.48)" fill="#fe196a"/>
      <path id="Tracciato_256" data-name="Tracciato 256" d="M179.307,88.987c2.978,3.22,6.981,7.151,10.112,8.651,4.666,2.236,8.568,2.708,13.157-1.884s9-8.739,9.69-10.846.959-6.433,2.4-7.875a15.731,15.731,0,0,0,2.929-3.494c.556-1.066,1.079-2.055,2.055-1.8,1.1.29,1.331,2.349-.31,4.517-1.6,2.109-.446,3.135.606,2.911,1.9-.405,2.164-1.533,2.193-2.921.033-1.569-1.4-3.217-.509-3.9,3-2.294,4.5,6.254,4.446,7.219-.127,2.263-2.838,3.693-4.739,4.735a15.6,15.6,0,0,0-5.006,4.017c-1.258,1.669-10.264,19.685-17.651,23.374-8.524,4.256-26.1-8.466-30.333-11.1-3.762-2.338,8.62-14.148,10.965-11.614" transform="translate(-102.141 -43.686)" fill="#fff"/>
      <path id="Tracciato_257" data-name="Tracciato 257" d="M193.676,112.223c-8.17,0-19.448-7.4-24.759-10.88-.723-.474-1.347-.883-1.8-1.164a2.116,2.116,0,0,1-.958-2.227c.426-3.471,6.6-9.472,10.151-10.619,1.4-.452,2.139-.066,2.512.337,4.086,4.418,7.522,7.364,9.936,8.52,4.475,2.145,8.125,2.6,12.489-1.77.643-.643,1.283-1.278,1.909-1.9,3.646-3.618,7.09-7.036,7.638-8.713a23.6,23.6,0,0,0,.583-2.553c.426-2.193.866-4.461,1.956-5.554a15.411,15.411,0,0,0,2.824-3.351c.575-1.1,1.291-2.472,2.724-2.094a1.679,1.679,0,0,1,1.137,1.079,1.34,1.34,0,0,1,.337-.368,1.955,1.955,0,0,1,2.231-.284c2.334,1.235,3.194,7.317,3.156,8-.143,2.531-2.892,4.038-4.9,5.138l-.143.078a14.782,14.782,0,0,0-4.82,3.856c-.222.294-.785,1.282-1.5,2.533-3.326,5.83-10.246,17.961-16.359,21.013a9.645,9.645,0,0,1-4.347.922M177.464,88.3a2.764,2.764,0,0,0-.793.149c-3.154,1.018-8.982,6.667-9.348,9.647-.084.685.177.942.414,1.089.463.288,1.093.7,1.822,1.179,5.644,3.7,20.638,13.536,27.94,9.89,5.794-2.894,12.851-15.263,15.864-20.545.792-1.387,1.314-2.3,1.582-2.658a15.893,15.893,0,0,1,5.192-4.178l.144-.079c1.767-.968,4.186-2.294,4.292-4.175.047-.811-.978-6.077-2.533-6.9-.2-.107-.5-.184-.97.179-.172.131.061.769.248,1.282a6.037,6.037,0,0,1,.491,2.163c-.032,1.521-.377,3-2.657,3.482a1.719,1.719,0,0,1-1.843-.709c-.293-.461-.6-1.482.648-3.129a3.865,3.865,0,0,0,.983-3.195.58.58,0,0,0-.355-.4c-.461-.12-.783.345-1.386,1.5a16.161,16.161,0,0,1-3.033,3.636c-.838.84-1.28,3.119-1.635,4.95a24.342,24.342,0,0,1-.619,2.694c-.636,1.946-3.853,5.139-7.927,9.181-.625.621-1.264,1.255-1.906,1.9-4.835,4.839-9.024,4.3-13.825,2-2.582-1.237-6.044-4.192-10.289-8.782a.661.661,0,0,0-.5-.166m42.625-15.073a6.556,6.556,0,0,1-1.2,2.465c-.7.917-.763,1.528-.594,1.793a.577.577,0,0,0,.61.191c1.435-.306,1.7-1,1.729-2.36a5.073,5.073,0,0,0-.42-1.737c-.042-.116-.085-.234-.126-.352" transform="translate(-101.226 -42.767)"/>
      <path id="Tracciato_258" data-name="Tracciato 258" d="M19.955,172.735c-.266.543.113,1.716-.013,2.172-.456,1.66-3.265,3.744-5.308,5.073a6.54,6.54,0,0,0-2.936,4.706c-.054.454-.087.951-.121,1.486a2.221,2.221,0,0,1-1.116,2.1,1.719,1.719,0,0,1-2.387-1.621c.016-2.7.172-8.295,1.151-10.16a14.952,14.952,0,0,1,4.091-3.926,7.15,7.15,0,0,0,2.883-5.01c.763-6.918,6.736-36.058,20.89-55.074l3.28,18.406S29.821,152.6,19.955,172.735" transform="translate(-4.919 -68.533)" fill="#fff"/>
      <path id="Tracciato_259" data-name="Tracciato 259" d="M8.873,188.091a2.24,2.24,0,0,1-1.208-.358,2.352,2.352,0,0,1-1.093-2c.019-3.063.2-8.491,1.218-10.429a14.631,14.631,0,0,1,4.266-4.128,6.577,6.577,0,0,0,2.645-4.6c.7-6.322,6.625-36.044,21-55.359a.586.586,0,0,1,1.047.247l3.28,18.406a.587.587,0,0,1-.05.359c-.105.217-10.662,21.952-20.416,41.853a2.909,2.909,0,0,0,.018.983,3,3,0,0,1,.008,1.086c-.4,1.451-2.267,3.271-5.554,5.409a5.93,5.93,0,0,0-2.674,4.284c-.053.447-.086.943-.118,1.455a2.763,2.763,0,0,1-1.452,2.59,2.168,2.168,0,0,1-.922.206m26.966-75.07C22.2,132.135,16.544,160.562,15.867,166.7a7.754,7.754,0,0,1-3.122,5.419,13.928,13.928,0,0,0-3.917,3.724c-.658,1.255-1.053,4.86-1.084,9.891a1.184,1.184,0,0,0,.552,1.008,1.02,1.02,0,0,0,1,.078c.464-.217.727-.756.78-1.6.034-.528.068-1.042.125-1.517a7.1,7.1,0,0,1,3.2-5.13c2.911-1.894,4.756-3.621,5.063-4.737a3.492,3.492,0,0,0-.042-.64,3.061,3.061,0,0,1,.093-1.634c9.294-18.963,19.317-39.59,20.33-41.678Z" transform="translate(-4.005 -67.619)"/>
      <path id="Tracciato_260" data-name="Tracciato 260" d="M133.808,104.373a60.38,60.38,0,0,1-12.9-9.683,20.208,20.208,0,0,0-11.462-5.517c-9.323-1.2-21.081-.018-26.975,3.872-7.424,4.9-6.329,12.785-4.767,16.348.8,1.83,3.844,9.476,4.638,11.7,4.935,13.823,2.708,24.652,1.5,33.849a2.6,2.6,0,0,0,1.88,2.79c6.443,2.05,14.095,3.433,34.845-1.615a2.254,2.254,0,0,0,1.587-2.928c-5.375-15.6-1.392-23.617.406-32.083l2.87,1.239a3.512,3.512,0,0,0,3.162-1.019,22.052,22.052,0,0,0,4.991-6.756c2.235-4.459,2.567-8.947.225-10.2" transform="translate(-46.65 -54.061)" fill="#0cf"/>
      <path id="Tracciato_261" data-name="Tracciato 261" d="M137.51,8.555a2.984,2.984,0,0,0-.323-2.518C135.791,3.83,132.337-.4,126.57.03,118.441.64,115.624,4.416,114.348,10.9c-.9,4.552.937,11.291,4.19,12.991a8.389,8.389,0,0,0,8.679-.632l9.845-13.321Z" transform="translate(-69.534 0)"/>
      <path id="Tracciato_262" data-name="Tracciato 262" d="M140.7,20.232a10.548,10.548,0,0,1,.227,4.87c-.442,1.535.717,3.575,1.491,4.415a.488.488,0,0,1-.134.761l-.994.492a1.2,1.2,0,0,0-.637.975c-.1,1.437-.415,4.761-1.055,5.581-1.049,1.343-5.448-.145-6.393-.432-.1-.03.005,10.226.005,10.226a5.024,5.024,0,0,1-1.6,4.066c-2.466,2.134-10.986,2.316-11.577-1.235a6.02,6.02,0,0,1,.89-2.514c.735-1.281,1.906-2.69,2.1-4.026a32.026,32.026,0,0,0,.05-7.055,6.187,6.187,0,0,0,4.088-1.975c1.794-1.752,2.874-4.134,2.433-4.909-1.01-1.772-1.666-3.479-.21-4.806,1.392-1.269,2.749-.246,3.389.52.881,1.054,4.75.412,6.415-2.494s1.515-2.461,1.515-2.461" transform="translate(-73.135 -12.312)" fill="#fff"/>
      <path id="Tracciato_263" data-name="Tracciato 263" d="M124.945,52.384a11.261,11.261,0,0,1-3.731-.575,3.632,3.632,0,0,1-2.668-2.689,6.2,6.2,0,0,1,.96-2.9c.211-.367.456-.745.694-1.111a7.785,7.785,0,0,0,1.333-2.706,31.65,31.65,0,0,0,.048-6.905l-.077-.668.673.016a5.607,5.607,0,0,0,3.665-1.809c1.8-1.76,2.525-3.832,2.332-4.2-.683-1.2-2.106-3.7-.1-5.529a2.582,2.582,0,0,1,1.943-.747,3.541,3.541,0,0,1,2.291,1.324,1.689,1.689,0,0,0,1.3.25,5.555,5.555,0,0,0,4.151-2.659c.567-.99.988-1.7,1.251-2.119s.523-.83,1.014-.609l.485.218-.114.355a10.712,10.712,0,0,1,.179,5.019c-.37,1.281.7,3.144,1.358,3.856a1.073,1.073,0,0,1-.293,1.677l-1.006.5a.6.6,0,0,0-.313.49c-.123,1.8-.44,4.957-1.178,5.9-1.021,1.307-3.822.733-6.3-.01-.022,1.755.01,6.4.04,9.437a5.586,5.586,0,0,1-1.8,4.515c-1.24,1.073-3.717,1.682-6.14,1.682m-5.238-3.431c.172.942,1.129,1.473,1.905,1.753,2.633.95,7.108.492,8.706-.891a4.45,4.45,0,0,0,1.4-3.633c-.105-10.435-.093-10.445.227-10.684l.238-.178.517.157c4.331,1.35,5.311.841,5.53.56.37-.473.753-2.636.933-5.26a1.768,1.768,0,0,1,.949-1.454l.881-.436c-.89-1.022-2.031-3.151-1.534-4.876a7.9,7.9,0,0,0,.055-3.207c-.188.319-.425.728-.726,1.252a6.693,6.693,0,0,1-5.066,3.245,2.628,2.628,0,0,1-2.307-.667,2.443,2.443,0,0,0-1.471-.906,1.436,1.436,0,0,0-1.074.444c-.96.875-.872,1.981.325,4.082.679,1.192-.789,3.917-2.532,5.618a7.322,7.322,0,0,1-3.859,2.081,31.432,31.432,0,0,1-.109,6.613,8.526,8.526,0,0,1-1.51,3.178c-.239.369-.465.717-.66,1.056a6.273,6.273,0,0,0-.817,2.152" transform="translate(-72.224 -11.385)"/>
      <path id="Tracciato_264" data-name="Tracciato 264" d="M144.1,41.582c-1.385,0-2.552-1.018-3.267-2.89a.586.586,0,1,1,1.095-.418c.432,1.131,1.232,2.411,2.614,2.082a.586.586,0,1,1,.272,1.14,3.059,3.059,0,0,1-.714.087" transform="translate(-85.785 -23.09)"/>
      <path id="Tracciato_265" data-name="Tracciato 265" d="M125.408,103.4s.7-12.7,11.593-16.154a7.3,7.3,0,0,1,5.928.509l4.612,3.031s-16.122-3.189-18.322,14.247Z" transform="translate(-76.411 -52.924)" fill="#fe196a"/>
      <path id="Tracciato_266" data-name="Tracciato 266" d="M128.305,104.716a.587.587,0,0,1-.23-.047l-3.812-1.634a.586.586,0,0,1-.354-.571c.007-.131.851-13.142,12-16.68a7.951,7.951,0,0,1,6.427.579l4.611,3.03a.586.586,0,0,1-.435,1.065c-.066-.013-6.675-1.254-11.776,2.433-3.23,2.335-5.2,6.141-5.852,11.313a.586.586,0,0,1-.582.513m-3.189-2.59,2.715,1.163c.792-5.124,2.885-8.942,6.23-11.355a16.772,16.772,0,0,1,10.261-2.864l-2.629-1.728a6.689,6.689,0,0,0-5.429-.44c-9.314,2.955-10.912,13.072-11.149,15.224" transform="translate(-75.497 -52.02)"/>
      <path id="Tracciato_267" data-name="Tracciato 267" d="M113,83.561s-5.133,5.191-3.846,16.726l-4.637.065s-.186-9.712,1.894-13.666S113,83.561,113,83.561" transform="translate(-63.678 -50.87)" fill="#fe196a"/>
      <path id="Tracciato_268" data-name="Tracciato 268" d="M103.6,100.038a.586.586,0,0,1-.586-.575c-.007-.4-.164-9.91,1.962-13.95,2.255-4.284,7.163-3.437,7.213-3.428a.587.587,0,0,1,.311.988c-.055.057-4.917,5.175-3.68,16.249a.586.586,0,0,1-.575.651l-4.636.066H103.6m7.316-16.867a5.425,5.425,0,0,0-4.9,2.888c-1.7,3.232-1.829,10.663-1.83,12.8l3.406-.048c-.812-8.677,1.937-13.7,3.328-15.639" transform="translate(-62.763 -49.969)"/>
      <path id="Tracciato_269" data-name="Tracciato 269" d="M99.083,110.466s-1.829-3.494-1.387-5.734a5.207,5.207,0,0,1,7.594-2.95c5.486,2.92.76,9.723.76,9.723h-2.993s1.779-3.519,1.269-5.616a1.645,1.645,0,0,0-3.2.754,15.453,15.453,0,0,0,1.322,4.861Z" transform="translate(-59.484 -61.593)" fill="#fe196a"/>
      <path id="Tracciato_270" data-name="Tracciato 270" d="M101.539,111.178a.584.584,0,0,1-.173-.026L98,110.113a.587.587,0,0,1-.347-.288c-.079-.15-1.92-3.7-1.442-6.119a5.388,5.388,0,0,1,3.024-3.552,5.9,5.9,0,0,1,5.42.2,5.211,5.211,0,0,1,2.807,3.42c.8,3.3-1.733,7-1.841,7.155a.585.585,0,0,1-.481.252h-2.993a.586.586,0,0,0-.607,0m1.517-1.172h1.764c.519-.839,2.071-3.614,1.5-5.962a4.038,4.038,0,0,0-2.218-2.657,4.759,4.759,0,0,0-4.366-.174,4.251,4.251,0,0,0-2.377,2.72c-.338,1.712.854,4.367,1.225,5.134l1.947.6a12.974,12.974,0,0,1-.9-3.93,2.213,2.213,0,0,1,1.862-2.506,2.283,2.283,0,0,1,2.491,1.606c.4,1.634-.41,3.937-.928,5.168m-1.287-5.619a1.084,1.084,0,0,0-.129.008c-.549.07-.847.541-.837,1.329a13.25,13.25,0,0,0,1.051,4.112c.525-1.184,1.314-3.394.992-4.72a1.1,1.1,0,0,0-1.077-.728" transform="translate(-58.573 -60.679)"/>
      <path id="Tracciato_271" data-name="Tracciato 271" d="M92.263,172.438l-14.837-8.972a4.992,4.992,0,0,1-3.978-4.888l-7.31-20.363c.851-6.77-.592-11.84,9.61-15.669,3.408-1.279,11.945-.436,15.476.3l1.024.213a14.776,14.776,0,0,1,11.775,14.467v25.326a4.967,4.967,0,0,1-1.841,3.872c-1.114.907-6.621,4.893-9.92,5.718" transform="translate(-40.298 -74.264)" fill="#fe196a"/>
      <path id="Tracciato_272" data-name="Tracciato 272" d="M91.349,172.1a.585.585,0,0,1-.3-.084l-14.753-8.922a5.6,5.6,0,0,1-4.343-5.335l-7.276-20.27a.585.585,0,0,1-.03-.271c.13-1.04.207-2.043.28-3.012.4-5.242.742-9.769,9.7-13.133,3.6-1.351,12.205-.474,15.8.272l1.025.213A15.422,15.422,0,0,1,103.7,136.6v25.326a5.556,5.556,0,0,1-2.057,4.326c-.908.739-6.637,4.954-10.147,5.832a.585.585,0,0,1-.142.017M65.824,137.225l7.262,20.231a.59.59,0,0,1,.034.2,4.423,4.423,0,0,0,3.511,4.314.6.6,0,0,1,.184.072l14.623,8.843c3.11-.894,8.247-4.554,9.46-5.541a4.389,4.389,0,0,0,1.625-3.417V136.6a14.246,14.246,0,0,0-11.308-13.894l-1.025-.213c-3.6-.746-11.972-1.514-15.151-.322-8.264,3.1-8.55,6.886-8.948,12.124-.071.94-.145,1.912-.269,2.929" transform="translate(-39.385 -73.341)"/>
      <path id="Tracciato_273" data-name="Tracciato 273" d="M89.193,177.773,68.6,173.5a4.992,4.992,0,0,1-3.978-4.888V147.347c0-18.87,6.125-17.5,15.584-16.127l2.747.428c6.858,1.422,12.244.395,12.244,15.912v25.326a4.992,4.992,0,0,1-6.006,4.888" transform="translate(-39.375 -79.517)" fill="#fe196a"/>
      <path id="Tracciato_274" data-name="Tracciato 274" d="M89.3,177.559a5.606,5.606,0,0,1-1.141-.118l-20.591-4.271a5.6,5.6,0,0,1-4.445-5.462V146.441c0-8.51,1.2-13.346,3.905-15.681,2.8-2.422,6.906-1.822,11.658-1.127l.691.1,2.753.429c.785.162,1.528.29,2.247.413,5.862,1.006,10.493,1.8,10.493,16.078V171.98a5.581,5.581,0,0,1-5.57,5.58M72.632,130.185a7.057,7.057,0,0,0-4.837,1.462c-2.388,2.064-3.5,6.765-3.5,14.794v21.268a4.423,4.423,0,0,0,3.511,4.314L88.4,176.294a4.406,4.406,0,0,0,5.3-4.315V146.654c0-13.289-3.787-13.939-9.519-14.923-.729-.125-1.482-.254-2.259-.415l-3.4-.523a43,43,0,0,0-5.885-.608" transform="translate(-38.461 -78.611)"/>
      <path id="Tracciato_275" data-name="Tracciato 275" d="M58.378,188.888l-4,2.825,4.6,14.116a4.107,4.107,0,0,0,3.273,4.022l12.915,6.293a5.694,5.694,0,0,0,2.962-.766,22.619,22.619,0,0,0,2.913-2.052c1.635-1.26,3.094-3.385,3.094-5.338l.086-11.6a3.289,3.289,0,0,0-2.693-3.234Z" transform="translate(-33.129 -115.089)" fill="#fe196a"/>
      <path id="Tracciato_276" data-name="Tracciato 276" d="M74.441,215.826a1.7,1.7,0,0,1-.317-.023.594.594,0,0,1-.138-.047l-12.851-6.261a4.712,4.712,0,0,1-3.664-4.484l-4.57-14.03a.586.586,0,0,1,.22-.66l4-2.825a.584.584,0,0,1,.444-.1l23.142,4.263a3.875,3.875,0,0,1,3.172,3.811L83.8,207.078c0,2.235-1.668,4.524-3.322,5.8l-.182.144a21.368,21.368,0,0,1-2.809,1.959,6.765,6.765,0,0,1-3.044.848m-.031-1.168a5.6,5.6,0,0,0,2.515-.71,20.354,20.354,0,0,0,2.638-1.846c.085-.068.152-.122.2-.156,1.38-1.063,2.865-3.042,2.865-4.874l.086-11.606a2.7,2.7,0,0,0-2.213-2.654L57.6,188.6l-3.45,2.433,4.463,13.7a.574.574,0,0,1,.029.182,3.535,3.535,0,0,0,2.806,3.448.59.59,0,0,1,.138.047Z" transform="translate(-32.215 -114.175)"/>
      <path id="Tracciato_277" data-name="Tracciato 277" d="M51.8,197.427v14.726a4.272,4.272,0,0,0,3.4,4.183l17.619,3.654a4.271,4.271,0,0,0,5.139-4.182v-13.5a2.469,2.469,0,0,0-1.968-2.418l-21.7-4.5a2.077,2.077,0,0,0-2.5,2.033" transform="translate(-31.561 -119.026)" fill="#fe196a"/>
      <path id="Tracciato_278" data-name="Tracciato 278" d="M72.782,219.752a4.909,4.909,0,0,1-.994-.1L54.169,216a4.877,4.877,0,0,1-3.871-4.756V196.513a2.663,2.663,0,0,1,3.2-2.607l21.7,4.5a3.067,3.067,0,0,1,2.434,2.992v13.5a4.86,4.86,0,0,1-4.851,4.859m-19.823-24.73a1.492,1.492,0,0,0-1.489,1.491v14.726a3.7,3.7,0,0,0,2.937,3.609L72.027,218.5a3.685,3.685,0,0,0,4.434-3.609V201.4a1.891,1.891,0,0,0-1.5-1.844l-21.7-4.5a1.494,1.494,0,0,0-.3-.031" transform="translate(-30.647 -118.113)"/>
    </g>
  </g>
</svg>
