<svg id="Raggruppa_2009" data-name="Raggruppa 2009" xmlns="http://www.w3.org/2000/svg" xmlns:xlink="http://www.w3.org/1999/xlink" width="209.105" height="259.799" viewBox="0 0 209.105 259.799">
  <defs>
    <clipPath id="clip-path">
      <rect id="Rettangolo_368" data-name="Rettangolo 368" width="209.105" height="259.799" fill="none"/>
    </clipPath>
  </defs>
  <g id="Raggruppa_2009-2" data-name="Raggruppa 2009" clip-path="url(#clip-path)">
    <path id="Tracciato_4270" data-name="Tracciato 4270" d="M60.611,249.469v40.858h4.826V250.9A5.564,5.564,0,0,1,71,245.334H94.975a5.565,5.565,0,0,1,5.564,5.564v39.429h4.826V249.469a8.641,8.641,0,0,0-8.64-8.64H69.251a8.641,8.641,0,0,0-8.64,8.64" transform="translate(-34.125 -135.592)" fill="#fff"/>
    <path id="Tracciato_4271" data-name="Tracciato 4271" d="M104.521,290.138H99.695a.656.656,0,0,1-.655-.655V250.054a4.915,4.915,0,0,0-4.909-4.909H70.157a4.915,4.915,0,0,0-4.909,4.909v39.429a.656.656,0,0,1-.655.655H59.766a.656.656,0,0,1-.655-.655V248.625a9.306,9.306,0,0,1,9.3-9.3H95.88a9.306,9.306,0,0,1,9.3,9.3v40.858a.656.656,0,0,1-.655.655m-4.171-1.311h3.515v-40.2a7.994,7.994,0,0,0-7.985-7.985H68.407a7.994,7.994,0,0,0-7.985,7.985v40.2h3.515V250.054a6.227,6.227,0,0,1,6.22-6.22H94.13a6.227,6.227,0,0,1,6.22,6.22Z" transform="translate(-33.281 -134.747)"/>
    <path id="Tracciato_4272" data-name="Tracciato 4272" d="M107.461,244.827h-21a1.161,1.161,0,0,1-1.161-1.161v-4.529a1.161,1.161,0,0,1,1.161-1.161h21a1.161,1.161,0,0,1,1.161,1.161v4.529a1.161,1.161,0,0,1-1.161,1.161" transform="translate(-48.023 -133.985)" fill="#fff"/>
    <path id="Tracciato_4273" data-name="Tracciato 4273" d="M106.616,244.637h-21a1.819,1.819,0,0,1-1.817-1.817v-4.529a1.819,1.819,0,0,1,1.817-1.817h21a1.819,1.819,0,0,1,1.817,1.817v4.529a1.819,1.819,0,0,1-1.817,1.817m-21-6.852a.506.506,0,0,0-.506.506v4.529a.506.506,0,0,0,.506.506h21a.507.507,0,0,0,.506-.506v-4.529a.507.507,0,0,0-.506-.506Z" transform="translate(-47.178 -133.14)"/>
    <path id="Tracciato_4274" data-name="Tracciato 4274" d="M144.5,574.581a5.433,5.433,0,1,1-5.433-5.433,5.433,5.433,0,0,1,5.433,5.433" transform="translate(-75.24 -320.442)" fill="#0cf"/>
    <path id="Tracciato_4275" data-name="Tracciato 4275" d="M67.607,574.581a5.433,5.433,0,1,1-5.433-5.433,5.433,5.433,0,0,1,5.433,5.433" transform="translate(-31.947 -320.442)" fill="#0cf"/>
    <path id="Tracciato_4276" data-name="Tracciato 4276" d="M95.256,447.644H45.5A8.643,8.643,0,0,1,36.857,439V354.394a8.644,8.644,0,0,1,8.643-8.643H95.256a8.643,8.643,0,0,1,8.643,8.643V439a8.643,8.643,0,0,1-8.643,8.643" transform="translate(-20.751 -194.665)" fill="#fe196a"/>
    <path id="Tracciato_4277" data-name="Tracciato 4277" d="M94.412,447.456H44.656a9.309,9.309,0,0,1-9.3-9.3V353.551a9.309,9.309,0,0,1,9.3-9.3H94.412a9.309,9.309,0,0,1,9.3,9.3v84.606a9.309,9.309,0,0,1-9.3,9.3M44.656,345.563a8,8,0,0,0-7.988,7.988v84.606a8,8,0,0,0,7.988,7.988H94.412a8,8,0,0,0,7.988-7.988V353.551a8,8,0,0,0-7.988-7.988Z" transform="translate(-19.907 -193.821)"/>
    <path id="Tracciato_4278" data-name="Tracciato 4278" d="M59.9,447.969H10.143A8.643,8.643,0,0,1,1.5,439.326V354.719a8.644,8.644,0,0,1,8.643-8.643H59.9a8.644,8.644,0,0,1,8.643,8.643v84.606a8.643,8.643,0,0,1-8.643,8.643" transform="translate(-0.845 -194.848)" fill="#fff"/>
    <path id="Tracciato_4279" data-name="Tracciato 4279" d="M59.054,447.78H9.3a9.309,9.309,0,0,1-9.3-9.3V353.875a9.309,9.309,0,0,1,9.3-9.3H59.054a9.309,9.309,0,0,1,9.3,9.3v84.606a9.309,9.309,0,0,1-9.3,9.3M9.3,345.887a8,8,0,0,0-7.988,7.988v84.606A8,8,0,0,0,9.3,446.469H59.054a8,8,0,0,0,7.988-7.988V353.875a8,8,0,0,0-7.988-7.988Z" transform="translate(0 -194.003)"/>
    <path id="Tracciato_4280" data-name="Tracciato 4280" d="M29.713,451.059H28.353a2.027,2.027,0,0,1-2.027-2.027v-76.41a2.027,2.027,0,0,1,2.027-2.027h1.359a2.027,2.027,0,0,1,2.027,2.027v76.41a2.027,2.027,0,0,1-2.027,2.027" transform="translate(-14.822 -208.653)" fill="#fe196a"/>
    <path id="Tracciato_4281" data-name="Tracciato 4281" d="M60.173,451.059H58.813a2.027,2.027,0,0,1-2.027-2.027v-76.41a2.027,2.027,0,0,1,2.027-2.027h1.359a2.027,2.027,0,0,1,2.027,2.027v76.41a2.027,2.027,0,0,1-2.027,2.027" transform="translate(-31.972 -208.653)" fill="#fe196a"/>
    <path id="Tracciato_4282" data-name="Tracciato 4282" d="M90.633,451.059H89.273a2.027,2.027,0,0,1-2.027-2.027v-76.41a2.027,2.027,0,0,1,2.027-2.027h1.359a2.027,2.027,0,0,1,2.027,2.027v76.41a2.027,2.027,0,0,1-2.027,2.027" transform="translate(-49.121 -208.653)" fill="#fe196a"/>
    <path id="Tracciato_4283" data-name="Tracciato 4283" d="M121.093,451.059h-1.359a2.027,2.027,0,0,1-2.027-2.027v-76.41a2.027,2.027,0,0,1,2.027-2.027h1.359a2.027,2.027,0,0,1,2.027,2.027v76.41a2.027,2.027,0,0,1-2.027,2.027" transform="translate(-66.271 -208.653)" fill="#fe196a"/>
    <path id="Tracciato_4284" data-name="Tracciato 4284" d="M346.311,506.53l4.017,15.23a24.633,24.633,0,0,1,.624,9.338l-.8,6.435,20.286-3.311-2.621-1.931a23.89,23.89,0,0,1-9.073-13.712l-3.491-14.693Z" transform="translate(-194.98 -283.698)" fill="#fff"/>
    <path id="Tracciato_4285" data-name="Tracciato 4285" d="M349.3,537.343a.655.655,0,0,1-.65-.737l.8-6.434a23.886,23.886,0,0,0-.608-9.09l-4.017-15.23a.656.656,0,0,1,.448-.8l8.938-2.644a.655.655,0,0,1,.824.477l3.491,14.693a23.262,23.262,0,0,0,8.824,13.336l2.621,1.931a.655.655,0,0,1-.283,1.175l-20.287,3.311a.659.659,0,0,1-.105.008m-3.04-31.21,3.854,14.615a25.174,25.174,0,0,1,.641,9.586l-.7,5.565,17.885-2.919-1.367-1.007a24.573,24.573,0,0,1-9.322-14.088l-3.331-14.02Z" transform="translate(-194.136 -282.853)"/>
    <path id="Tracciato_4286" data-name="Tracciato 4286" d="M350.486,571.915c-.152-2.688-.19-8.042,1.564-11.4a1.317,1.317,0,0,1,1.658-.6l4.642,1.857a1.1,1.1,0,0,0,1.5-1.019v-.316a.845.845,0,0,1,.8-.844l4-.209a9.41,9.41,0,0,1,4.343.815c4.135,1.854,12.917,6.232,15.016,10.809a1.634,1.634,0,0,1-1.442,2.281c-3.625.163-12.8.45-30.333.3a1.77,1.77,0,0,1-1.752-1.669" transform="translate(-197.293 -314.935)" fill="#0cf"/>
    <path id="Tracciato_4287" data-name="Tracciato 4287" d="M360.807,573.437c-2.83,0-5.962-.013-9.42-.042a2.431,2.431,0,0,1-2.4-2.288c-.165-2.9-.171-8.278,1.636-11.74a1.966,1.966,0,0,1,2.483-.909l4.642,1.857a.442.442,0,0,0,.606-.41v-.317a1.5,1.5,0,0,1,1.423-1.5l4-.209a10.1,10.1,0,0,1,4.645.871c4.813,2.158,13.207,6.474,15.344,11.133a2.236,2.236,0,0,1-.131,2.1,2.322,2.322,0,0,1-1.877,1.112c-3.136.141-9.625.343-20.949.343m-8.442-13.812a.65.65,0,0,0-.58.348c-1.662,3.183-1.647,8.3-1.49,11.059a1.116,1.116,0,0,0,1.1,1.051c17.262.147,26.392-.125,30.3-.3a1.011,1.011,0,0,0,.817-.485.914.914,0,0,0,.059-.868c-2.032-4.429-10.949-8.807-14.688-10.484a8.792,8.792,0,0,0-4.041-.758l-4,.209a.19.19,0,0,0-.18.19v.317a1.752,1.752,0,0,1-2.4,1.627l-4.642-1.857a.682.682,0,0,0-.253-.049" transform="translate(-196.448 -314.09)"/>
    <path id="Tracciato_4288" data-name="Tracciato 4288" d="M369.762,584.156c-3.646,0-8.112-.085-13.438-.329a.655.655,0,1,1,.06-1.31c17.506.8,25.656-.116,25.736-.125a.656.656,0,0,1,.152,1.3,124.332,124.332,0,0,1-12.51.461" transform="translate(-200.265 -327.896)"/>
    <path id="Tracciato_4289" data-name="Tracciato 4289" d="M388.588,569.045a.653.653,0,0,1-.359-.107l-6.9-4.527a.655.655,0,0,1,.718-1.1l6.9,4.527a.656.656,0,0,1-.36,1.2" transform="translate(-214.528 -317.097)"/>
    <path id="Tracciato_4290" data-name="Tracciato 4290" d="M241.066,515.826l-2.453,17.222H232.4l.6-16.938Z" transform="translate(-130.848 -290.421)" fill="#fff"/>
    <path id="Tracciato_4291" data-name="Tracciato 4291" d="M237.769,532.858H231.56a.655.655,0,0,1-.655-.679l.6-16.938a.655.655,0,0,1,.632-.631l8.058-.284a.655.655,0,0,1,.672.747L238.418,532.3a.656.656,0,0,1-.649.563m-5.53-1.311H237.2l2.263-15.884-6.666.235Z" transform="translate(-130.004 -289.576)"/>
    <path id="Tracciato_4292" data-name="Tracciato 4292" d="M228.284,566.193a37.337,37.337,0,0,1-11.543.052,2.7,2.7,0,0,1-2.158-3.407c1.15-4.089,3.557-11.639,6.605-15.6a.455.455,0,0,1,.79.134l.108.711a.437.437,0,0,0,.827.121l.671-1.421a.963.963,0,0,1,.737-.464l2.358-.09a.964.964,0,0,1,1.039.792l.081,1.121a.437.437,0,0,0,.82.177l1.016-1.044a.354.354,0,0,1,.64.22l-.121,4.475a48.742,48.742,0,0,0,.7,9.654l.278,1.6c.145,1.478-1.372,2.8-2.849,2.961" transform="translate(-120.757 -307.538)" fill="#0cf"/>
    <path id="Tracciato_4293" data-name="Tracciato 4293" d="M221.249,566.49a34.374,34.374,0,0,1-5.455-.445,3.334,3.334,0,0,1-2.279-1.5,3.382,3.382,0,0,1-.407-2.735c1.174-4.175,3.609-11.781,6.718-15.817a1.111,1.111,0,0,1,1.929.322l.028.118.4-.832a1.624,1.624,0,0,1,1.238-.78l2.393-.093a1.618,1.618,0,0,1,1.709,1.334l.008.066.045.614L228.3,546a1.009,1.009,0,0,1,1.788.67l-.121,4.475a48.23,48.23,0,0,0,.691,9.524l.285,1.65c.184,1.875-1.659,3.487-3.431,3.677-.321.034-.658.075-1.013.117a41.717,41.717,0,0,1-5.249.375m-.676-19.3c-2.837,3.954-5.091,11.029-6.2,14.978a2.067,2.067,0,0,0,.249,1.674,2,2,0,0,0,1.381.909,34.257,34.257,0,0,0,10.341.063c.361-.043.7-.084,1.03-.119,1.107-.118,2.357-1.134,2.268-2.223l-.274-1.576a49.488,49.488,0,0,1-.71-9.784l.1-3.7-.461.473a1.093,1.093,0,0,1-1.993-.536l-.078-1.078a.313.313,0,0,0-.326-.23l-2.394.093a.3.3,0,0,0-.187.126l-.654,1.384a1.093,1.093,0,0,1-2.068-.3Z" transform="translate(-119.914 -306.691)"/>
    <path id="Tracciato_4294" data-name="Tracciato 4294" d="M226.205,584.6a21.728,21.728,0,0,1-5.524-.733.656.656,0,1,1,.333-1.268,17.478,17.478,0,0,0,9.829.022.655.655,0,1,1,.468,1.224,15.378,15.378,0,0,1-5.106.755" transform="translate(-123.972 -328.002)"/>
    <path id="Tracciato_4295" data-name="Tracciato 4295" d="M232.211,571.107h-5.693a.655.655,0,0,1,0-1.311h5.693a.655.655,0,0,1,0,1.311" transform="translate(-127.165 -320.807)"/>
    <path id="Tracciato_4296" data-name="Tracciato 4296" d="M308.7,254.524s8.141,52.586,8.465,65.144,5.548,50.556,5.548,50.556a27.834,27.834,0,0,1-14.375.749s-24.931-67.291-26.727-87.921,5.108-30.073,5.108-30.073Z" transform="translate(-158.383 -142.432)" fill="#0cf"/>
    <path id="Tracciato_4297" data-name="Tracciato 4297" d="M269.312,246.614s-27.6,84.266-28.047,118.52a41.654,41.654,0,0,1-14.824,0s-5.606-94.044,10.551-120.391Z" transform="translate(-126.961 -137.795)" fill="#0cf"/>
    <path id="Tracciato_4298" data-name="Tracciato 4298" d="M281.8,379.056a26.376,26.376,0,0,1-5.84-.64.657.657,0,0,1-.47-.412c-.147-.4-14.434-39.039-22.072-66.469-7.995,30.042-12.134,51.918-12.307,65.048a.655.655,0,0,1-.506.629,41.931,41.931,0,0,1-15.079.009.655.655,0,0,1-.548-.608c-.046-.767-4.443-77.043,6.435-111.093a.656.656,0,0,1,1.249.4c-10.33,32.336-6.776,103.26-6.4,110.09a42.783,42.783,0,0,0,13.552.025c.284-13.668,4.666-36.335,13.027-67.394a.655.655,0,0,1,1.275.3l-.02.1c7.088,26.127,21.041,64.2,22.5,68.175a27.651,27.651,0,0,0,13.161-.638c-.638-4.694-5.18-38.454-5.48-50.087-.212-8.237-3.89-34.307-6.063-49.114a.656.656,0,0,1,1.3-.19c2.66,18.122,5.873,41.381,6.076,49.271.319,12.378,5.49,50.1,5.543,50.483a.656.656,0,0,1-.422.7,27.793,27.793,0,0,1-8.908,1.414" transform="translate(-126.15 -149.237)"/>
    <path id="Tracciato_4299" data-name="Tracciato 4299" d="M290.394,345.733a.656.656,0,0,1-.636-.816l3.877-15.385a.655.655,0,1,1,1.271.32l-3.877,15.386a.655.655,0,0,1-.635.5" transform="translate(-163.128 -185.254)"/>
    <path id="Tracciato_4300" data-name="Tracciato 4300" d="M232.94,36.665c-1.738,9.981-11.874,20.7-22.068,19.282-1.664-.231-6.153-1.177-10.871-6.641-6.5,4.653-14.791,3.421-19.26-1.979-5.462-6.6-4.716-18.812,3.238-25.08-6.3-.052-8-2.476-8.5-3.431C172.531,13.187,180.323.021,187.6,0c2.684-.007,6.246,3.31,13.26,9.945,7.244,6.853,7.552,8.181,9.745,8.419,6.445.7,8.373-10.285,16.923-11.5,5.853-.832,12.391,3.258,12.885,7.12.425,3.315-3.855,4.484-6.264,11.1-1.794,4.93-.406,6.989-1.2,11.576" transform="translate(-98.439 0)"/>
    <path id="Tracciato_4301" data-name="Tracciato 4301" d="M277.555,4.984c.5,1.527,0,5.854-2.294,6.6s-5.522-2.362-6.02-3.89.959-3.373,3.255-4.122,4.561-.118,5.06,1.409" transform="translate(-151.533 -1.835)"/>
    <path id="Tracciato_4302" data-name="Tracciato 4302" d="M337.281,258s2.557,17.071-.57,20.344c0,0-10.22-11.195-10.7-19.28Z" transform="translate(-183.549 -145.26)" fill="#fff"/>
    <path id="Tracciato_4303" data-name="Tracciato 4303" d="M335.868,278.156h-.007a.656.656,0,0,1-.477-.214c-.424-.464-10.382-11.461-10.875-19.683a.655.655,0,0,1,.593-.692l11.275-1.063a.658.658,0,0,1,.71.555c.267,1.78,2.51,17.487-.744,20.893a.657.657,0,0,1-.474.2m-9.992-19.345c.8,6.636,7.9,15.275,9.935,17.632,1.722-3.334.729-13.848.068-18.575Z" transform="translate(-182.705 -144.416)"/>
    <path id="Tracciato_4304" data-name="Tracciato 4304" d="M268.294,255.195s-3.183,13.773-6.96,17.208-14.2-11.116-19.833-12.253c-6.879-1.387-12.846,12.249-12.846,12.249s2.387-16.026,7.114-19.691Z" transform="translate(-128.738 -142.28)" fill="#fff"/>
    <path id="Tracciato_4305" data-name="Tracciato 4305" d="M259.107,272.746c-2.6,0-6.136-3.183-9.839-6.512-3.187-2.866-6.483-5.83-8.74-6.285-6.282-1.267-12.058,11.738-12.116,11.87a.655.655,0,0,1-1.248-.359c.1-.665,2.481-16.33,7.36-20.112a.659.659,0,0,1,.452-.135L267.5,253.7a.655.655,0,0,1,.589.8c-.132.571-3.274,14.013-7.158,17.545a2.617,2.617,0,0,1-1.824.7m-19.442-14.194a5.665,5.665,0,0,1,1.121.112c2.608.526,5.887,3.474,9.357,6.595,3.842,3.454,8.193,7.369,9.9,5.815,3.094-2.814,5.863-13.244,6.582-16.128l-31.494-2.407c-2.877,2.485-4.863,10-5.882,14.833,2.217-3.748,6.028-8.82,10.411-8.82" transform="translate(-127.894 -141.436)"/>
    <path id="Tracciato_4306" data-name="Tracciato 4306" d="M425.784,62.126l5.254-5.478a1.131,1.131,0,0,1,1.834,1.276l-1.617,3.339a6.91,6.91,0,0,0,1.651.548,4.094,4.094,0,0,0,3.188-1.305c.959-1,2.511-2.6,3.037-2.992a6.236,6.236,0,0,1,2.9-1.576l.034,0a1.414,1.414,0,0,1,1.291,2.178l-2.2,3.4a13.766,13.766,0,0,1-6.677,5.4l-4.507,1.71a4.135,4.135,0,0,0-2.667,3.758l-.454,17.476L417.63,82.8l4.142-13.392a20.561,20.561,0,0,1,4.011-7.283" transform="translate(-235.134 -31.49)" fill="#fff"/>
    <path id="Tracciato_4307" data-name="Tracciato 4307" d="M426.008,89.664a.655.655,0,0,1-.4-.135l-9.223-7.049a.656.656,0,0,1-.228-.714L420.3,68.374a21.1,21.1,0,0,1,4.139-7.515l.025-.028,5.253-5.478a1.787,1.787,0,0,1,2.9,2.015L431.3,60.085a3.55,3.55,0,0,0,.8.231,3.423,3.423,0,0,0,2.672-1.1,39.356,39.356,0,0,1,3.118-3.064c.106-.079.216-.164.33-.253a5.768,5.768,0,0,1,2.911-1.452,2.07,2.07,0,0,1,1.928,3.185l-2.2,3.4a14.324,14.324,0,0,1-7,5.653l-4.507,1.71a3.467,3.467,0,0,0-2.244,3.162l-.455,17.477a.654.654,0,0,1-.655.638m-8.462-7.947,7.84,5.992.422-16.193a4.773,4.773,0,0,1,3.089-4.354l4.507-1.71a13.023,13.023,0,0,0,6.359-5.139l2.2-3.4a.758.758,0,0,0-.692-1.168,4.724,4.724,0,0,0-2.243,1.184c-.12.093-.236.182-.347.265-.361.27-1.439,1.334-2.955,2.92a4.742,4.742,0,0,1-3.7,1.506,6.971,6.971,0,0,1-1.885-.607.655.655,0,0,1-.314-.881l1.617-3.339a.476.476,0,0,0-.772-.536l-5.24,5.464a19.8,19.8,0,0,0-3.872,7.036Z" transform="translate(-234.29 -30.649)"/>
    <path id="Tracciato_4308" data-name="Tracciato 4308" d="M404.624,107.636l23.007,18.232L417.376,136.5,397.86,120.243Z" transform="translate(-224.003 -60.601)" fill="#fff"/>
    <path id="Tracciato_4309" data-name="Tracciato 4309" d="M416.532,136.311a.652.652,0,0,1-.419-.152L396.6,119.9a.656.656,0,0,1-.159-.814l6.764-12.607a.655.655,0,0,1,.984-.2l23.007,18.232a.655.655,0,0,1,.065.969L417,136.111a.655.655,0,0,1-.472.2m-18.685-17.074,18.636,15.525,9.33-9.673-21.826-17.3Z" transform="translate(-223.159 -59.757)"/>
    <path id="Tracciato_4310" data-name="Tracciato 4310" d="M301.315,125.785,274.894,105.4s-2.891,4.4-7.629,4.873c-4.028.4-10.9-7.93-16.32-11.539a36.586,36.586,0,0,0-23.308-5.581s-.039,0-.112.01a41.245,41.245,0,0,0-4.571.666c-11.119,1.862-38.576,8.017-43.78,23.983-3.51,10.772.593,25.212,1.277,27.469a.271.271,0,0,0,.38.163l24.405-11.784-1.883-5.667a5.739,5.739,0,0,1,2.594-7.256l3.784-2.026c.871,4.767,1.588,9.781.777,14.032-3,15.723-6.442,20.866-8.158,33.759a43.278,43.278,0,0,1,10.265-1.117L253.3,166.94a5.2,5.2,0,0,0,5.374-4.594c.426-3.779.435-10.47-1.127-22.21-.2-1.525-.331-3.945-.479-6.9,8.314,5,23.5,8.89,44.244-7.446" transform="translate(-100.089 -52.364)" fill="#fff"/>
    <path id="Tracciato_4311" data-name="Tracciato 4311" d="M252.648,166.751c-.075,0-.15,0-.225,0l-40.689-1.556a42.869,42.869,0,0,0-10.089,1.1.656.656,0,0,1-.8-.725,97.953,97.953,0,0,1,3.871-16.758,157.79,157.79,0,0,0,4.294-17.038c.734-3.844.17-8.439-.618-12.906l-2.99,1.6a5.067,5.067,0,0,0-2.3,6.428c.006.014.012.029.017.044L205,132.6a.656.656,0,0,1-.337.8l-24.405,11.784a.926.926,0,0,1-1.292-.564c-.833-2.749-4.809-17.011-1.273-27.861,5.292-16.239,32.739-22.492,44.294-24.426a41.952,41.952,0,0,1,4.622-.673l.1-.011a.553.553,0,0,1,.071,0,36.978,36.978,0,0,1,23.667,5.691,61.515,61.515,0,0,1,6.23,5.107c3.618,3.225,7.351,6.558,9.665,6.328,4.376-.439,7.12-4.54,7.147-4.581a.655.655,0,0,1,.948-.159l26.42,20.385a.655.655,0,0,1,.005,1.034c-9.339,7.353-18.474,11.345-27.151,11.865a30.4,30.4,0,0,1-16.783-3.764c.129,2.489.245,4.381.413,5.648,1.311,9.853,1.69,17.38,1.128,22.37a5.874,5.874,0,0,1-5.826,5.18m-42.111-2.908c.431,0,.854.012,1.265.038l40.671,1.555a4.549,4.549,0,0,0,4.7-4.012c.378-3.358.489-9.91-1.126-22.05-.2-1.514-.327-3.839-.484-6.958a.656.656,0,0,1,.993-.595c8.718,5.248,23.194,8.264,42.836-6.882L274.17,105.48c-.994,1.262-3.707,4.2-7.694,4.6-2.889.291-6.663-3.084-10.668-6.654a60.793,60.793,0,0,0-6.081-4.992,35.682,35.682,0,0,0-22.889-5.474l-.036,0-.058.007a40.826,40.826,0,0,0-4.515.657c-11.341,1.9-38.216,7.987-43.287,23.544-3.278,10.059.3,23.683,1.154,26.643l23.482-11.338-1.7-5.1a6.375,6.375,0,0,1,2.9-8.063l3.785-2.026a.655.655,0,0,1,.954.46c.889,4.866,1.6,9.962.775,14.273a159,159,0,0,1-4.326,17.167,98.66,98.66,0,0,0-3.7,15.629,44.807,44.807,0,0,1,8.264-.971" transform="translate(-99.235 -51.515)"/>
    <path id="Tracciato_4312" data-name="Tracciato 4312" d="M227.119,202.48l7.328,11.407,3.283-2.226a9.292,9.292,0,0,1,6.857-1.455s3.53.469,5.037,1.685c3.634,2.933.413,4.758-.284,5.126a7.228,7.228,0,0,1-4.333.907,11.4,11.4,0,0,0-5.822,1.443c-1.743.947-3.779,2.88-6.546,2.13a6.521,6.521,0,0,1-3.4-2.035l-9.467-11.806Z" transform="translate(-123.733 -114)" fill="#fff"/>
    <path id="Tracciato_4313" data-name="Tracciato 4313" d="M233.045,221.478a5.416,5.416,0,0,1-1.422-.193,7.16,7.16,0,0,1-3.758-2.276l-9.453-11.788a.655.655,0,0,1,.134-.946L225.9,201.1a.655.655,0,0,1,.929.182l6.965,10.841,2.726-1.849a9.893,9.893,0,0,1,7.34-1.557c.122.015,3.7.5,5.333,1.82,1.39,1.122,2.039,2.264,1.93,3.395a3.849,3.849,0,0,1-2.319,2.821,7.936,7.936,0,0,1-4.733.977,10.83,10.83,0,0,0-5.417,1.37c-.333.181-.686.406-1.06.643a8.537,8.537,0,0,1-4.548,1.736M219.87,206.945l9.031,11.261a5.986,5.986,0,0,0,3.065,1.813c1.928.523,3.45-.447,4.923-1.384.393-.25.765-.486,1.138-.689a11.937,11.937,0,0,1,6.227-1.516,6.646,6.646,0,0,0,3.935-.838c.974-.516,1.567-1.167,1.627-1.787.08-.828-.744-1.68-1.449-2.249-1.116-.9-3.779-1.421-4.712-1.545a8.614,8.614,0,0,0-6.4,1.348l-3.282,2.226a.655.655,0,0,1-.919-.188l-6.958-10.831Z" transform="translate(-122.889 -113.156)"/>
    <path id="Tracciato_4314" data-name="Tracciato 4314" d="M211.763,188.3l3.019,5.572L196.94,208.1s-3.248-6.246-4.247-10.636Z" transform="translate(-108.49 -106.017)" fill="#fff"/>
    <path id="Tracciato_4315" data-name="Tracciato 4315" d="M196.1,207.913a.656.656,0,0,1-.582-.353c-.134-.258-3.3-6.372-4.3-10.793a.656.656,0,0,1,.356-.736l19.07-9.165a.655.655,0,0,1,.86.278l3.019,5.572a.656.656,0,0,1-.168.825L196.5,207.77a.656.656,0,0,1-.409.143m-3.485-10.931a55.852,55.852,0,0,0,3.707,9.259L213.1,192.858l-2.46-4.54Z" transform="translate(-107.646 -105.172)"/>
    <path id="Tracciato_4316" data-name="Tracciato 4316" d="M357.221,167.069a.655.655,0,0,1-.653-.611c-.079-1.152-.167-2.411-.259-3.717-.256-3.645-.545-7.776-.712-10.868a.656.656,0,0,1,1.309-.07c.166,3.081.455,7.207.711,10.847.091,1.306.18,2.566.258,3.719a.654.654,0,0,1-.609.7l-.045,0" transform="translate(-200.208 -85.119)"/>
    <path id="Tracciato_4317" data-name="Tracciato 4317" d="M293.987,64.628l-1.58,13.132,7.307,3.249s-10.812,7.349-25.05-.8l7.686-3.283,3.963-15.24Z" transform="translate(-154.641 -34.733)" fill="#fff"/>
    <path id="Tracciato_4318" data-name="Tracciato 4318" d="M287.359,83.835a27.658,27.658,0,0,1-13.866-3.9.656.656,0,0,1,.069-1.172l7.389-3.156,3.882-14.928a.655.655,0,0,1,.869-.447l7.675,2.938a.655.655,0,0,1,.416.69l-1.522,12.652,6.864,3.052a.655.655,0,0,1,.1,1.141,22.956,22.956,0,0,1-11.878,3.128m-12.039-4.4c10.609,5.5,19.157,2.267,22.09.794L291.3,77.515a.655.655,0,0,1-.385-.677l1.519-12.624-6.513-2.493-3.779,14.53a.654.654,0,0,1-.377.438Z" transform="translate(-153.797 -33.889)"/>
    <path id="Tracciato_4319" data-name="Tracciato 4319" d="M295.951,54.581s-2.933,1.107-3.707-1.442A1.661,1.661,0,0,1,294,50.751s-2.692-5.586,1.494-6.13a24.7,24.7,0,0,0,7.242-2.092,42.564,42.564,0,0,1,4.02,9.795c.589,2.694.428,5.074-1.606,5.783-5.568,1.941-9.2-3.526-9.2-3.526" transform="translate(-164.457 -23.945)" fill="#fff"/>
    <path id="Tracciato_4320" data-name="Tracciato 4320" d="M301.942,58.333c-3.683,0-6.253-2.792-7.089-3.841a4,4,0,0,1-2.612-.178,2.852,2.852,0,0,1-1.47-1.828,2.507,2.507,0,0,1,.251-2.384,2.223,2.223,0,0,1,1.193-.743c-.421-1.147-.962-3.2-.159-4.678a3.1,3.1,0,0,1,2.506-1.553,24.3,24.3,0,0,0,7.032-2.027.656.656,0,0,1,.865.26,42.679,42.679,0,0,1,4.091,9.98c.981,4.48-.563,6.03-2.03,6.542a7.8,7.8,0,0,1-2.579.451m-6.291-4.96c.137.205,3.428,5.017,8.438,3.27,1.406-.49,1.8-2.18,1.182-5.024a40.174,40.174,0,0,0-3.66-9.083,26.085,26.085,0,0,1-6.879,1.89,1.851,1.851,0,0,0-1.522.876c-.669,1.234.159,3.536.535,4.32a.656.656,0,0,1-.632.938,1.455,1.455,0,0,0-1.064.357,1.423,1.423,0,0,0-.022,1.187,1.573,1.573,0,0,0,.8,1.033,3.066,3.066,0,0,0,2.053-.014.657.657,0,0,1,.776.25m-.545.364h0Z" transform="translate(-163.611 -23.1)"/>
  </g>
</svg>
